<?xml version="1.0" encoding="utf-8"?>
<!-- Generator: Adobe Illustrator 20.0.0, SVG Export Plug-In . SVG Version: 6.00 Build 0)  -->
<svg version="1.1" id="Layer_1" xmlns="http://www.w3.org/2000/svg" xmlns:xlink="http://www.w3.org/1999/xlink" x="0px" y="0px"
	 viewBox="0 0 408.1 702.4" style="enable-background:new 0 0 408.1 702.4;" xml:space="preserve">
<style type="text/css">
	.st0{opacity:0.2;}
	.st1{fill:#3897D3;}
	.st2{fill:#16A286;}
	.st3{fill:#FFFFFF;}
	.st4{fill:none;stroke:#FCB716;stroke-width:9.0274;stroke-miterlimit:10;}
	.st5{fill:#445464;}
	.st6{fill:#F08921;}
	.st7{fill:none;stroke:#F08921;stroke-width:6;stroke-miterlimit:10;}
	.st8{fill:none;stroke:#F08921;stroke-width:6;stroke-miterlimit:10;stroke-dasharray:14.7345,6.3148;}
	.st9{fill:none;stroke:#F08921;stroke-width:6;stroke-miterlimit:10;stroke-dasharray:13.3243,5.7104;}
	.st10{fill:none;stroke:#F08921;stroke-width:6;stroke-miterlimit:10;stroke-dasharray:15.2388,6.5309;}
</style>
<g class="st0">
	<rect x="33.7" y="280.3" class="st1" width="374.5" height="243.1"/>
</g>
<g class="st0">
	<rect x="33.7" class="st2" width="374.5" height="243.1"/>
</g>
<g>
	<rect x="225.7" y="304.5" class="st1" width="72" height="72"/>
</g>
<path class="st3" d="M258.7,351.2c-9.7,0-17.6-7.9-17.6-17.6S249,316,258.7,316s17.6,7.9,17.6,17.6
	C276,343.5,268.1,351.2,258.7,351.2L258.7,351.2z M258.7,319.8c-7.7,0-14,6.3-14,14s6.3,14,14,14c7.7,0,14-6.3,14-14
	C272.7,325.9,266.3,319.8,258.7,319.8L258.7,319.8z"/>
<path class="st3" d="M248.7,333.8h-1.8c0-6.3,5.2-11.7,11.7-11.7v1.8C253,323.9,248.7,328.4,248.7,333.8L248.7,333.8z"/>
<path class="st3" d="M279.4,357.1c-0.5,0-0.9-0.2-1.4-0.5l-9.7-9.7c-0.7-0.7-0.7-1.8,0-2.5c0.7-0.7,1.8-0.7,2.5,0l9.7,9.7
	c0.7,0.7,0.7,1.8,0,2.5C280.3,356.8,279.9,357.1,279.4,357.1L279.4,357.1z"/>
<line class="st4" x1="345.6" y1="437.6" x2="321.9" y2="437.6"/>
<line class="st4" x1="346.5" y1="426.1" x2="346.5" y2="449.1"/>
<line class="st4" x1="357.3" y1="437.6" x2="347.4" y2="437.6"/>
<line class="st4" x1="357.1" y1="427" x2="347.4" y2="427"/>
<g>
	<rect x="309" y="386.2" class="st1" width="72" height="72"/>
</g>
<path class="st3" d="M364.5,439.2h-38.1c-0.9,0-1.8-0.9-1.8-1.8v-12.9c0-0.9,0.9-1.8,1.8-1.8h11.7c0.9,0,1.8,0.9,1.8,1.8v2.5h10.8
	v-2.5c0-0.9,0.9-1.8,1.8-1.8h11.7c0.9,0,1.8,0.9,1.8,1.8v12.9C366.3,438.3,365.4,439.2,364.5,439.2L364.5,439.2z M328,435.6h34.5
	v-9.3h-8.1v0.7c0,2-1.6,3.6-3.6,3.6h-10.8c-2,0-3.6-1.6-3.6-3.6v-0.7H328V435.6L328,435.6z"/>
<path class="st3" d="M362.5,425.9c-0.9,0-1.8-0.9-1.8-1.8v-12.6h-30v12.6c0,0.9-0.9,1.8-1.8,1.8c-0.9,0-1.8-0.9-1.8-1.8v-14.4
	c0-0.9,0.9-1.8,1.8-1.8h33.6c0.9,0,1.8,0.9,1.8,1.8v14.7C364.3,425.2,363.4,425.9,362.5,425.9L362.5,425.9z"/>
<path class="st3" d="M360.2,406h-29.3c-0.5,0-0.9-0.5-0.9-0.9c0-0.5,0.5-0.9,0.9-0.9h29.3c0.5,0,0.9,0.5,0.9,0.9
	C361.1,405.6,360.9,406,360.2,406L360.2,406z"/>
<path class="st3" d="M358.6,402.2h-26c-0.5,0-0.9-0.5-0.9-0.9c0-0.5,0.5-0.9,0.9-0.9h26c0.5,0,0.9,0.5,0.9,0.9
	C359.6,402,359.1,402.2,358.6,402.2L358.6,402.2z"/>
<g>
	<rect x="142.2" y="304.5" class="st1" width="72" height="72"/>
</g>
<path class="st3" d="M178.1,347.6c5,0,9.3-1.4,10.6-3.2v-2.9l-0.2-0.2c-1.4,1.8-5.6,3.2-10.6,3.2c-4.7,0-8.8-1.1-10.4-2.9l0,0v2.7
	C168.8,346.2,173.1,347.6,178.1,347.6z"/>
<path class="st3" d="M170,339.9c2,0.9,5,1.4,8.1,1.4c3.2,0,6.1-0.5,8.1-1.4c0.9-0.5,1.8-0.9,2.3-1.4l0.2-0.2v-3.2l-0.2-0.2
	c-0.5,0.7-1.4,1.4-2.5,1.8c-2,0.9-5,1.4-8.1,1.4s-6.1-0.5-8.1-1.4c-0.9-0.5-1.8-0.9-2.3-1.6l0,0v2.7c0,0,0,0,0,0.2
	C167.9,338.8,168.8,339.5,170,339.9z"/>
<path class="st3" d="M170,333.4c2,0.9,4.7,1.6,7.9,1.6s6.1-0.7,8.1-1.6c0.9-0.5,1.8-1.1,2-1.6c0.2-0.5,0.5-0.7,0.5-1.1
	c0-2.5-4.7-4.3-10.6-4.3s-10.6,2-10.6,4.3c0,0.5,0,0.7,0.2,0.9C168.2,332.2,168.8,332.9,170,333.4z"/>
<path class="st3" d="M196.4,317.3H160c-0.9,0-1.6,0.7-1.6,1.6v36.3c0,0.9,0.7,1.6,1.6,1.6h36.3c0.9,0,1.6-0.7,1.6-1.6v-36.3
	C198,318,197.3,317.3,196.4,317.3z M194.6,353.7h-33v-33h33V353.7z"/>
<g>
	<rect x="309" y="304.3" class="st1" width="72" height="72"/>
</g>
<path class="st3" d="M365.2,322.8H355v2.9h8.8v28.7H335V346h-2.7v9.7c0,0.9,0.7,1.3,1.3,1.3h31.6c0.9,0,1.3-0.7,1.3-1.3v-31.6
	C366.8,323.4,366.1,322.8,365.2,322.8z"/>
<path class="st3" d="M340.6,340.6c4.3,0,7.9-1.1,9.3-2.7v-2.5c0,0,0-0.2-0.2-0.2c-1.4,1.6-5,2.7-9.3,2.7c-4.1,0-7.7-1.1-9-2.5l0,0
	v2.5C332.5,339.5,336.3,340.6,340.6,340.6z"/>
<path class="st3" d="M333.6,333.8c1.8,0.7,4.3,1.4,7,1.4s5.4-0.5,7-1.4c0.9-0.5,1.6-0.7,2-1.4l0.2-0.2v-2.5c0,0,0-0.2-0.2-0.2
	c-0.5,0.7-1.1,1.1-2.3,1.6c-1.8,0.7-4.3,1.4-7,1.4s-5.4-0.5-7-1.4c-0.9-0.5-1.6-0.9-2-1.4l0,0v2.5c0,0,0,0,0,0.2
	C331.8,332.9,332.7,333.4,333.6,333.8z"/>
<path class="st3" d="M333.6,328.4c1.6,0.9,4.3,1.4,7,1.4s5.4-0.5,7-1.4c0.9-0.5,1.6-0.9,1.8-1.4c0.2-0.2,0.2-0.7,0.2-1.1
	c0-2-4.1-3.8-9.3-3.8c-5.2,0-9.3,1.8-9.3,3.8c0,0.2,0,0.7,0.2,0.9C332,327.3,332.7,327.9,333.6,328.4z"/>
<path class="st3" d="M356.6,314.2H325c-0.9,0-1.3,0.7-1.3,1.3v31.6c0,0.9,0.7,1.3,1.3,1.3h31.6c0.9,0,1.3-0.7,1.3-1.3v-31.6
	C358,314.9,357.3,314.2,356.6,314.2z M355,346h-28.9v-28.9H355V346z"/>
<g>
	<rect x="58.3" y="386.2" class="st1" width="72" height="72"/>
</g>
<path class="st3" d="M90.3,399.5c1.1,0,2.7,2,3.8,2c1.4,0,2.7-2,3.8-2h0.2c1.4,0.2,1.8,2.9,2.9,3.6c0.2,0,0.5,0.2,0.9,0.2
	c0.9,0,1.8-0.2,2.7-0.2c0.5,0,0.7,0,0.9,0.2c1.1,0.9,0.2,3.4,1.1,4.5c0.9,0.9,3.4,0.9,4.1,2c0.5,1.1-1.1,3.2-0.9,4.5
	c0.2,1.4,2.7,2.3,2.7,3.6c0,1.4-2.5,2.3-2.7,3.6s1.6,3.4,0.9,4.5c-0.7,1.1-3.2,1.1-4.1,2c-0.9,1.1,0,3.6-1.1,4.5
	c-0.2,0.2-0.7,0.2-0.9,0.2c-0.9,0-1.8-0.2-2.7-0.2c-0.2,0-0.7,0-0.9,0.2c-1.1,0.5-1.6,3.2-2.9,3.6H98c-1.1,0-2.7-2-3.8-2
	c-1.4,0-2.7,2-3.8,2h-0.2c-1.4-0.2-1.8-2.9-2.9-3.6c-0.2,0-0.5-0.2-0.9-0.2c-0.9,0-1.8,0.2-2.7,0.2c-0.5,0-0.7,0-0.9-0.2
	c-1.1-0.9-0.2-3.4-1.1-4.5c-0.9-0.9-3.4-0.9-4.1-2c-0.5-1.1,1.1-3.2,0.9-4.5s-2.7-2.3-2.7-3.6c0-1.4,2.5-2.3,2.7-3.6
	c0.2-1.4-1.6-3.4-0.9-4.5c0.7-1.1,3.2-1.1,4.1-2c0.9-1.1,0-3.6,1.1-4.5c0.2-0.2,0.7-0.2,0.9-0.2c0.9,0,1.8,0.2,2.7,0.2
	c0.2,0,0.7,0,0.9-0.2c1.1-0.5,1.6-3.2,2.9-3.6C90.1,399.5,90.1,399.5,90.3,399.5 M90.3,395.9c-0.5,0-0.7,0-1.1,0.2
	c-2.3,0.5-3.2,2.3-3.8,3.4c-0.5,0-1.1-0.2-1.8-0.2c-1.4,0-2.3,0.5-3.2,1.1c-1.8,1.4-1.8,3.4-2,4.7c-1.4,0.5-3.2,0.9-4.3,2.9
	c-0.9,2-0.2,3.8,0.2,5.2c-0.9,0.9-2.5,2.3-2.5,4.5c0,2.3,1.6,3.6,2.5,4.5c-0.5,1.1-1.1,3.2-0.2,5.2c0.9,2,2.9,2.7,4.3,2.9
	c0,1.4,0.2,3.4,2,4.7c0.9,0.7,2,1.1,3.2,1.1c0.7,0,1.4,0,1.8-0.2c0.7,1.1,1.6,2.9,3.8,3.4c0.2,0,0.7,0.2,1.1,0.2
	c1.6,0,2.9-0.9,3.8-1.6c0.9,0.7,2.3,1.6,3.8,1.6c0.5,0,0.7,0,1.1-0.2c2.3-0.5,3.2-2.3,3.8-3.4c0.5,0,1.1,0.2,1.8,0.2
	c1.4,0,2.3-0.5,3.2-1.1c1.8-1.4,1.8-3.4,2-4.7c1.4-0.5,3.2-0.9,4.3-2.9c0.9-2,0.2-3.8-0.2-5.2c0.9-0.9,2.5-2.3,2.5-4.5
	c0-2.3-1.6-3.6-2.5-4.5c0.5-1.1,1.1-3.2,0.2-5.2c-0.9-2-2.9-2.7-4.3-2.9c0-1.4-0.2-3.4-2-4.7c-0.9-0.7-2-1.1-3.2-1.1
	c-0.7,0-1.4,0-1.8,0.2c-0.7-1.1-1.6-2.9-3.8-3.4c-0.2,0-0.7-0.2-1.1-0.2c-1.6,0-2.9,0.9-3.8,1.6C93.2,396.8,91.9,395.9,90.3,395.9
	L90.3,395.9z"/>
<g>
	<path class="st3" d="M102.9,427H85.6c-0.5,0-0.9-0.5-0.9-0.9v-16.9c0-0.5,0.5-0.9,0.9-0.9h17.4c0.5,0,0.9,0.5,0.9,0.9v17.2
		C103.6,426.6,103.4,427,102.9,427L102.9,427z M86.2,425.4H102v-15.3H86.2V425.4L86.2,425.4z"/>
</g>
<g>
	<path class="st3" d="M100.2,421.4H88.1c-0.2,0-0.5-0.2-0.5-0.5v-9.3c0-0.2,0.2-0.5,0.5-0.5h12.2c0.2,0,0.5,0.2,0.5,0.5v9.3
		C100.7,421.4,100.5,421.4,100.2,421.4L100.2,421.4z M88.5,420.7h11.3v-8.6H88.5V420.7L88.5,420.7z"/>
</g>
<g>
	<path class="st3" d="M90.1,423.9c0-0.2,0.2-0.2,0.2-0.2h1.6c0.2,0,0.2,0.2,0.2,0.2c0,0.2-0.2,0.2-0.2,0.2h-1.6
		C90.3,424.1,90.1,424.1,90.1,423.9L90.1,423.9z"/>
</g>
<g>
	<path class="st3" d="M93,423.9c0-0.2,0.2-0.2,0.2-0.2h1.6c0.2,0,0.2,0.2,0.2,0.2c0,0.2-0.2,0.2-0.2,0.2h-1.6
		C93.2,424.1,93,424.1,93,423.9L93,423.9z"/>
</g>
<g>
	<path class="st3" d="M96,423.9c0-0.2,0.2-0.2,0.2-0.2h1.6c0.2,0,0.2,0.2,0.2,0.2c0,0.2-0.2,0.2-0.2,0.2h-1.6
		C96,424.1,96,424.1,96,423.9L96,423.9z"/>
</g>
<g>
	<rect x="58.5" y="304.5" class="st1" width="72" height="72"/>
</g>
<path class="st3" d="M103.4,334.3H90.1c-0.5,0-0.9-0.5-0.9-0.9v-7.4c0-0.5,0.5-0.9,0.9-0.9h13.3c0.5,0,0.9,0.5,0.9,0.9v7.4
	C104.3,334,103.8,334.3,103.4,334.3L103.4,334.3z M91,332.7h11.5v-5.9H91V332.7L91,332.7z"/>
<path class="st3" d="M110.8,358.2h-30c-0.9,0-1.8-0.7-1.8-1.8v-37.5c0-0.9,0.7-1.8,1.8-1.8h30c0.9,0,1.8,0.7,1.8,1.8v37.7
	C112.4,357.5,111.7,358.2,110.8,358.2L110.8,358.2z M82.6,354.8H109v-34.1H82.6V354.8L82.6,354.8z"/>
<path class="st3" d="M84,327.7h-6.1c-0.9,0-1.8-0.7-1.8-1.8c0-0.9,0.7-1.8,1.8-1.8H84c0.9,0,1.8,0.7,1.8,1.8
	C85.6,326.8,84.9,327.7,84,327.7L84,327.7z"/>
<path class="st3" d="M84,335.4h-6.1c-0.9,0-1.8-0.7-1.8-1.8c0-0.9,0.7-1.8,1.8-1.8H84c0.9,0,1.8,0.7,1.8,1.8
	C85.6,334.7,84.9,335.4,84,335.4L84,335.4z"/>
<path class="st3" d="M84,343.3h-6.1c-0.9,0-1.8-0.7-1.8-1.8c0-0.9,0.7-1.8,1.8-1.8H84c0.9,0,1.8,0.7,1.8,1.8
	C85.6,342.4,84.9,343.3,84,343.3L84,343.3z"/>
<path class="st3" d="M84,351h-6.1c-0.9,0-1.8-0.7-1.8-1.8c0-0.9,0.7-1.8,1.8-1.8H84c0.9,0,1.8,0.7,1.8,1.8
	C85.6,350.3,84.9,351,84,351L84,351z"/>
<g>
	<rect x="142" y="386.2" class="st1" width="72" height="72"/>
</g>
<path class="st3" d="M184,410.8h-5.6c-0.2,0-0.5-0.2-0.5-0.5v-3.4c0-0.2,0.2-0.5,0.5-0.5h5.6c0.2,0,0.5,0.2,0.5,0.5v3.4
	C184.2,410.5,184,410.8,184,410.8L184,410.8z M178.6,410.1h5v-2.7h-5V410.1L178.6,410.1z"/>
<g>
	<path class="st3" d="M186.9,421.4h-12.6c-0.5,0-0.7-0.5-0.7-0.7V404c0-0.5,0.2-0.7,0.7-0.7h12.6c0.5,0,0.7,0.5,0.7,0.7v16.7
		C187.8,421.2,187.4,421.4,186.9,421.4L186.9,421.4z M174.9,419.8h11.3v-15.1h-11.3V419.8L174.9,419.8z"/>
</g>
<g>
	<path class="st3" d="M175.6,407.8h-2.5c-0.5,0-0.7-0.5-0.7-0.7c0-0.5,0.2-0.7,0.7-0.7h2.5c0.5,0,0.7,0.5,0.7,0.7
		C176.3,407.4,176.1,407.8,175.6,407.8L175.6,407.8z"/>
</g>
<g>
	<path class="st3" d="M175.6,411.2h-2.5c-0.5,0-0.7-0.5-0.7-0.7c0-0.5,0.2-0.7,0.7-0.7h2.5c0.5,0,0.7,0.5,0.7,0.7
		C176.3,411,176.1,411.2,175.6,411.2L175.6,411.2z"/>
</g>
<g>
	<path class="st3" d="M175.6,414.8h-2.5c-0.5,0-0.7-0.5-0.7-0.7c0-0.5,0.2-0.7,0.7-0.7h2.5c0.5,0,0.7,0.5,0.7,0.7
		C176.3,414.4,176.1,414.8,175.6,414.8L175.6,414.8z"/>
</g>
<g>
	<path class="st3" d="M175.6,418.2h-2.5c-0.5,0-0.7-0.5-0.7-0.7c0-0.5,0.2-0.7,0.7-0.7h2.5c0.5,0,0.7,0.5,0.7,0.7
		C176.3,417.8,176.1,418.2,175.6,418.2L175.6,418.2z"/>
</g>
<path class="st3" d="M167.3,430c-0.9,0-1.6-0.7-1.8-1.4l-6.3-24.1l-5.9-0.2c-1.1,0-1.8-0.9-1.8-2s0.9-2,2-1.8l7.2,0.2
	c0.9,0,1.6,0.7,1.8,1.4l6.8,25.7c0.2,1.1-0.2,2.3-1.4,2.5C167.5,430,167.3,430,167.3,430L167.3,430z"/>
<path class="st3" d="M171.8,441.9c-2.9,0-5.2-2.5-5.2-5.4c0-2.9,2.3-5.4,5.2-5.4s5.2,2.5,5.2,5.4C177,439.4,174.7,441.9,171.8,441.9
	L171.8,441.9z M171.8,434.9c-0.7,0-1.4,0.7-1.4,1.6s0.7,1.6,1.4,1.6c0.7,0,1.4-0.7,1.4-1.6C173.1,435.6,172.5,434.9,171.8,434.9
	L171.8,434.9z"/>
<path class="st3" d="M187.6,441.9c-2.9,0-5.2-2.5-5.2-5.4c0-2.9,2.3-5.4,5.2-5.4s5.2,2.5,5.2,5.4
	C192.8,439.4,190.5,441.9,187.6,441.9L187.6,441.9z M187.6,434.9c-0.7,0-1.4,0.7-1.4,1.6s0.7,1.6,1.4,1.6c0.7,0,1.4-0.7,1.4-1.6
	C188.9,435.6,188.3,434.9,187.6,434.9L187.6,434.9z"/>
<path class="st3" d="M192.8,430h-25.5c-0.9,0-1.6-0.7-1.8-1.4l-5-18.5c-0.2-0.7,0-1.1,0.2-1.8c0.5-0.5,0.9-0.7,1.6-0.7h6.8v4.1h-4.3
	l3.8,14.4h22.6l3.8-14.4h-4.3v-4.1h6.8c0.7,0,1.1,0.2,1.6,0.7c0.5,0.5,0.5,1.1,0.2,1.8l-5,18.5C194.3,429.5,193.7,430,192.8,430
	L192.8,430z"/>
<g>
	<rect x="225.7" y="386.2" class="st1" width="71.8" height="71.8"/>
</g>
<path class="st3" d="M250.3,409.4c-0.5,0-0.9-0.2-1.1-0.5l-2.7-2.7l-2.7,2.7c-0.7,0.7-1.6,0.7-2.3,0s-0.7-1.6,0-2.3l3.8-3.8
	c0.7-0.7,1.6-0.7,2.3,0l3.8,3.8c0.7,0.7,0.7,1.6,0,2.3C251.2,409.2,250.8,409.4,250.3,409.4L250.3,409.4z"/>
<path class="st3" d="M246.7,417.5c-0.9,0-1.6-0.7-1.6-1.6v-10.8c0-0.9,0.7-1.6,1.6-1.6l0,0c0.9,0,1.6,0.7,1.6,1.6V416
	C248.3,416.9,247.6,417.5,246.7,417.5L246.7,417.5L246.7,417.5z"/>
<path class="st3" d="M246.7,438.5c-0.5,0-0.9-0.2-1.1-0.5l-3.8-3.8c-0.7-0.7-0.7-1.6,0-2.3c0.7-0.7,1.6-0.7,2.3,0l2.7,2.7l2.7-2.7
	c0.7-0.7,1.6-0.7,2.3,0c0.7,0.7,0.7,1.6,0,2.3l-3.8,3.8C247.6,438.5,247.2,438.5,246.7,438.5L246.7,438.5z"/>
<path class="st3" d="M246.7,437.6c-0.9,0-1.6-0.7-1.6-1.6v-10.8c0-0.9,0.7-1.6,1.6-1.6l0,0c0.9,0,1.6,0.7,1.6,1.6v10.8
	C248.3,437,247.6,437.6,246.7,437.6L246.7,437.6L246.7,437.6z"/>
<path class="st3" d="M276.9,405.6h-22.3c-0.9,0-1.6-0.7-1.6-1.6s0.7-1.6,1.6-1.6h22.3c0.9,0,1.6,0.7,1.6,1.6
	S277.9,405.6,276.9,405.6L276.9,405.6z"/>
<path class="st3" d="M276.9,438.5h-22.3c-0.9,0-1.6-0.7-1.6-1.6s0.7-1.6,1.6-1.6h22.3c0.9,0,1.6,0.7,1.6,1.6
	C278.5,437.9,277.9,438.5,276.9,438.5L276.9,438.5z"/>
<path class="st3" d="M276.9,427.7h-22.3c-0.9,0-1.6-0.7-1.6-1.6c0-0.9,0.7-1.6,1.6-1.6h22.3c0.9,0,1.6,0.7,1.6,1.6
	C278.5,427,277.9,427.7,276.9,427.7L276.9,427.7z"/>
<path class="st3" d="M276.9,416.6h-22.3c-0.9,0-1.6-0.7-1.6-1.6c0-0.9,0.7-1.6,1.6-1.6h22.3c0.9,0,1.6,0.7,1.6,1.6
	S277.9,416.6,276.9,416.6L276.9,416.6z"/>
<g class="st0">
	<g>
		<rect x="33.7" y="531" class="st5" width="374.5" height="171.4"/>
	</g>
</g>
<g>
	<rect x="33.7" y="501.3" class="st6" width="374.5" height="44.6"/>
</g>
<g>
	<g>
		<g>
			<path class="st3" d="M214,520.6c-0.7,0-1-0.5-1.2-1l-0.3-3.9l-3.9-0.3c-0.7,0-1-0.5-1-1.2s0.5-1.2,1.2-1l5,0.3c0.5,0,1,0.5,1,1
				l0.3,5C215.2,520.1,214.7,520.6,214,520.6L214,520.6L214,520.6z"/>
		</g>
		<g>
			<path class="st3" d="M220.7,536.8c-3.4,0-6.7-1.3-9-3.8c-2.5-2.5-3.8-5.6-3.8-9.1c0-3.5,1.3-6.7,3.8-9.1c0.4-0.4,1.2-0.4,1.6,0
				c0.4,0.4,0.4,1.2,0,1.6c-2,2-3.1,4.7-3.1,7.4c0,2.9,1,5.5,3.1,7.4c2.6,2.6,6.3,3.7,9.8,2.9c0.7-0.1,1.2,0.3,1.3,0.9
				c0.1,0.7-0.3,1.2-0.9,1.3C222.7,536.7,221.7,536.8,220.7,536.8L220.7,536.8z"/>
		</g>
		<g>
			<path class="st3" d="M229.2,533.1c-0.3,0-0.5-0.1-0.8-0.4c-0.4-0.4-0.4-1.2,0-1.6c4.2-4.2,4.2-10.8,0-15
				c-2.6-2.6-6.3-3.7-9.8-2.9c-0.7,0.1-1.2-0.3-1.3-0.9c-0.1-0.7,0.3-1.2,0.9-1.3c4.3-0.9,8.7,0.4,11.9,3.4c5,5,5,13.2,0,18.2
				C229.7,533,229.4,533.1,229.2,533.1L229.2,533.1z"/>
		</g>
		<g>
			<path class="st3" d="M233,534.5C232.8,534.5,232.8,534.5,233,534.5l-5-0.3c-0.5,0-1-0.5-1-1l-0.3-5c0-0.7,0.4-1.2,1-1.2
				c0.7,0,1.2,0.4,1.2,1l0.3,3.9l3.9,0.3c0.7,0,1,0.5,1,1.2C234,534.1,233.5,534.5,233,534.5L233,534.5z"/>
		</g>
	</g>
</g>
<g>
	<rect x="68.2" y="568" class="st5" width="26.5" height="26.5"/>
	<g>
		<path class="st5" d="M102.8,604.1H60.2c-1.1,0-2-0.9-2-2v-41.9c0-1.1,0.9-2,2-2h42.5c1.1,0,2,0.9,2,2v41.9
			C104.7,603.3,103.9,604.1,102.8,604.1L102.8,604.1z M62.2,600.2h38.6v-37.9H62.2V600.2L62.2,600.2z"/>
	</g>
	<g>
		<path class="st3" d="M76.7,581.3L76.7,581.3c0-2.9,2.3-5.1,5.2-5.1c2.1,0,3.6,1,4.4,2.5l-2.7,1.6c-0.4-0.7-0.9-1.2-1.8-1.2
			c-1.1,0-1.8,1-1.8,2.1v0c0,1.3,0.8,2.2,1.8,2.2c0.9,0,1.4-0.5,1.8-1.2l2.7,1.5c-0.8,1.4-2.2,2.6-4.6,2.6
			C79,586.3,76.7,584.3,76.7,581.3z"/>
	</g>
</g>
<g>
	<rect x="123.5" y="568" class="st5" width="26.5" height="26.5"/>
	<g>
		<path class="st5" d="M158,604.1h-42.5c-1.1,0-2-0.9-2-2v-41.9c0-1.1,0.9-2,2-2H158c1.1,0,2,0.9,2,2v41.9
			C160,603.3,159.1,604.1,158,604.1L158,604.1z M117.5,600.2H156v-37.9h-38.6V600.2L117.5,600.2z"/>
	</g>
	<g>
		<path class="st3" d="M131.9,581.3L131.9,581.3c0-2.9,2.3-5.1,5.2-5.1c2.1,0,3.6,1,4.4,2.5l-2.7,1.6c-0.4-0.7-0.9-1.2-1.8-1.2
			c-1.1,0-1.8,1-1.8,2.1v0c0,1.3,0.8,2.2,1.8,2.2c0.9,0,1.4-0.5,1.8-1.2l2.7,1.5c-0.8,1.4-2.2,2.6-4.6,2.6
			C134.3,586.3,131.9,584.3,131.9,581.3z"/>
	</g>
</g>
<g>
	<rect x="178.7" y="568" class="st5" width="26.5" height="26.5"/>
	<g>
		<path class="st5" d="M213.3,604.1h-42.5c-1.1,0-2-0.9-2-2v-41.9c0-1.1,0.9-2,2-2h42.5c1.1,0,2,0.9,2,2v41.9
			C215.2,603.3,214.4,604.1,213.3,604.1L213.3,604.1z M172.7,600.2h38.6v-37.9h-38.6V600.2L172.7,600.2z"/>
	</g>
	<g>
		<path class="st3" d="M187.2,581.3L187.2,581.3c0-2.9,2.3-5.1,5.2-5.1c2.1,0,3.6,1,4.4,2.5l-2.7,1.6c-0.4-0.7-0.9-1.2-1.8-1.2
			c-1.1,0-1.8,1-1.8,2.1v0c0,1.3,0.8,2.2,1.8,2.2c0.9,0,1.4-0.5,1.8-1.2l2.7,1.5c-0.8,1.4-2.2,2.6-4.6,2.6
			C189.5,586.3,187.2,584.3,187.2,581.3z"/>
	</g>
</g>
<g>
	<rect x="234" y="568" class="st5" width="26.5" height="26.5"/>
	<g>
		<path class="st5" d="M268.5,604.1H226c-1.1,0-2-0.9-2-2v-41.9c0-1.1,0.9-2,2-2h42.5c1.1,0,2,0.9,2,2v41.9
			C270.5,603.3,269.6,604.1,268.5,604.1L268.5,604.1z M228,600.2h38.6v-37.9H228V600.2L228,600.2z"/>
	</g>
	<g>
		<path class="st3" d="M242.4,581.3L242.4,581.3c0-2.9,2.3-5.1,5.2-5.1c2.1,0,3.6,1,4.4,2.5l-2.7,1.6c-0.4-0.7-0.9-1.2-1.8-1.2
			c-1.1,0-1.8,1-1.8,2.1v0c0,1.3,0.8,2.2,1.8,2.2c0.9,0,1.4-0.5,1.8-1.2l2.7,1.5c-0.8,1.4-2.2,2.6-4.6,2.6
			C244.8,586.3,242.4,584.3,242.4,581.3z"/>
	</g>
</g>
<g>
	<rect x="289.2" y="568" class="st5" width="26.5" height="26.5"/>
	<g>
		<path class="st5" d="M323.8,604.1h-42.5c-1.1,0-2-0.9-2-2v-41.9c0-1.1,0.9-2,2-2h42.5c1.1,0,2,0.9,2,2v41.9
			C325.7,603.3,324.9,604.1,323.8,604.1L323.8,604.1z M283.2,600.2h38.6v-37.9h-38.6V600.2L283.2,600.2z"/>
	</g>
	<g>
		<path class="st3" d="M297.7,581.3L297.7,581.3c0-2.9,2.3-5.1,5.2-5.1c2.1,0,3.6,1,4.4,2.5l-2.7,1.6c-0.4-0.7-0.9-1.2-1.8-1.2
			c-1.1,0-1.8,1-1.8,2.1v0c0,1.3,0.8,2.2,1.8,2.2c0.9,0,1.4-0.5,1.8-1.2l2.7,1.5c-0.8,1.4-2.2,2.6-4.6,2.6
			C300,586.3,297.7,584.3,297.7,581.3z"/>
	</g>
</g>
<g>
	<rect x="344.5" y="568" class="st5" width="26.5" height="26.5"/>
	<g>
		<path class="st5" d="M379,604.1h-42.5c-1.1,0-2-0.9-2-2v-41.9c0-1.1,0.9-2,2-2H379c1.1,0,2,0.9,2,2v41.9
			C381,603.3,380.1,604.1,379,604.1L379,604.1z M338.5,600.2H377v-37.9h-38.6V600.2L338.5,600.2z"/>
	</g>
	<g>
		<path class="st3" d="M352.9,581.3L352.9,581.3c0-2.9,2.3-5.1,5.2-5.1c2.1,0,3.6,1,4.4,2.5l-2.7,1.6c-0.4-0.7-0.9-1.2-1.8-1.2
			c-1.1,0-1.8,1-1.8,2.1v0c0,1.3,0.8,2.2,1.8,2.2c0.9,0,1.4-0.5,1.8-1.2l2.7,1.5c-0.8,1.4-2.2,2.6-4.6,2.6
			C355.3,586.3,352.9,584.3,352.9,581.3z"/>
	</g>
</g>
<g>
	<rect x="68.2" y="620.9" class="st5" width="26.5" height="26.5"/>
	<g>
		<path class="st5" d="M102.8,657H60.2c-1.1,0-2-0.9-2-2v-41.9c0-1.1,0.9-2,2-2h42.5c1.1,0,2,0.9,2,2v41.9
			C104.7,656.2,103.9,657,102.8,657L102.8,657z M62.2,653.1h38.6v-37.9H62.2V653.1L62.2,653.1z"/>
	</g>
	<g>
		<path class="st3" d="M76.7,634.2L76.7,634.2c0-2.9,2.3-5.1,5.2-5.1c2.1,0,3.6,1,4.4,2.5l-2.7,1.6c-0.4-0.7-0.9-1.2-1.8-1.2
			c-1.1,0-1.8,1-1.8,2.1v0c0,1.3,0.8,2.2,1.8,2.2c0.9,0,1.4-0.5,1.8-1.2l2.7,1.5c-0.8,1.4-2.2,2.6-4.6,2.6
			C79,639.2,76.7,637.2,76.7,634.2z"/>
	</g>
</g>
<g>
	<rect x="123.5" y="620.9" class="st5" width="26.5" height="26.5"/>
	<g>
		<path class="st5" d="M158,657h-42.5c-1.1,0-2-0.9-2-2v-41.9c0-1.1,0.9-2,2-2H158c1.1,0,2,0.9,2,2v41.9
			C160,656.2,159.1,657,158,657L158,657z M117.5,653.1H156v-37.9h-38.6V653.1L117.5,653.1z"/>
	</g>
	<g>
		<path class="st3" d="M131.9,634.2L131.9,634.2c0-2.9,2.3-5.1,5.2-5.1c2.1,0,3.6,1,4.4,2.5l-2.7,1.6c-0.4-0.7-0.9-1.2-1.8-1.2
			c-1.1,0-1.8,1-1.8,2.1v0c0,1.3,0.8,2.2,1.8,2.2c0.9,0,1.4-0.5,1.8-1.2l2.7,1.5c-0.8,1.4-2.2,2.6-4.6,2.6
			C134.3,639.2,131.9,637.2,131.9,634.2z"/>
	</g>
</g>
<g>
	<rect x="178.7" y="620.9" class="st5" width="26.5" height="26.5"/>
	<g>
		<path class="st5" d="M213.3,657h-42.5c-1.1,0-2-0.9-2-2v-41.9c0-1.1,0.9-2,2-2h42.5c1.1,0,2,0.9,2,2v41.9
			C215.2,656.2,214.4,657,213.3,657L213.3,657z M172.7,653.1h38.6v-37.9h-38.6V653.1L172.7,653.1z"/>
	</g>
	<g>
		<path class="st3" d="M187.2,634.2L187.2,634.2c0-2.9,2.3-5.1,5.2-5.1c2.1,0,3.6,1,4.4,2.5l-2.7,1.6c-0.4-0.7-0.9-1.2-1.8-1.2
			c-1.1,0-1.8,1-1.8,2.1v0c0,1.3,0.8,2.2,1.8,2.2c0.9,0,1.4-0.5,1.8-1.2l2.7,1.5c-0.8,1.4-2.2,2.6-4.6,2.6
			C189.5,639.2,187.2,637.2,187.2,634.2z"/>
	</g>
</g>
<g>
	<rect x="234" y="620.9" class="st5" width="26.5" height="26.5"/>
	<g>
		<path class="st5" d="M268.5,657H226c-1.1,0-2-0.9-2-2v-41.9c0-1.1,0.9-2,2-2h42.5c1.1,0,2,0.9,2,2v41.9
			C270.5,656.2,269.6,657,268.5,657L268.5,657z M228,653.1h38.6v-37.9H228V653.1L228,653.1z"/>
	</g>
	<g>
		<path class="st3" d="M242.4,634.2L242.4,634.2c0-2.9,2.3-5.1,5.2-5.1c2.1,0,3.6,1,4.4,2.5l-2.7,1.6c-0.4-0.7-0.9-1.2-1.8-1.2
			c-1.1,0-1.8,1-1.8,2.1v0c0,1.3,0.8,2.2,1.8,2.2c0.9,0,1.4-0.5,1.8-1.2l2.7,1.5c-0.8,1.4-2.2,2.6-4.6,2.6
			C244.8,639.2,242.4,637.2,242.4,634.2z"/>
	</g>
</g>
<g>
	<rect x="289.2" y="620.9" class="st5" width="26.5" height="26.5"/>
	<g>
		<path class="st5" d="M323.8,657h-42.5c-1.1,0-2-0.9-2-2v-41.9c0-1.1,0.9-2,2-2h42.5c1.1,0,2,0.9,2,2v41.9
			C325.7,656.2,324.9,657,323.8,657L323.8,657z M283.2,653.1h38.6v-37.9h-38.6V653.1L283.2,653.1z"/>
	</g>
	<g>
		<path class="st3" d="M297.7,634.2L297.7,634.2c0-2.9,2.3-5.1,5.2-5.1c2.1,0,3.6,1,4.4,2.5l-2.7,1.6c-0.4-0.7-0.9-1.2-1.8-1.2
			c-1.1,0-1.8,1-1.8,2.1v0c0,1.3,0.8,2.2,1.8,2.2c0.9,0,1.4-0.5,1.8-1.2l2.7,1.5c-0.8,1.4-2.2,2.6-4.6,2.6
			C300,639.2,297.7,637.2,297.7,634.2z"/>
	</g>
</g>
<g>
	<rect x="344.5" y="620.9" class="st5" width="26.5" height="26.5"/>
	<g>
		<path class="st5" d="M379,657h-42.5c-1.1,0-2-0.9-2-2v-41.9c0-1.1,0.9-2,2-2H379c1.1,0,2,0.9,2,2v41.9
			C381,656.2,380.1,657,379,657L379,657z M338.5,653.1H377v-37.9h-38.6V653.1L338.5,653.1z"/>
	</g>
	<g>
		<path class="st3" d="M352.9,634.2L352.9,634.2c0-2.9,2.3-5.1,5.2-5.1c2.1,0,3.6,1,4.4,2.5l-2.7,1.6c-0.4-0.7-0.9-1.2-1.8-1.2
			c-1.1,0-1.8,1-1.8,2.1v0c0,1.3,0.8,2.2,1.8,2.2c0.9,0,1.4-0.5,1.8-1.2l2.7,1.5c-0.8,1.4-2.2,2.6-4.6,2.6
			C355.3,639.2,352.9,637.2,352.9,634.2z"/>
	</g>
</g>
<g>
	<rect x="185.1" y="25" class="st2" width="72" height="72"/>
</g>
<path class="st3" d="M237.9,35.6h-33.6c-2.7,0-5.2,2.3-5.2,5.2v32.5c0,2.7,2.3,5.2,5.2,5.2h33.6c2.7,0,5.2-2.3,5.2-5.2V40.8
	C242.9,37.9,240.6,35.6,237.9,35.6z M218.5,62.7c0,3.8-3.2,7-7,7c-3.6,0-6.5-2.9-6.8-6.5l0,0V49.6l0,0c0-3.8,3.2-7,7-7
	c3.8,0,6.8,3.2,6.8,7l0,0v12l0,0C218.3,62.3,218.5,62.5,218.5,62.7z M236.4,64.1v10.2h-9.7l0,0c-0.5,0-1.1,0-1.6-0.2
	c-0.7-0.2-1.1-0.5-1.6-0.7c-1.8-1.1-3.2-3.2-3.2-5.6c0-0.2,0-0.2,0-0.5l0,0V57.1h9.7l0,0c3.6,0,6.3,2.9,6.3,6.5
	C236.4,63.8,236.4,63.8,236.4,64.1L236.4,64.1z M237.5,49.2L237.5,49.2c-0.2,3.6-2.9,6.5-6.5,6.5c-0.2,0-0.2,0-0.5,0l0,0h-10.2V46
	v-0.2l0,0c0-3.6,2.9-6.5,6.5-6.5c0.2,0,0.2,0,0.5,0l0,0h10.2V49.2z"/>
<path class="st3" d="M215.4,49.8v0.2c-0.2,1.8-1.8,3.4-3.8,3.4s-3.6-1.6-3.8-3.4v-0.2c0-2,1.8-3.6,3.8-3.6
	C213.6,46.2,215.4,47.8,215.4,49.8z"/>
<g>
	<rect x="268.6" y="106.7" class="st2" width="72" height="72"/>
</g>
<path class="st3" d="M313.5,136.5h-13.3c-0.5,0-0.9-0.5-0.9-0.9v-7.4c0-0.5,0.5-0.9,0.9-0.9h13.3c0.5,0,0.9,0.5,0.9,0.9v7.4
	C314.4,136.3,314,136.5,313.5,136.5L313.5,136.5z M300.9,134.9h11.5v-5.9h-11.5V134.9L300.9,134.9z"/>
<g>
	<path class="st3" d="M320.8,160.4h-30c-0.9,0-1.8-0.7-1.8-1.8v-37.5c0-0.9,0.7-1.8,1.8-1.8h30c0.9,0,1.8,0.7,1.8,1.8v37.7
		C322.6,159.8,321.7,160.4,320.8,160.4L320.8,160.4z M292.5,157H319V123h-26.4V157L292.5,157z"/>
</g>
<g>
	<path class="st3" d="M293.9,130h-6.1c-0.9,0-1.8-0.7-1.8-1.8c0-0.9,0.7-1.8,1.8-1.8h6.1c0.9,0,1.8,0.7,1.8,1.8
		C295.7,129.1,294.8,130,293.9,130L293.9,130z"/>
</g>
<g>
	<path class="st3" d="M293.9,137.6h-6.1c-0.9,0-1.8-0.7-1.8-1.8c0-0.9,0.7-1.8,1.8-1.8h6.1c0.9,0,1.8,0.7,1.8,1.8
		C295.7,137,294.8,137.6,293.9,137.6L293.9,137.6z"/>
</g>
<g>
	<path class="st3" d="M293.9,145.5h-6.1c-0.9,0-1.8-0.7-1.8-1.8c0-0.9,0.7-1.8,1.8-1.8h6.1c0.9,0,1.8,0.7,1.8,1.8
		C295.7,144.6,294.8,145.5,293.9,145.5L293.9,145.5z"/>
</g>
<g>
	<path class="st3" d="M293.9,153.2h-6.1c-0.9,0-1.8-0.7-1.8-1.8c0-0.9,0.7-1.8,1.8-1.8h6.1c0.9,0,1.8,0.7,1.8,1.8
		C295.7,152.5,294.8,153.2,293.9,153.2L293.9,153.2z"/>
</g>
<g>
	<rect x="101.6" y="106.7" class="st2" width="72" height="72"/>
</g>
<g>
	<path class="st3" d="M144.8,138.5c0,4.3-3.5,7.7-7.8,7.7c-4.3,0-7.7-3.5-7.7-7.8c0-4.3,3.5-7.7,7.8-7.7
		C141.4,130.7,144.8,134.2,144.8,138.5"/>
	<path class="st3" d="M159.8,138.5c-0.1,12.6-10.3,22.7-22.9,22.7c-5.2,0-10-1.8-13.8-4.8l6.6-6.5c2.1,1.4,4.6,2.1,7.3,2.2
		c7.5,0,13.7-6.1,13.7-13.6c0-7.5-6.1-13.7-13.6-13.7c-7.5,0-13.7,6.1-13.7,13.6c0,2.7,0.8,5.2,2.1,7.3l-6.6,6.5
		c-2.9-3.9-4.7-8.7-4.6-13.9c0.1-12.6,10.3-22.7,22.9-22.7C149.8,115.7,159.9,126,159.8,138.5"/>
</g>
<g>
	<rect x="101.2" y="24.3" class="st2" width="72.4" height="72.4"/>
</g>
<g>
	<rect x="268.6" y="25" class="st2" width="71.8" height="71.8"/>
</g>
<path class="st3" d="M304.7,80.1c-12.6,0-23-10.4-23-23s10.4-23,23-23c12.6,0,23,10.4,23,23S317.4,80.1,304.7,80.1L304.7,80.1z
	 M304.7,38.1c-10.4,0-19,8.6-19,19s8.6,19,19,19s19-8.6,19-19C323.9,46.7,315.3,38.1,304.7,38.1L304.7,38.1z"/>
<polygon class="st3" points="297.5,49.2 297.5,49.2 292.5,54.4 305,66.8 310.2,61.6 317.4,54.4 312.4,49.2 312.4,49.2 "/>
<g>
	<rect x="185.1" y="106.7" class="st2" width="72" height="72"/>
</g>
<g>
	<path class="st3" d="M230.9,151.4v-35.9c0-0.5-0.5-0.7-0.7-0.7h-26.9c-0.5,0-0.7,0.5-0.7,0.7v35.7c0,0.5,0.5,0.7,0.7,0.7h26.9
		C230.7,152.1,230.9,151.6,230.9,151.4z M220.1,118.9h3.8c0.5,0,0.7,0.5,0.7,0.7c0,0.5-0.5,0.7-0.7,0.7h-3.8c-0.5,0-0.7-0.2-0.7-0.7
		C219.4,119.1,219.9,118.9,220.1,118.9z M223.5,123c0,0.5-0.2,0.7-0.7,0.7h-13.5c-0.5,0-0.7-0.2-0.7-0.7s0.2-0.7,0.7-0.7h13.5
		C223.3,122.1,223.5,122.5,223.5,123z M213.8,118.9h3.8c0.5,0,0.7,0.5,0.7,0.7c0,0.5-0.2,0.7-0.7,0.7h-3.8c-0.5,0-0.7-0.2-0.7-0.7
		C212.9,119.1,213.3,118.9,213.8,118.9z M207.2,118.9h3.8c0.5,0,0.7,0.5,0.7,0.7c0,0.5-0.5,0.7-0.7,0.7h-3.8c-0.5,0-0.7-0.2-0.7-0.7
		C206.6,119.1,206.8,118.9,207.2,118.9z M220.1,130h-10.8c-0.5,0-0.7-0.2-0.7-0.7c0-0.5,0.2-0.7,0.7-0.7h10.8c0.5,0,0.7,0.5,0.7,0.7
		C221,129.5,220.6,130,220.1,130z M221,132.2c0,0.5-0.5,0.7-0.7,0.7h-10.8c-0.5,0-0.7-0.5-0.7-0.7c0-0.5,0.2-0.7,0.7-0.7h10.8
		C220.6,131.5,221,132,221,132.2z M211.1,139.7h-3.8c-0.5,0-0.7-0.2-0.7-0.7c0-0.5,0.5-0.7,0.7-0.7h3.8c0.5,0,0.7,0.5,0.7,0.7
		S211.3,139.7,211.1,139.7z M226,136.3h-16.7c-0.5,0-0.7-0.5-0.7-0.7c0-0.5,0.2-0.7,0.7-0.7H226c0.5,0,0.7,0.2,0.7,0.7
		C226.9,136.1,226.4,136.3,226,136.3z M226,126.8h-16.7c-0.5,0-0.7-0.5-0.7-0.7c0-0.5,0.2-0.7,0.7-0.7H226c0.5,0,0.7,0.2,0.7,0.7
		C226.9,126.6,226.4,126.8,226,126.8z"/>
	<path class="st3" d="M235.2,157h-26.9c-0.5,0-0.7-0.5-0.7-0.7v-1.8h25.1c0.5,0,0.7-0.5,0.7-0.7v-34.1h1.8c0.5,0,0.7,0.5,0.7,0.7
		v35.7C236.1,156.8,235.7,157,235.2,157z"/>
	<path class="st3" d="M241.1,125.7v35.7c0,0.5-0.5,0.7-0.7,0.7h-26.9c-0.5,0-0.7-0.5-0.7-0.7v-1.8h25.1c0.5,0,0.7-0.5,0.7-0.7V125
		h1.8C240.9,125,241.1,125.2,241.1,125.7z"/>
</g>
<g>
	<path class="st2" d="M186.2,199.6c2.8,0,4.9,1.4,5.9,3.4l-2.8,1.9c-0.6-1.7-2.1-2.1-3.2-2.1c-2.6,0-3.8,2.4-3.8,4.7
		c0,2.5,1.5,4.7,3.8,4.7c1.2,0,2.6-0.6,3.2-2.2l3,1.7c-0.9,2.3-3.8,3.6-6.2,3.6c-4.3,0-7.4-4.1-7.4-8.1
		C178.7,203.6,181.5,199.6,186.2,199.6z"/>
	<path class="st2" d="M205,215.3h-3.5v-6.5c0-1.5-0.7-2.2-1.7-2.2c-0.8,0-2,0.8-2.4,2v6.6h-3.5v-16.1h3.5v6.4c0.8-1.4,2.3-2.2,4-2.2
		c3.1,0,3.6,2.4,3.6,4.4V215.3z"/>
	<path class="st2" d="M206.7,209.6c0-3.3,2.3-6.1,6.2-6.1c3.9,0,6.2,2.8,6.2,6c0,0.4,0,0.8-0.1,1.1h-8.5c0.1,1.5,1.3,2.4,2.6,2.4
		c1,0,2.1-0.5,2.4-1.4l3,0.8c-0.9,1.8-2.9,3.1-5.5,3.1C209,215.5,206.7,212.8,206.7,209.6z M215.3,208.4c-0.1-1.5-1.1-2.4-2.5-2.4
		c-1.4,0-2.4,0.9-2.5,2.4H215.3z"/>
	<path class="st2" d="M221.4,215.3v-7.5h-1.5v-2.7h1.5v-1.3c0-2.9,1.6-4.7,4-4.7c0.9,0,2,0.2,3,0.7l-0.6,2.6
		c-0.5-0.2-1.1-0.4-1.6-0.4c-0.9,0-1.3,0.6-1.3,1.6v1.5h2.7v2.7h-2.7v7.5H221.4z"/>
	<path class="st2" d="M234.3,215.3v-15.6h5.8c5.1,0,7.8,3.5,7.8,7.8c0,4.7-3.1,7.8-7.8,7.8H234.3z M240.2,202.9h-2.2v9.3h2.2
		c2.6,0,4.1-2,4.1-4.7C244.3,204.7,242.8,202.9,240.2,202.9z"/>
	<path class="st2" d="M250.1,215.3v-15.6h3.6v7l6-7h3.7l-5.9,7l6.2,8.6h-3.8l-4.6-6.6l-1.8,1.9v4.7H250.1z"/>
</g>
<g>
	<path class="st1" d="M166.7,473.6c2.8,0,4.9,1.4,5.9,3.4l-2.8,1.9c-0.6-1.7-2.1-2.1-3.2-2.1c-2.6,0-3.8,2.4-3.8,4.7
		c0,2.5,1.5,4.7,3.8,4.7c1.2,0,2.6-0.6,3.2-2.2l3,1.7c-0.9,2.3-3.8,3.6-6.2,3.6c-4.3,0-7.4-4.1-7.4-8.1
		C159.2,477.6,162,473.6,166.7,473.6z"/>
	<path class="st1" d="M185.5,489.3H182v-6.5c0-1.5-0.7-2.2-1.7-2.2c-0.8,0-2,0.8-2.4,2v6.6h-3.5v-16.1h3.5v6.4
		c0.8-1.4,2.3-2.2,4-2.2c3.1,0,3.6,2.4,3.6,4.4V489.3z"/>
	<path class="st1" d="M187.2,483.6c0-3.3,2.3-6.1,6.2-6.1c3.9,0,6.2,2.8,6.2,6c0,0.4,0,0.8-0.1,1.1h-8.5c0.1,1.5,1.3,2.4,2.6,2.4
		c1,0,2.1-0.5,2.4-1.4l3,0.8c-0.9,1.8-2.9,3.1-5.5,3.1C189.5,489.5,187.2,486.8,187.2,483.6z M195.8,482.4c-0.1-1.5-1.1-2.4-2.5-2.4
		c-1.4,0-2.4,0.9-2.5,2.4H195.8z"/>
	<path class="st1" d="M201.9,489.3v-7.5h-1.5v-2.7h1.5v-1.3c0-2.9,1.6-4.7,4-4.7c0.9,0,2,0.2,3,0.7l-0.6,2.6
		c-0.5-0.2-1.1-0.4-1.6-0.4c-0.9,0-1.3,0.6-1.3,1.6v1.5h2.7v2.7h-2.7v7.5H201.9z"/>
	<path class="st1" d="M224.2,478.3c-0.2-0.2-2.3-1.5-4.2-1.5c-1.2,0-1.9,0.4-1.9,1.3c0,1.1,1.2,1.3,3.3,1.9c3,0.8,4.9,1.8,4.9,4.7
		c0,3.5-2.9,4.8-5.9,4.8c-2.3,0-4.8-0.7-6.7-1.9l1.6-3.1c0.3,0.3,2.8,1.8,5.1,1.8c1.3,0,1.9-0.4,1.9-1.2c0-1.2-1.6-1.5-3.8-2.1
		c-2.9-0.9-4.2-2-4.2-4.3c0-3.3,2.6-5.1,5.8-5.1c2.2,0,4.3,0.9,5.6,1.7L224.2,478.3z"/>
	<path class="st1" d="M227.4,483.6c0-3.3,2.3-6.1,6.2-6.1c3.9,0,6.2,2.8,6.2,6c0,0.4,0,0.8-0.1,1.1h-8.5c0.1,1.5,1.3,2.4,2.6,2.4
		c1,0,2.1-0.5,2.4-1.4l3,0.8c-0.9,1.8-2.9,3.1-5.5,3.1C229.7,489.5,227.4,486.8,227.4,483.6z M236.1,482.4c-0.1-1.5-1.1-2.4-2.5-2.4
		c-1.4,0-2.4,0.9-2.5,2.4H236.1z"/>
	<path class="st1" d="M248.7,480.8c-1.7,0-3.2,0.5-3.8,1.6v6.9h-3.5v-11.6h3.2v2.3c0.8-1.5,2.1-2.5,3.5-2.5c0.3,0,0.4,0,0.6,0V480.8
		z"/>
	<path class="st1" d="M253.1,489.3l-4.1-11.6h3.6l2.5,8.7l2.6-8.7h3.3l-4.1,11.6H253.1z"/>
	<path class="st1" d="M261.6,483.6c0-3.3,2.3-6.1,6.2-6.1c3.9,0,6.2,2.8,6.2,6c0,0.4,0,0.8-0.1,1.1h-8.5c0.1,1.5,1.3,2.4,2.6,2.4
		c1,0,2.1-0.5,2.4-1.4l3,0.8c-0.9,1.8-2.9,3.1-5.5,3.1C263.9,489.5,261.6,486.8,261.6,483.6z M270.3,482.4c-0.1-1.5-1.1-2.4-2.5-2.4
		c-1.4,0-2.4,0.9-2.5,2.4H270.3z"/>
	<path class="st1" d="M282.9,480.8c-1.7,0-3.2,0.5-3.8,1.6v6.9h-3.5v-11.6h3.2v2.3c0.8-1.5,2.1-2.5,3.5-2.5c0.3,0,0.4,0,0.6,0V480.8
		z"/>
</g>
<g>
	<path class="st5" d="M164.2,669.6c2.8,0,4.9,1.4,5.9,3.4l-2.8,1.9c-0.6-1.7-2.1-2.1-3.2-2.1c-2.6,0-3.8,2.4-3.8,4.7
		c0,2.5,1.5,4.7,3.8,4.7c1.2,0,2.6-0.6,3.2-2.2l3,1.7c-0.9,2.3-3.8,3.6-6.2,3.6c-4.3,0-7.4-4.1-7.4-8.1
		C156.7,673.6,159.5,669.6,164.2,669.6z"/>
	<path class="st5" d="M183,685.3h-3.5v-6.5c0-1.5-0.7-2.2-1.7-2.2c-0.8,0-2,0.8-2.4,2v6.6h-3.5v-16.1h3.5v6.4c0.8-1.4,2.3-2.2,4-2.2
		c3.1,0,3.6,2.4,3.6,4.4V685.3z"/>
	<path class="st5" d="M184.7,679.6c0-3.3,2.3-6.1,6.2-6.1c3.9,0,6.2,2.8,6.2,6c0,0.4,0,0.8-0.1,1.1h-8.5c0.1,1.5,1.3,2.4,2.6,2.4
		c1,0,2.1-0.5,2.4-1.4l3,0.8c-0.9,1.8-2.9,3.1-5.5,3.1C187,685.5,184.7,682.8,184.7,679.6z M193.3,678.4c-0.1-1.5-1.1-2.4-2.5-2.4
		c-1.4,0-2.4,0.9-2.5,2.4H193.3z"/>
	<path class="st5" d="M199.4,685.3v-7.5h-1.5v-2.7h1.5v-1.3c0-2.9,1.6-4.7,4-4.7c0.9,0,2,0.2,3,0.7l-0.6,2.6
		c-0.5-0.2-1.1-0.4-1.6-0.4c-0.9,0-1.3,0.6-1.3,1.6v1.5h2.7v2.7h-2.7v7.5H199.4z"/>
	<path class="st5" d="M219,669.6c2.8,0,4.9,1.4,5.9,3.4l-2.8,1.9c-0.6-1.7-2.1-2.1-3.2-2.1c-2.6,0-3.8,2.4-3.8,4.7
		c0,2.5,1.5,4.7,3.8,4.7c1.2,0,2.6-0.6,3.2-2.2l3,1.7c-0.9,2.3-3.8,3.6-6.2,3.6c-4.3,0-7.4-4.1-7.4-8.1
		C211.4,673.6,214.2,669.6,219,669.6z"/>
	<path class="st5" d="M226.6,669.2h3.5V681c0,0.9,0.4,1.3,1.1,1.3c0.3,0,0.8-0.1,1.1-0.3l0.5,2.8c-0.9,0.4-2.1,0.7-3.1,0.7
		c-2,0-3.2-1.1-3.2-3.1V669.2z"/>
	<path class="st5" d="M234.1,672.4v-3.2h3.5v3.2H234.1z M234.1,685.3v-11.6h3.5v11.6H234.1z"/>
	<path class="st5" d="M239.3,679.6c0-3.3,2.3-6.1,6.2-6.1c3.9,0,6.2,2.8,6.2,6c0,0.4,0,0.8-0.1,1.1H243c0.1,1.5,1.3,2.4,2.6,2.4
		c1,0,2.1-0.5,2.4-1.4l3,0.8c-0.9,1.8-2.9,3.1-5.5,3.1C241.6,685.5,239.3,682.8,239.3,679.6z M248,678.4c-0.1-1.5-1.1-2.4-2.5-2.4
		c-1.4,0-2.4,0.9-2.5,2.4H248z"/>
	<path class="st5" d="M264.4,685.3h-3.5v-6.5c0-1.5-0.6-2.2-1.6-2.2c-1,0-2.1,0.9-2.6,2v6.6h-3.5v-11.6h3.2v1.9
		c0.9-1.4,2.5-2.2,4.5-2.2c3,0,3.5,2.4,3.5,4.4V685.3z"/>
	<path class="st5" d="M274.2,684.7c-1,0.4-2.3,0.8-3.5,0.8c-1.7,0-3.2-0.8-3.2-3.1v-6h-1.5v-2.7h1.5v-3.7h3.5v3.7h2.4v2.7h-2.4v4.8
		c0,0.8,0.4,1.1,1,1.1c0.5,0,1.1-0.2,1.5-0.4L274.2,684.7z"/>
	<path class="st5" d="M274.6,684.1l1.4-2.4c1.5,0.9,3,1.4,4.3,1.4c1,0,1.6-0.3,1.6-0.9c0-0.6-0.6-0.9-2.4-1.3
		c-3.1-0.8-4.2-1.6-4.2-3.3c0-2.4,2-3.9,4.8-3.9c1.6,0,3.3,0.5,5,1.4l-1.4,2.2c-1.4-0.8-2.5-1.1-3.6-1.1c-0.9,0-1.5,0.3-1.5,1
		c0,0.6,0.5,0.9,2.2,1.3c3.4,0.9,4.6,1.7,4.6,3.6c0,2.3-1.9,3.7-4.9,3.7C278.4,685.5,276,684.9,274.6,684.1z"/>
</g>
<g>
	<g>
		<line class="st7" x1="304.9" y1="178.7" x2="304.9" y2="185.7"/>
		<line class="st8" x1="304.9" y1="192" x2="304.9" y2="252"/>
		<polyline class="st7" points="304.9,255.2 304.9,262.2 297.9,262.2 		"/>
		<line class="st9" x1="292.2" y1="262.2" x2="104.7" y2="262.2"/>
		<polyline class="st7" points="101.8,262.2 94.8,262.2 94.8,269.2 		"/>
		<line class="st10" x1="94.8" y1="275.7" x2="94.8" y2="294.2"/>
		<line class="st7" x1="94.8" y1="297.5" x2="94.8" y2="304.5"/>
	</g>
</g>
<g>
	<path class="st2" d="M3.2,176.1v-3.3l5-1.6l-5-1.6v-3.3l7.3,2.6l4.2-1.6l-11.5-3.9v-3.9l15.6,6.2v3l-6.1,2.5l6.1,2.5v3l-15.6,6.2
		v-3.9l11.5-4l-4.2-1.5L3.2,176.1z"/>
	<path class="st2" d="M13,160.5c-3.2,0-6-2.2-6-6.2c0-3.9,2.8-6.2,6-6.2c3.2,0,6,2.2,6,6.2S16.2,160.5,13,160.5z M16.1,154.3
		c0-1.5-1.2-2.6-3-2.6c-1.8,0-3,1.1-3,2.6s1.2,2.6,3,2.6C14.8,156.9,16.1,155.8,16.1,154.3z"/>
	<path class="st2" d="M10.3,139.1c0,1.7,0.5,3.2,1.6,3.8h6.9v3.5H7.3v-3.2h2.3c-1.5-0.8-2.5-2.1-2.5-3.5c0-0.3,0-0.4,0-0.5H10.3z"/>
	<path class="st2" d="M18.8,129.8l-4.6,3l1.3,1.2h3.4v3.5H2.7v-3.5h9.3l-4.8-3.9v-3.7l5,4.2l6.6-4.5V129.8z"/>
	<path class="st2" d="M17.6,126.1l-2.4-1.4c0.9-1.5,1.4-3,1.4-4.3c0-1-0.3-1.6-0.9-1.6c-0.6,0-0.9,0.6-1.3,2.4
		c-0.8,3.1-1.6,4.2-3.3,4.2c-2.4,0-3.9-2-3.9-4.8c0-1.6,0.5-3.3,1.4-5l2.2,1.4c-0.8,1.4-1.1,2.5-1.1,3.6c0,0.9,0.3,1.5,1,1.5
		c0.6,0,0.9-0.5,1.3-2.2c0.9-3.4,1.7-4.6,3.6-4.6c2.3,0,3.7,1.9,3.7,4.9C19,122.3,18.4,124.7,17.6,126.1z"/>
	<path class="st2" d="M18.2,106.4c0.4,1,0.8,2.3,0.8,3.5c0,1.7-0.8,3.2-3.1,3.2h-6v1.5H7.3v-1.5H3.6v-3.5h3.7v-2.4h2.7v2.4h4.8
		c0.8,0,1.1-0.4,1.1-1c0-0.5-0.2-1.1-0.4-1.5L18.2,106.4z"/>
	<path class="st2" d="M15.4,105.8c-2.3,0-3.9-2-3.9-5c0-1,0.2-1.9,0.5-2.6h-0.5c-1.3,0-2,0.7-2,2.3c0,1.3,0.4,2.4,1.3,3.6l-2.2,1
		c-1-1.5-1.5-3.1-1.5-5c0-3.5,1.7-5.5,4.8-5.5h3c0.7,0,0.9-0.2,1-0.9h3c0.1,0.7,0.2,1.3,0.2,1.7c0,1.3-0.5,1.9-1.5,2.1L17,97.7
		c1.3,1,2,2.5,2,4.1C19,104.1,17.4,105.8,15.4,105.8z M15.8,98.8c-0.2-0.3-0.6-0.5-0.8-0.5h-1.1c-0.2,0.6-0.4,1.4-0.4,2
		c0,1.3,0.7,2.2,1.6,2.2c0.8,0,1.5-0.7,1.5-1.7C16.5,100,16.2,99.2,15.8,98.8z"/>
	<path class="st2" d="M18.2,84.8c0.4,1,0.8,2.3,0.8,3.5c0,1.7-0.8,3.2-3.1,3.2h-6v1.5H7.3v-1.5H3.6v-3.5h3.7v-2.4h2.7v2.4h4.8
		c0.8,0,1.1-0.4,1.1-1c0-0.5-0.2-1.1-0.4-1.5L18.2,84.8z"/>
	<path class="st2" d="M5.9,83.5H2.7V80h3.2V83.5z M18.8,83.5H7.3V80h11.6V83.5z"/>
	<path class="st2" d="M13,78.3c-3.2,0-6-2.2-6-6.2c0-3.9,2.8-6.2,6-6.2c3.2,0,6,2.2,6,6.2S16.2,78.3,13,78.3z M16.1,72.1
		c0-1.5-1.2-2.6-3-2.6c-1.8,0-3,1.1-3,2.6s1.2,2.6,3,2.6C14.8,74.6,16.1,73.5,16.1,72.1z"/>
	<path class="st2" d="M18.8,53v3.5h-6.5c-1.5,0-2.2,0.6-2.2,1.6c0,1,0.9,2.1,2,2.6h6.6v3.5H7.3V61h1.9C7.8,60.2,7,58.5,7,56.5
		c0-3,2.4-3.5,4.4-3.5H18.8z"/>
</g>
<g>
	<path class="st5" d="M18.8,538H3.2v-6.7c0-3,2.7-5.1,5.3-5.1c2.7,0,5.3,2,5.3,5v3.2h5V538z M10.6,534.4v-2.9c0-0.8-0.7-1.6-2.2-1.6
		c-1.5,0-2.1,0.9-2.1,1.7v2.8H10.6z"/>
	<path class="st5" d="M10.3,517.3c0,1.7,0.5,3.2,1.6,3.8h6.9v3.5H7.3v-3.2h2.3c-1.5-0.8-2.5-2.1-2.5-3.5c0-0.3,0-0.4,0-0.5H10.3z"/>
	<path class="st5" d="M13,516.7c-3.2,0-6-2.2-6-6.2c0-3.9,2.8-6.2,6-6.2c3.2,0,6,2.2,6,6.2C19,514.4,16.2,516.7,13,516.7z
		 M16.1,510.5c0-1.5-1.2-2.6-3-2.6c-1.8,0-3,1.1-3,2.6c0,1.5,1.2,2.6,3,2.6C14.8,513.1,16.1,512,16.1,510.5z"/>
	<path class="st5" d="M13,503.3c-3.4,0-6-2.1-6-5.1c0-1.6,0.8-3,2.1-3.7H2.7V491h12.1c0.7,0,0.9-0.2,1-0.9h3
		c0.1,0.7,0.2,1.3,0.2,1.7c0,1.2-0.5,1.9-1.5,2.1l-0.6,0.1c1.4,0.8,2.1,2.3,2.1,3.9C19,501,16.5,503.3,13,503.3z M14.5,494.4H12
		c-1.2,0.4-2,1.5-2,2.6c0,1.5,1.4,2.6,3.1,2.6c1.7,0,3-1.1,3-2.8C16.1,495.9,15.4,494.9,14.5,494.4z"/>
	<path class="st5" d="M14.7,488.2H7.3v-3.5h6.6c1.4,0,2.2-0.6,2.2-1.6c0-0.9-0.5-1.8-1.7-2.5H7.3V477h7.6c0.7,0,0.9-0.2,1-0.9h3
		c0.1,0.7,0.2,1.3,0.2,1.7c0,1.2-0.5,1.9-1.5,2.1l-0.7,0.1c1.5,1.1,2.2,2.7,2.2,4.6C19,486.9,17.5,488.2,14.7,488.2z"/>
	<path class="st5" d="M7,468.6c0-2.6,1.3-4.5,3.1-5.4l1,3.4c-0.7,0.4-1.1,1.1-1.1,2c0,1.5,1.2,2.6,3,2.6c1.8,0,3-1.1,3-2.6
		c0-0.9-0.5-1.7-1.1-2l1.1-3.4c1.8,0.9,3.1,2.8,3.1,5.4c0,3.9-2.8,6.2-6,6.2S7,472.6,7,468.6z"/>
	<path class="st5" d="M18.2,454.2c0.4,1,0.8,2.3,0.8,3.5c0,1.7-0.8,3.2-3.1,3.2h-6v1.5H7.3v-1.5H3.6v-3.5h3.7V455h2.7v2.4h4.8
		c0.8,0,1.1-0.4,1.1-1c0-0.5-0.2-1.1-0.4-1.5L18.2,454.2z"/>
	<path class="st5" d="M5.9,452.8H2.7v-3.5h3.2V452.8z M18.8,452.8H7.3v-3.5h11.6V452.8z"/>
	<path class="st5" d="M13,447.6c-3.2,0-6-2.2-6-6.2c0-3.9,2.8-6.2,6-6.2c3.2,0,6,2.2,6,6.2C19,445.3,16.2,447.6,13,447.6z
		 M16.1,441.4c0-1.5-1.2-2.6-3-2.6c-1.8,0-3,1.1-3,2.6c0,1.5,1.2,2.6,3,2.6C14.8,444,16.1,442.9,16.1,441.4z"/>
	<path class="st5" d="M18.8,422.4v3.5h-6.5c-1.5,0-2.2,0.6-2.2,1.6c0,1,0.9,2.1,2,2.6h6.6v3.5H7.3v-3.2h1.9
		c-1.4-0.9-2.2-2.5-2.2-4.5c0-3,2.4-3.5,4.4-3.5H18.8z"/>
</g>
<g>
	<circle class="st3" cx="138.3" cy="53.8" r="0.8"/>
	<path class="st3" d="M162.8,55.8c0.4-1.6,1.7-7.2-2-6.9c-3.7,0.3-2.8,5.9-2.9,5.9c-1.2,0.2-2,0.7-3.1,1.3c-3.6-8.2-8.8-9.4-8.8-9.4
		s1.7-0.7,1.3-1.5c-0.4-0.8-4.6,0-4.6,0l-1.9-8.9c0,0-2.9-1.1-6.9,0.2c-3.9,1.4-4.9,3.8-4.9,3.8s3.9,7.8,4.2,8.2
		c-1.1,0.4-3.9,2.3-3.9,2.9c0,0.6,1.4,0.7,1.4,0.7c-0.6,0.6-1.9,3.2-1.9,3.2s-1.5-0.2-2.3-0.4c-0.7-2.8-2.5-5-3.4-5.1
		c-0.9-0.1-1.9,2-1.9,2s-1.4-0.5-2.7-0.1s-1.3,1.5-1.1,2c-0.8,0.4-2.2,1.7-2.2,1.7s-6.4,1-6.4,2.9s2.8,2,3.1,2.8
		c0.4,0.7,3.4,2.3,4.8,2.9c0.5,2.8,3.7,3.4,5.9,3.2c2.2-0.1,2.9-0.6,4-1.8c1.1,13.4,15.4,12.9,15.4,12.9c6.4-0.1,9-1.9,11.8-4.7
		c3.1-3.1,3-8.6,3-8.6s1.6,1,2.9,0.7c1.3-0.3,2.8-1.3,4-3.8S163.4,56.9,162.8,55.8z M137.4,51.5c1.4,0,2.5,1.1,2.5,2.5
		c0,1.4-1.1,2.5-2.5,2.5c-1.4,0-2.5-1.1-2.5-2.5C134.9,52.6,136.1,51.5,137.4,51.5z M146.4,62.8c-0.8,0-1.6,0.7-3,0.6
		c-1.4,0-2.1-1.6-2.1-1.6s-0.8,1.5-2.1,1.6c-1.4,0-2.2-0.7-3-0.6c-0.7,0-2.6,1.7-2.7,2.4c0-0.6,0-6.9,5-6.9c2.4,0,2.9,1.4,2.9,1.4
		s0.5-1.4,2.9-1.4c5,0,4.9,6.3,5,6.9C149,64.5,147.1,62.8,146.4,62.8z M145,57.3c-2.3,0-4.1-1.8-4.1-4.1c0-2.3,1.8-4.1,4.1-4.1
		c2.3,0,4.1,1.8,4.1,4.1C149.1,55.5,147.3,57.3,145,57.3z"/>
	<circle class="st3" cx="145" cy="53.2" r="3"/>
</g>
<g>
	<path class="st3" d="M118.8,92.1v-5.7h3.8v1h-2.7v1.5h2.3v0.9h-2.3v2.4H118.8z"/>
	<path class="st3" d="M124.9,92.2c-0.3,0-0.6-0.1-0.9-0.2c-0.3-0.1-0.5-0.3-0.7-0.5c-0.2-0.2-0.3-0.4-0.4-0.7
		c-0.1-0.3-0.2-0.5-0.2-0.8c0-0.3,0.1-0.6,0.2-0.8c0.1-0.3,0.2-0.5,0.4-0.7c0.2-0.2,0.4-0.4,0.7-0.5s0.6-0.2,0.9-0.2
		s0.6,0.1,0.9,0.2c0.3,0.1,0.5,0.3,0.7,0.5c0.2,0.2,0.3,0.4,0.4,0.7c0.1,0.3,0.2,0.5,0.2,0.8c0,0.3-0.1,0.6-0.2,0.8
		c-0.1,0.3-0.2,0.5-0.4,0.7c-0.2,0.2-0.4,0.4-0.7,0.5C125.6,92.1,125.3,92.2,124.9,92.2z M123.8,90c0,0.2,0,0.4,0.1,0.5
		c0.1,0.2,0.1,0.3,0.2,0.4c0.1,0.1,0.2,0.2,0.3,0.3c0.1,0.1,0.3,0.1,0.4,0.1s0.3,0,0.4-0.1c0.1-0.1,0.2-0.1,0.3-0.3
		c0.1-0.1,0.2-0.2,0.2-0.4s0.1-0.3,0.1-0.5c0-0.2,0-0.3-0.1-0.5c-0.1-0.2-0.1-0.3-0.2-0.4s-0.2-0.2-0.3-0.3
		c-0.1-0.1-0.3-0.1-0.4-0.1s-0.3,0-0.4,0.1c-0.1,0.1-0.2,0.2-0.3,0.3c-0.1,0.1-0.2,0.2-0.2,0.4C123.8,89.6,123.8,89.8,123.8,90z"/>
	<path class="st3" d="M129.8,92.2c-0.3,0-0.6-0.1-0.9-0.2c-0.3-0.1-0.5-0.3-0.7-0.5c-0.2-0.2-0.3-0.4-0.4-0.7
		c-0.1-0.3-0.2-0.5-0.2-0.8c0-0.3,0.1-0.6,0.2-0.8c0.1-0.3,0.2-0.5,0.4-0.7c0.2-0.2,0.4-0.4,0.7-0.5s0.6-0.2,0.9-0.2
		s0.6,0.1,0.9,0.2c0.3,0.1,0.5,0.3,0.7,0.5c0.2,0.2,0.3,0.4,0.4,0.7c0.1,0.3,0.2,0.5,0.2,0.8c0,0.3-0.1,0.6-0.2,0.8
		c-0.1,0.3-0.2,0.5-0.4,0.7c-0.2,0.2-0.4,0.4-0.7,0.5C130.4,92.1,130.1,92.2,129.8,92.2z M128.7,90c0,0.2,0,0.4,0.1,0.5
		c0.1,0.2,0.1,0.3,0.2,0.4c0.1,0.1,0.2,0.2,0.3,0.3c0.1,0.1,0.3,0.1,0.4,0.1s0.3,0,0.4-0.1c0.1-0.1,0.2-0.1,0.3-0.3
		c0.1-0.1,0.2-0.2,0.2-0.4s0.1-0.3,0.1-0.5c0-0.2,0-0.3-0.1-0.5c-0.1-0.2-0.1-0.3-0.2-0.4s-0.2-0.2-0.3-0.3
		c-0.1-0.1-0.3-0.1-0.4-0.1s-0.3,0-0.4,0.1c-0.1,0.1-0.2,0.2-0.3,0.3c-0.1,0.1-0.2,0.2-0.2,0.4C128.7,89.6,128.7,89.8,128.7,90z"/>
	<path class="st3" d="M134.4,92.2c-0.3,0-0.6-0.1-0.8-0.2c-0.2-0.1-0.5-0.3-0.6-0.5s-0.3-0.4-0.4-0.7c-0.1-0.3-0.1-0.5-0.1-0.9
		c0-0.3,0-0.6,0.1-0.8s0.2-0.5,0.4-0.7c0.2-0.2,0.4-0.4,0.6-0.5c0.2-0.1,0.5-0.2,0.8-0.2c0.3,0,0.6,0.1,0.8,0.2s0.4,0.3,0.6,0.6
		v-2.4h1.1v4.6c0,0.1,0,0.2,0.1,0.2c0,0,0.1,0.1,0.2,0.1v0.9c-0.2,0-0.3,0.1-0.5,0.1c-0.2,0-0.3,0-0.5-0.1c-0.1-0.1-0.2-0.2-0.2-0.4
		l0-0.3c-0.2,0.3-0.4,0.5-0.6,0.6C135,92.1,134.7,92.2,134.4,92.2z M134.7,91.3c0.1,0,0.2,0,0.3-0.1c0.1,0,0.2-0.1,0.3-0.1
		c0.1-0.1,0.2-0.1,0.2-0.2c0.1-0.1,0.1-0.2,0.2-0.3v-1c0-0.1-0.1-0.2-0.2-0.3c-0.1-0.1-0.2-0.2-0.3-0.3c-0.1-0.1-0.2-0.1-0.3-0.2
		c-0.1,0-0.2-0.1-0.3-0.1c-0.2,0-0.3,0-0.4,0.1c-0.1,0.1-0.3,0.2-0.3,0.3c-0.1,0.1-0.2,0.3-0.2,0.4c-0.1,0.2-0.1,0.3-0.1,0.5
		c0,0.2,0,0.3,0.1,0.5c0.1,0.1,0.1,0.3,0.2,0.4c0.1,0.1,0.2,0.2,0.4,0.3C134.4,91.2,134.5,91.3,134.7,91.3z"/>
	<path class="st3" d="M137.6,90c0-0.3,0.1-0.6,0.2-0.8c0.1-0.3,0.2-0.5,0.4-0.7c0.2-0.2,0.4-0.4,0.7-0.5s0.6-0.2,0.9-0.2
		c0.5,0,0.8,0.1,1.2,0.3s0.6,0.5,0.7,0.8l-1,0.3c-0.1-0.2-0.2-0.3-0.4-0.4c-0.1-0.1-0.3-0.1-0.5-0.1c-0.2,0-0.3,0-0.4,0.1
		c-0.1,0.1-0.2,0.1-0.3,0.3s-0.2,0.2-0.2,0.4c-0.1,0.2-0.1,0.3-0.1,0.5c0,0.2,0,0.4,0.1,0.5s0.1,0.3,0.2,0.4
		c0.1,0.1,0.2,0.2,0.3,0.3c0.1,0.1,0.3,0.1,0.4,0.1c0.2,0,0.4,0,0.5-0.1c0.2-0.1,0.3-0.2,0.3-0.4l1,0.3c-0.1,0.3-0.4,0.6-0.7,0.8
		s-0.7,0.3-1.2,0.3c-0.3,0-0.6-0.1-0.9-0.2c-0.3-0.1-0.5-0.3-0.7-0.5c-0.2-0.2-0.3-0.4-0.4-0.7S137.6,90.3,137.6,90z"/>
	<path class="st3" d="M144.8,88.8c-0.3,0-0.6,0.1-0.9,0.2c-0.3,0.1-0.4,0.3-0.6,0.5v2.5h-1.1v-4.2h1v0.9c0.1-0.1,0.2-0.3,0.3-0.4
		c0.1-0.1,0.2-0.2,0.3-0.3s0.2-0.2,0.4-0.2c0.1,0,0.2-0.1,0.3-0.1c0.1,0,0.1,0,0.1,0s0.1,0,0.1,0V88.8z"/>
	<path class="st3" d="M145.4,87.3v-1.1h1.1v1.1H145.4z M145.4,92.1v-4.2h1.1v4.2H145.4z"/>
	<path class="st3" d="M150,91.9c-0.1,0.1-0.3,0.1-0.5,0.2s-0.4,0.1-0.7,0.1c-0.1,0-0.3,0-0.4-0.1c-0.1,0-0.2-0.1-0.3-0.2
		c-0.1-0.1-0.2-0.2-0.2-0.3s-0.1-0.3-0.1-0.5v-2.4h-0.6v-0.8h0.6v-1.4h1.1v1.4h0.9v0.8h-0.9v2c0,0.1,0,0.3,0.1,0.3s0.2,0.1,0.3,0.1
		c0.1,0,0.2,0,0.3-0.1c0.1,0,0.2-0.1,0.3-0.1L150,91.9z"/>
	<path class="st3" d="M150.6,87.3v-1.1h1.1v1.1H150.6z M150.6,92.1v-4.2h1.1v4.2H150.6z"/>
	<path class="st3" d="M152.3,90c0-0.3,0.1-0.6,0.2-0.8c0.1-0.3,0.2-0.5,0.4-0.7c0.2-0.2,0.4-0.4,0.7-0.5s0.6-0.2,0.9-0.2
		c0.5,0,0.8,0.1,1.2,0.3s0.6,0.5,0.7,0.8l-1,0.3c-0.1-0.2-0.2-0.3-0.4-0.4c-0.1-0.1-0.3-0.1-0.5-0.1c-0.2,0-0.3,0-0.4,0.1
		c-0.1,0.1-0.2,0.1-0.3,0.3s-0.2,0.2-0.2,0.4c-0.1,0.2-0.1,0.3-0.1,0.5c0,0.2,0,0.4,0.1,0.5s0.1,0.3,0.2,0.4
		c0.1,0.1,0.2,0.2,0.3,0.3c0.1,0.1,0.3,0.1,0.4,0.1c0.2,0,0.4,0,0.5-0.1c0.2-0.1,0.3-0.2,0.3-0.4l1,0.3c-0.1,0.3-0.4,0.6-0.7,0.8
		s-0.7,0.3-1.2,0.3c-0.3,0-0.6-0.1-0.9-0.2c-0.3-0.1-0.5-0.3-0.7-0.5c-0.2-0.2-0.3-0.4-0.4-0.7S152.3,90.3,152.3,90z"/>
</g>
<g>
	<path class="st3" d="M207,92.1v-5.7h1.1v2.7l2.4-2.7h1.2l-2.2,2.5l2.3,3.2h-1.2l-1.8-2.5l-0.7,0.8v1.7H207z"/>
	<path class="st3" d="M212.3,87.3v-1.1h1.1v1.1H212.3z M212.3,92.1v-4.2h1.1v4.2H212.3z"/>
	<path class="st3" d="M216.8,91.9c-0.1,0.1-0.3,0.1-0.5,0.2s-0.4,0.1-0.7,0.1c-0.1,0-0.3,0-0.4-0.1c-0.1,0-0.2-0.1-0.3-0.2
		c-0.1-0.1-0.2-0.2-0.2-0.3s-0.1-0.3-0.1-0.5v-2.4H214v-0.8h0.6v-1.4h1.1v1.4h0.9v0.8h-0.9v2c0,0.1,0,0.3,0.1,0.3s0.2,0.1,0.3,0.1
		s0.2,0,0.3-0.1c0.1,0,0.2-0.1,0.3-0.1L216.8,91.9z"/>
	<path class="st3" d="M217,90c0-0.3,0.1-0.6,0.2-0.8c0.1-0.3,0.2-0.5,0.4-0.7c0.2-0.2,0.4-0.4,0.7-0.5c0.3-0.1,0.6-0.2,0.9-0.2
		c0.5,0,0.8,0.1,1.2,0.3c0.3,0.2,0.6,0.5,0.7,0.8l-1,0.3c-0.1-0.2-0.2-0.3-0.4-0.4c-0.1-0.1-0.3-0.1-0.5-0.1c-0.2,0-0.3,0-0.4,0.1
		c-0.1,0.1-0.2,0.1-0.3,0.3s-0.2,0.2-0.2,0.4c-0.1,0.2-0.1,0.3-0.1,0.5c0,0.2,0,0.4,0.1,0.5s0.1,0.3,0.2,0.4
		c0.1,0.1,0.2,0.2,0.3,0.3c0.1,0.1,0.3,0.1,0.4,0.1c0.2,0,0.4,0,0.5-0.1c0.2-0.1,0.3-0.2,0.3-0.4l1,0.3c-0.1,0.3-0.4,0.6-0.7,0.8
		c-0.3,0.2-0.7,0.3-1.2,0.3c-0.3,0-0.6-0.1-0.9-0.2c-0.3-0.1-0.5-0.3-0.7-0.5c-0.2-0.2-0.3-0.4-0.4-0.7C217.1,90.6,217,90.3,217,90z
		"/>
	<path class="st3" d="M225.7,92.1h-1.1v-2.4c0-0.3-0.1-0.6-0.2-0.7c-0.1-0.2-0.3-0.2-0.5-0.2c-0.1,0-0.2,0-0.3,0.1
		c-0.1,0-0.2,0.1-0.3,0.2c-0.1,0.1-0.2,0.2-0.3,0.3c-0.1,0.1-0.1,0.2-0.2,0.4v2.4h-1.1v-5.8h1.1v2.4c0.2-0.3,0.4-0.5,0.6-0.6
		c0.3-0.1,0.6-0.2,0.9-0.2c0.3,0,0.5,0,0.7,0.1c0.2,0.1,0.3,0.2,0.4,0.4c0.1,0.2,0.2,0.3,0.2,0.5s0.1,0.4,0.1,0.6V92.1z"/>
	<path class="st3" d="M228.6,92.2c-0.3,0-0.6-0.1-0.9-0.2c-0.3-0.1-0.5-0.3-0.7-0.5c-0.2-0.2-0.3-0.4-0.4-0.7
		c-0.1-0.3-0.2-0.5-0.2-0.8c0-0.3,0.1-0.6,0.2-0.8c0.1-0.3,0.2-0.5,0.4-0.7c0.2-0.2,0.4-0.4,0.7-0.5s0.6-0.2,0.9-0.2
		c0.3,0,0.6,0.1,0.9,0.2s0.5,0.3,0.7,0.5c0.2,0.2,0.3,0.4,0.4,0.7c0.1,0.3,0.1,0.5,0.1,0.8c0,0.1,0,0.1,0,0.2c0,0.1,0,0.1,0,0.2
		h-3.2c0,0.2,0.1,0.3,0.1,0.4c0.1,0.1,0.1,0.2,0.2,0.3s0.2,0.2,0.3,0.2c0.1,0,0.3,0.1,0.4,0.1c0.2,0,0.4-0.1,0.6-0.2
		c0.2-0.1,0.3-0.2,0.4-0.4l0.9,0.3c-0.2,0.3-0.4,0.6-0.7,0.8C229.5,92.1,229.1,92.2,228.6,92.2z M229.7,89.6c0-0.3-0.1-0.6-0.3-0.8
		c-0.2-0.2-0.5-0.3-0.7-0.3c-0.1,0-0.3,0-0.4,0.1c-0.1,0.1-0.2,0.1-0.3,0.2c-0.1,0.1-0.2,0.2-0.2,0.3c-0.1,0.1-0.1,0.3-0.1,0.4
		H229.7z"/>
	<path class="st3" d="M235.3,92.1h-1.1v-2.4c0-0.3-0.1-0.6-0.2-0.7s-0.3-0.2-0.5-0.2c-0.1,0-0.2,0-0.3,0.1c-0.1,0-0.2,0.1-0.3,0.2
		c-0.1,0.1-0.2,0.2-0.3,0.3c-0.1,0.1-0.1,0.2-0.2,0.4v2.4h-1.1v-4.2h1v0.8c0.2-0.3,0.4-0.5,0.7-0.6c0.3-0.1,0.6-0.2,1-0.2
		c0.3,0,0.5,0,0.6,0.1c0.2,0.1,0.3,0.2,0.4,0.4c0.1,0.2,0.2,0.3,0.2,0.5c0,0.2,0.1,0.4,0.1,0.6V92.1z"/>
</g>
<g>
	<path class="st3" d="M286.1,89.2c0-0.3,0.1-0.7,0.2-1c0.1-0.3,0.3-0.6,0.5-0.9c0.2-0.3,0.5-0.5,0.9-0.6c0.3-0.2,0.7-0.2,1.2-0.2
		c0.5,0,1,0.1,1.4,0.3c0.4,0.2,0.7,0.5,0.9,0.9l-0.8,0.6c-0.1-0.2-0.2-0.3-0.3-0.4s-0.2-0.2-0.3-0.3c-0.1-0.1-0.3-0.1-0.4-0.1
		c-0.1,0-0.3,0-0.4,0c-0.3,0-0.5,0.1-0.7,0.2c-0.2,0.1-0.4,0.3-0.5,0.4c-0.1,0.2-0.2,0.4-0.3,0.6s-0.1,0.5-0.1,0.7
		c0,0.3,0,0.5,0.1,0.7c0.1,0.2,0.2,0.4,0.3,0.6c0.1,0.2,0.3,0.3,0.5,0.4c0.2,0.1,0.4,0.2,0.7,0.2c0.1,0,0.3,0,0.4,0
		c0.1,0,0.3-0.1,0.4-0.2c0.1-0.1,0.2-0.2,0.3-0.3s0.2-0.2,0.3-0.4l0.9,0.5c-0.1,0.2-0.2,0.4-0.4,0.6c-0.2,0.2-0.4,0.3-0.6,0.4
		c-0.2,0.1-0.4,0.2-0.7,0.3c-0.2,0.1-0.5,0.1-0.7,0.1c-0.4,0-0.8-0.1-1.1-0.3c-0.3-0.2-0.6-0.4-0.9-0.7c-0.2-0.3-0.4-0.6-0.6-0.9
		C286.2,89.9,286.1,89.6,286.1,89.2z"/>
	<path class="st3" d="M295.7,92.1h-1.1v-2.4c0-0.3-0.1-0.6-0.2-0.7c-0.1-0.2-0.3-0.2-0.5-0.2c-0.1,0-0.2,0-0.3,0.1
		c-0.1,0-0.2,0.1-0.3,0.2c-0.1,0.1-0.2,0.2-0.3,0.3c-0.1,0.1-0.1,0.2-0.2,0.4v2.4h-1.1v-5.8h1.1v2.4c0.2-0.3,0.4-0.5,0.6-0.6
		c0.3-0.1,0.6-0.2,0.9-0.2c0.3,0,0.5,0,0.7,0.1c0.2,0.1,0.3,0.2,0.4,0.4c0.1,0.2,0.2,0.3,0.2,0.5s0.1,0.4,0.1,0.6V92.1z"/>
	<path class="st3" d="M298.6,92.2c-0.3,0-0.6-0.1-0.9-0.2c-0.3-0.1-0.5-0.3-0.7-0.5s-0.3-0.4-0.4-0.7c-0.1-0.3-0.2-0.5-0.2-0.8
		c0-0.3,0-0.6,0.2-0.8s0.2-0.5,0.4-0.7c0.2-0.2,0.4-0.4,0.7-0.5c0.3-0.1,0.6-0.2,0.9-0.2c0.3,0,0.6,0.1,0.9,0.2s0.5,0.3,0.7,0.5
		c0.2,0.2,0.3,0.4,0.4,0.7c0.1,0.3,0.1,0.5,0.1,0.8c0,0.1,0,0.1,0,0.2s0,0.1,0,0.2h-3.2c0,0.2,0.1,0.3,0.1,0.4
		c0.1,0.1,0.1,0.2,0.2,0.3c0.1,0.1,0.2,0.2,0.3,0.2c0.1,0,0.3,0.1,0.4,0.1c0.2,0,0.4-0.1,0.6-0.2s0.3-0.2,0.4-0.4l0.9,0.3
		c-0.2,0.3-0.4,0.6-0.7,0.8C299.5,92.1,299.1,92.2,298.6,92.2z M299.7,89.6c0-0.3-0.1-0.6-0.3-0.8c-0.2-0.2-0.5-0.3-0.7-0.3
		c-0.1,0-0.3,0-0.4,0.1c-0.1,0.1-0.2,0.1-0.3,0.2c-0.1,0.1-0.2,0.2-0.2,0.3s-0.1,0.3-0.1,0.4H299.7z"/>
	<path class="st3" d="M301.7,92.1v-3.2h-0.6v-0.8h0.6v-0.3c0-0.5,0.1-0.9,0.4-1.2c0.3-0.3,0.6-0.5,1-0.5c0.3,0,0.7,0.1,1,0.2
		l-0.2,0.8c-0.1,0-0.2-0.1-0.3-0.1c-0.1,0-0.2,0-0.3,0c-0.4,0-0.6,0.3-0.6,0.8v0.3h1v0.8h-1v3.2H301.7z"/>
	<path class="st3" d="M307.9,87.9c0,0-0.1-0.1-0.2-0.2c-0.1-0.1-0.2-0.1-0.4-0.2c-0.1-0.1-0.3-0.1-0.5-0.2c-0.2,0-0.3-0.1-0.5-0.1
		c-0.3,0-0.5,0.1-0.7,0.2s-0.2,0.3-0.2,0.5c0,0.1,0,0.2,0.1,0.3c0.1,0.1,0.1,0.1,0.2,0.2c0.1,0.1,0.2,0.1,0.4,0.2
		c0.2,0,0.4,0.1,0.6,0.2c0.3,0.1,0.5,0.2,0.8,0.2c0.2,0.1,0.4,0.2,0.6,0.3s0.3,0.3,0.4,0.5c0.1,0.2,0.1,0.4,0.1,0.7
		c0,0.3-0.1,0.6-0.2,0.8c-0.1,0.2-0.3,0.4-0.5,0.5c-0.2,0.1-0.4,0.2-0.7,0.3c-0.3,0.1-0.5,0.1-0.8,0.1c-0.4,0-0.8-0.1-1.3-0.2
		s-0.8-0.3-1.1-0.5l0.5-1c0,0,0.1,0.1,0.3,0.2c0.1,0.1,0.3,0.2,0.4,0.2c0.2,0.1,0.4,0.1,0.6,0.2s0.4,0.1,0.6,0.1
		c0.6,0,0.9-0.2,0.9-0.6c0-0.1,0-0.2-0.1-0.3c-0.1-0.1-0.2-0.2-0.3-0.2s-0.3-0.1-0.5-0.2c-0.2-0.1-0.4-0.1-0.6-0.2
		c-0.3-0.1-0.5-0.2-0.7-0.2c-0.2-0.1-0.4-0.2-0.5-0.3c-0.1-0.1-0.2-0.3-0.3-0.4c-0.1-0.2-0.1-0.3-0.1-0.6c0-0.3,0.1-0.5,0.2-0.8
		s0.3-0.4,0.4-0.6c0.2-0.1,0.4-0.3,0.7-0.3c0.3-0.1,0.5-0.1,0.8-0.1c0.4,0,0.8,0.1,1.1,0.2c0.3,0.1,0.6,0.3,0.9,0.4L307.9,87.9z"/>
	<path class="st3" d="M311.8,92.2c-0.3,0-0.6-0.1-0.9-0.2c-0.2-0.1-0.4-0.3-0.6-0.6v2.4h-1.1v-5.9h0.9v0.7c0.2-0.2,0.4-0.4,0.6-0.6
		c0.2-0.1,0.5-0.2,0.8-0.2c0.3,0,0.5,0.1,0.8,0.2c0.2,0.1,0.4,0.3,0.6,0.5c0.2,0.2,0.3,0.4,0.4,0.7s0.1,0.5,0.1,0.8
		c0,0.3,0,0.6-0.1,0.9c-0.1,0.3-0.2,0.5-0.4,0.7c-0.2,0.2-0.4,0.4-0.6,0.5C312.3,92.1,312.1,92.2,311.8,92.2z M311.4,91.3
		c0.2,0,0.3,0,0.4-0.1s0.3-0.2,0.3-0.3s0.2-0.3,0.2-0.4c0.1-0.2,0.1-0.3,0.1-0.5c0-0.2,0-0.3-0.1-0.5c-0.1-0.2-0.1-0.3-0.2-0.4
		c-0.1-0.1-0.2-0.2-0.4-0.3c-0.1-0.1-0.3-0.1-0.5-0.1c-0.1,0-0.2,0-0.3,0.1s-0.2,0.1-0.3,0.1s-0.2,0.1-0.2,0.2
		c-0.1,0.1-0.1,0.2-0.2,0.3v1c0.1,0.2,0.2,0.4,0.4,0.6S311.2,91.3,311.4,91.3z"/>
	<path class="st3" d="M316.3,92.2c-0.3,0-0.6-0.1-0.9-0.2c-0.3-0.1-0.5-0.3-0.7-0.5c-0.2-0.2-0.3-0.4-0.4-0.7
		c-0.1-0.3-0.2-0.5-0.2-0.8c0-0.3,0.1-0.6,0.2-0.8c0.1-0.3,0.2-0.5,0.4-0.7c0.2-0.2,0.4-0.4,0.7-0.5s0.6-0.2,0.9-0.2
		c0.3,0,0.6,0.1,0.9,0.2s0.5,0.3,0.7,0.5c0.2,0.2,0.3,0.4,0.4,0.7c0.1,0.3,0.1,0.5,0.1,0.8c0,0.1,0,0.1,0,0.2c0,0.1,0,0.1,0,0.2
		h-3.2c0,0.2,0.1,0.3,0.1,0.4c0.1,0.1,0.1,0.2,0.2,0.3s0.2,0.2,0.3,0.2c0.1,0,0.3,0.1,0.4,0.1c0.2,0,0.4-0.1,0.6-0.2
		c0.2-0.1,0.3-0.2,0.4-0.4l0.9,0.3c-0.2,0.3-0.4,0.6-0.7,0.8C317.2,92.1,316.8,92.2,316.3,92.2z M317.4,89.6c0-0.3-0.1-0.6-0.3-0.8
		c-0.2-0.2-0.5-0.3-0.7-0.3c-0.1,0-0.3,0-0.4,0.1c-0.1,0.1-0.2,0.1-0.3,0.2c-0.1,0.1-0.2,0.2-0.2,0.3c-0.1,0.1-0.1,0.3-0.1,0.4
		H317.4z"/>
	<path class="st3" d="M318.9,90c0-0.3,0.1-0.6,0.2-0.8c0.1-0.3,0.2-0.5,0.4-0.7c0.2-0.2,0.4-0.4,0.7-0.5c0.3-0.1,0.6-0.2,0.9-0.2
		c0.5,0,0.8,0.1,1.2,0.3c0.3,0.2,0.6,0.5,0.7,0.8l-1,0.3c-0.1-0.2-0.2-0.3-0.4-0.4c-0.1-0.1-0.3-0.1-0.5-0.1c-0.2,0-0.3,0-0.4,0.1
		c-0.1,0.1-0.2,0.1-0.3,0.3s-0.2,0.2-0.2,0.4c-0.1,0.2-0.1,0.3-0.1,0.5c0,0.2,0,0.4,0.1,0.5s0.1,0.3,0.2,0.4
		c0.1,0.1,0.2,0.2,0.3,0.3c0.1,0.1,0.3,0.1,0.4,0.1c0.2,0,0.4,0,0.5-0.1c0.2-0.1,0.3-0.2,0.3-0.4l1,0.3c-0.1,0.3-0.4,0.6-0.7,0.8
		c-0.3,0.2-0.7,0.3-1.2,0.3c-0.3,0-0.6-0.1-0.9-0.2c-0.3-0.1-0.5-0.3-0.7-0.5c-0.2-0.2-0.3-0.4-0.4-0.7
		C318.9,90.6,318.9,90.3,318.9,90z"/>
</g>
<g>
	<path class="st3" d="M124.8,173.9v-5.7h1.1v5.7H124.8z"/>
	<path class="st3" d="M130.9,173.9h-1.1v-2.4c0-0.3-0.1-0.6-0.2-0.7c-0.1-0.2-0.3-0.2-0.5-0.2c-0.1,0-0.2,0-0.3,0.1
		c-0.1,0-0.2,0.1-0.3,0.2c-0.1,0.1-0.2,0.2-0.3,0.3c-0.1,0.1-0.1,0.2-0.2,0.4v2.4H127v-4.2h1v0.8c0.2-0.3,0.4-0.5,0.7-0.6
		s0.6-0.2,1-0.2c0.3,0,0.5,0,0.6,0.1c0.2,0.1,0.3,0.2,0.4,0.4c0.1,0.2,0.2,0.3,0.2,0.5s0.1,0.4,0.1,0.6V173.9z"/>
	<path class="st3" d="M135.3,169.7c0,0-0.1-0.1-0.2-0.2c-0.1-0.1-0.2-0.1-0.4-0.2c-0.1-0.1-0.3-0.1-0.5-0.2c-0.2,0-0.3-0.1-0.5-0.1
		c-0.3,0-0.5,0.1-0.7,0.2s-0.2,0.3-0.2,0.5c0,0.1,0,0.2,0.1,0.3c0.1,0.1,0.1,0.1,0.2,0.2c0.1,0.1,0.2,0.1,0.4,0.2s0.4,0.1,0.6,0.2
		c0.3,0.1,0.5,0.2,0.8,0.2c0.2,0.1,0.4,0.2,0.6,0.3s0.3,0.3,0.4,0.5c0.1,0.2,0.1,0.4,0.1,0.7c0,0.3-0.1,0.6-0.2,0.8
		c-0.1,0.2-0.3,0.4-0.5,0.5s-0.4,0.2-0.7,0.3c-0.3,0.1-0.5,0.1-0.8,0.1c-0.4,0-0.8-0.1-1.3-0.2s-0.8-0.3-1.1-0.5l0.5-1
		c0,0,0.1,0.1,0.3,0.2c0.1,0.1,0.3,0.2,0.4,0.2c0.2,0.1,0.4,0.1,0.6,0.2s0.4,0.1,0.6,0.1c0.6,0,0.9-0.2,0.9-0.6c0-0.1,0-0.2-0.1-0.3
		c-0.1-0.1-0.2-0.2-0.3-0.2s-0.3-0.1-0.5-0.2c-0.2-0.1-0.4-0.1-0.6-0.2c-0.3-0.1-0.5-0.2-0.7-0.2c-0.2-0.1-0.4-0.2-0.5-0.3
		s-0.2-0.3-0.3-0.4c-0.1-0.2-0.1-0.3-0.1-0.6c0-0.3,0.1-0.5,0.2-0.8c0.1-0.2,0.3-0.4,0.4-0.6c0.2-0.1,0.4-0.3,0.7-0.3
		c0.3-0.1,0.5-0.1,0.8-0.1c0.4,0,0.8,0.1,1.1,0.2c0.3,0.1,0.6,0.3,0.9,0.4L135.3,169.7z"/>
	<path class="st3" d="M139.2,174c-0.3,0-0.6-0.1-0.9-0.2c-0.2-0.1-0.4-0.3-0.6-0.6v2.4h-1.1v-5.9h0.9v0.7c0.2-0.2,0.4-0.4,0.6-0.6
		c0.2-0.1,0.5-0.2,0.8-0.2c0.3,0,0.5,0.1,0.8,0.2c0.2,0.1,0.4,0.3,0.6,0.5s0.3,0.4,0.4,0.7s0.1,0.5,0.1,0.8c0,0.3,0,0.6-0.1,0.9
		c-0.1,0.3-0.2,0.5-0.4,0.7s-0.4,0.4-0.6,0.5C139.7,173.9,139.5,174,139.2,174z M138.9,173c0.2,0,0.3,0,0.4-0.1
		c0.1-0.1,0.3-0.2,0.3-0.3c0.1-0.1,0.2-0.3,0.2-0.4c0.1-0.2,0.1-0.3,0.1-0.5c0-0.2,0-0.3-0.1-0.5c-0.1-0.2-0.1-0.3-0.2-0.4
		c-0.1-0.1-0.2-0.2-0.4-0.3c-0.1-0.1-0.3-0.1-0.5-0.1c-0.1,0-0.2,0-0.3,0.1c-0.1,0-0.2,0.1-0.3,0.1c-0.1,0.1-0.2,0.1-0.2,0.2
		c-0.1,0.1-0.1,0.2-0.2,0.3v1c0.1,0.2,0.2,0.4,0.4,0.6S138.6,173,138.9,173z"/>
	<path class="st3" d="M143.7,174c-0.3,0-0.6-0.1-0.9-0.2c-0.3-0.1-0.5-0.3-0.7-0.5c-0.2-0.2-0.3-0.4-0.4-0.7s-0.2-0.5-0.2-0.8
		c0-0.3,0.1-0.6,0.2-0.8c0.1-0.3,0.2-0.5,0.4-0.7c0.2-0.2,0.4-0.4,0.7-0.5c0.3-0.1,0.6-0.2,0.9-0.2s0.6,0.1,0.9,0.2s0.5,0.3,0.7,0.5
		c0.2,0.2,0.3,0.4,0.4,0.7c0.1,0.3,0.1,0.5,0.1,0.8c0,0.1,0,0.1,0,0.2c0,0.1,0,0.1,0,0.2h-3.2c0,0.2,0.1,0.3,0.1,0.4
		s0.1,0.2,0.2,0.3c0.1,0.1,0.2,0.2,0.3,0.2c0.1,0,0.3,0.1,0.4,0.1c0.2,0,0.4-0.1,0.6-0.2c0.2-0.1,0.3-0.2,0.4-0.4l0.9,0.3
		c-0.2,0.3-0.4,0.6-0.7,0.8C144.6,173.9,144.2,174,143.7,174z M144.8,171.4c0-0.3-0.1-0.6-0.3-0.8c-0.2-0.2-0.5-0.3-0.7-0.3
		c-0.1,0-0.3,0-0.4,0.1c-0.1,0.1-0.2,0.1-0.3,0.2c-0.1,0.1-0.2,0.2-0.2,0.3c-0.1,0.1-0.1,0.3-0.1,0.4H144.8z"/>
	<path class="st3" d="M146.3,171.8c0-0.3,0.1-0.6,0.2-0.8c0.1-0.3,0.2-0.5,0.4-0.7c0.2-0.2,0.4-0.4,0.7-0.5s0.6-0.2,0.9-0.2
		c0.5,0,0.8,0.1,1.2,0.3s0.6,0.5,0.7,0.8l-1,0.3c-0.1-0.2-0.2-0.3-0.4-0.4c-0.1-0.1-0.3-0.1-0.5-0.1c-0.2,0-0.3,0-0.4,0.1
		c-0.1,0.1-0.2,0.1-0.3,0.3s-0.2,0.2-0.2,0.4c-0.1,0.2-0.1,0.3-0.1,0.5c0,0.2,0,0.4,0.1,0.5s0.1,0.3,0.2,0.4
		c0.1,0.1,0.2,0.2,0.3,0.3c0.1,0.1,0.3,0.1,0.4,0.1c0.2,0,0.4,0,0.5-0.1c0.2-0.1,0.3-0.2,0.3-0.4l1,0.3c-0.1,0.3-0.4,0.6-0.7,0.8
		s-0.7,0.3-1.2,0.3c-0.3,0-0.6-0.1-0.9-0.2c-0.3-0.1-0.5-0.3-0.7-0.5c-0.2-0.2-0.3-0.4-0.4-0.7S146.3,172.1,146.3,171.8z"/>
</g>
<g>
	<path class="st3" d="M90,453.3c-0.2,0-0.4,0-0.6-0.1c-0.2-0.1-0.3-0.2-0.5-0.3c-0.1-0.1-0.2-0.3-0.3-0.4c-0.1-0.2-0.1-0.3-0.1-0.5
		c0-0.2,0-0.4,0.1-0.5s0.2-0.3,0.4-0.4c0.2-0.1,0.3-0.2,0.6-0.3c0.2-0.1,0.5-0.1,0.7-0.1c0.2,0,0.4,0,0.5,0c0.2,0,0.3,0.1,0.5,0.1
		v-0.2c0-0.3-0.1-0.5-0.2-0.6s-0.4-0.2-0.7-0.2c-0.2,0-0.4,0-0.7,0.1s-0.4,0.2-0.7,0.4l-0.3-0.7c0.5-0.4,1.1-0.5,1.7-0.5
		c0.6,0,1.1,0.1,1.4,0.4c0.3,0.3,0.5,0.7,0.5,1.3v1.3c0,0.1,0,0.2,0.1,0.2s0.1,0.1,0.2,0.1v0.9c-0.2,0-0.3,0.1-0.5,0.1
		c-0.2,0-0.4,0-0.5-0.1s-0.2-0.2-0.2-0.4l0-0.2c-0.2,0.2-0.4,0.4-0.7,0.6S90.3,453.3,90,453.3z M90.3,452.5c0.2,0,0.4,0,0.5-0.1
		c0.2-0.1,0.3-0.1,0.4-0.3c0.1-0.1,0.2-0.2,0.2-0.3v-0.5c-0.1,0-0.3-0.1-0.4-0.1s-0.3,0-0.4,0c-0.3,0-0.5,0.1-0.7,0.2
		c-0.2,0.1-0.3,0.3-0.3,0.5c0,0.2,0.1,0.3,0.2,0.5C90,452.4,90.1,452.5,90.3,452.5z"/>
	<path class="st3" d="M96,453.3c-0.3,0-0.6-0.1-0.9-0.2c-0.2-0.1-0.4-0.3-0.6-0.6v2.4h-1.1V449h0.9v0.7c0.2-0.2,0.4-0.4,0.6-0.6
		c0.2-0.1,0.5-0.2,0.8-0.2c0.3,0,0.5,0.1,0.8,0.2c0.2,0.1,0.4,0.3,0.6,0.5c0.2,0.2,0.3,0.4,0.4,0.7c0.1,0.3,0.1,0.5,0.1,0.8
		c0,0.3,0,0.6-0.1,0.9c-0.1,0.3-0.2,0.5-0.4,0.7s-0.4,0.4-0.6,0.5C96.5,453.2,96.3,453.3,96,453.3z M95.6,452.4c0.2,0,0.3,0,0.4-0.1
		c0.1-0.1,0.3-0.2,0.3-0.3c0.1-0.1,0.2-0.3,0.2-0.4c0.1-0.2,0.1-0.3,0.1-0.5c0-0.2,0-0.3-0.1-0.5c-0.1-0.2-0.1-0.3-0.2-0.4
		S96.2,450,96,450c-0.1-0.1-0.3-0.1-0.5-0.1c-0.1,0-0.2,0-0.3,0.1c-0.1,0-0.2,0.1-0.3,0.1c-0.1,0.1-0.2,0.1-0.2,0.2
		c-0.1,0.1-0.1,0.2-0.2,0.3v1c0.1,0.2,0.2,0.4,0.4,0.6S95.4,452.4,95.6,452.4z"/>
	<path class="st3" d="M98.6,448.4v-1.1h1.1v1.1H98.6z M98.6,453.2V449h1.1v4.2H98.6z"/>
</g>
<g>
	<path class="st3" d="M157,449c0,0-0.1-0.1-0.2-0.2c-0.1-0.1-0.2-0.1-0.4-0.2c-0.1-0.1-0.3-0.1-0.5-0.2c-0.2,0-0.3-0.1-0.5-0.1
		c-0.3,0-0.5,0.1-0.7,0.2c-0.1,0.1-0.2,0.3-0.2,0.5c0,0.1,0,0.2,0.1,0.3s0.1,0.1,0.2,0.2c0.1,0.1,0.2,0.1,0.4,0.2s0.4,0.1,0.6,0.2
		c0.3,0.1,0.5,0.2,0.8,0.2c0.2,0.1,0.4,0.2,0.6,0.3s0.3,0.3,0.4,0.5c0.1,0.2,0.1,0.4,0.1,0.7c0,0.3-0.1,0.6-0.2,0.8
		c-0.1,0.2-0.3,0.4-0.5,0.5c-0.2,0.1-0.4,0.2-0.7,0.3s-0.5,0.1-0.8,0.1c-0.4,0-0.8-0.1-1.3-0.2s-0.8-0.3-1.1-0.5l0.5-1
		c0,0,0.1,0.1,0.3,0.2c0.1,0.1,0.3,0.2,0.4,0.2c0.2,0.1,0.4,0.1,0.6,0.2c0.2,0.1,0.4,0.1,0.6,0.1c0.6,0,0.9-0.2,0.9-0.6
		c0-0.1,0-0.2-0.1-0.3s-0.2-0.2-0.3-0.2c-0.1-0.1-0.3-0.1-0.5-0.2c-0.2-0.1-0.4-0.1-0.6-0.2c-0.3-0.1-0.5-0.2-0.7-0.2
		c-0.2-0.1-0.4-0.2-0.5-0.3s-0.2-0.3-0.3-0.4c-0.1-0.2-0.1-0.3-0.1-0.6c0-0.3,0.1-0.5,0.2-0.8c0.1-0.2,0.3-0.4,0.4-0.6
		c0.2-0.1,0.4-0.3,0.7-0.3c0.3-0.1,0.5-0.1,0.8-0.1c0.4,0,0.8,0.1,1.1,0.2s0.6,0.3,0.9,0.4L157,449z"/>
	<path class="st3" d="M159.6,453.3c-0.4,0-0.8-0.1-1-0.4c-0.2-0.3-0.3-0.7-0.3-1.2V449h1.1v2.4c0,0.6,0.2,1,0.7,1
		c0.2,0,0.4-0.1,0.6-0.2c0.2-0.1,0.4-0.3,0.5-0.6V449h1.1v3c0,0.1,0,0.2,0.1,0.2c0,0,0.1,0.1,0.2,0.1v0.9c-0.1,0-0.2,0-0.3,0
		c-0.1,0-0.1,0-0.2,0c-0.2,0-0.3,0-0.5-0.1s-0.2-0.2-0.2-0.4l0-0.3c-0.2,0.3-0.4,0.5-0.7,0.6C160.3,453.2,160,453.3,159.6,453.3z"/>
	<path class="st3" d="M165.8,453.3c-0.3,0-0.6-0.1-0.9-0.2c-0.2-0.1-0.4-0.3-0.6-0.6v2.4h-1.1V449h0.9v0.7c0.2-0.2,0.4-0.4,0.6-0.6
		c0.2-0.1,0.5-0.2,0.8-0.2c0.3,0,0.5,0.1,0.8,0.2c0.2,0.1,0.4,0.3,0.6,0.5c0.2,0.2,0.3,0.4,0.4,0.7c0.1,0.3,0.1,0.5,0.1,0.8
		c0,0.3,0,0.6-0.1,0.9c-0.1,0.3-0.2,0.5-0.4,0.7s-0.4,0.4-0.6,0.5C166.3,453.2,166.1,453.3,165.8,453.3z M165.5,452.4
		c0.2,0,0.3,0,0.4-0.1c0.1-0.1,0.3-0.2,0.3-0.3c0.1-0.1,0.2-0.3,0.2-0.4c0.1-0.2,0.1-0.3,0.1-0.5c0-0.2,0-0.3-0.1-0.5
		c-0.1-0.2-0.1-0.3-0.2-0.4s-0.2-0.2-0.4-0.3c-0.1-0.1-0.3-0.1-0.5-0.1c-0.1,0-0.2,0-0.3,0.1c-0.1,0-0.2,0.1-0.3,0.1
		c-0.1,0.1-0.2,0.1-0.2,0.2c-0.1,0.1-0.1,0.2-0.2,0.3v1c0.1,0.2,0.2,0.4,0.4,0.6S165.2,452.4,165.5,452.4z"/>
	<path class="st3" d="M170.3,453.3c-0.3,0-0.6-0.1-0.9-0.2c-0.3-0.1-0.5-0.3-0.7-0.5c-0.2-0.2-0.3-0.4-0.4-0.7
		c-0.1-0.3-0.2-0.5-0.2-0.8c0-0.3,0.1-0.6,0.2-0.8c0.1-0.3,0.2-0.5,0.4-0.7s0.4-0.4,0.7-0.5c0.3-0.1,0.6-0.2,0.9-0.2
		s0.6,0.1,0.9,0.2s0.5,0.3,0.7,0.5s0.3,0.4,0.4,0.7c0.1,0.3,0.1,0.5,0.1,0.8c0,0.1,0,0.1,0,0.2c0,0.1,0,0.1,0,0.2h-3.2
		c0,0.2,0.1,0.3,0.1,0.4s0.1,0.2,0.2,0.3c0.1,0.1,0.2,0.2,0.3,0.2c0.1,0,0.3,0.1,0.4,0.1c0.2,0,0.4-0.1,0.6-0.2
		c0.2-0.1,0.3-0.2,0.4-0.4l0.9,0.3c-0.2,0.3-0.4,0.6-0.7,0.8C171.2,453.2,170.8,453.3,170.3,453.3z M171.4,450.8
		c0-0.3-0.1-0.6-0.3-0.8c-0.2-0.2-0.5-0.3-0.7-0.3c-0.1,0-0.3,0-0.4,0.1c-0.1,0.1-0.2,0.1-0.3,0.2s-0.2,0.2-0.2,0.3
		c-0.1,0.1-0.1,0.3-0.1,0.4H171.4z"/>
	<path class="st3" d="M175.7,449.9c-0.3,0-0.6,0.1-0.9,0.2c-0.3,0.1-0.4,0.3-0.6,0.5v2.5h-1.1V449h1v0.9c0.1-0.1,0.2-0.3,0.3-0.4
		c0.1-0.1,0.2-0.2,0.3-0.3c0.1-0.1,0.2-0.2,0.4-0.2c0.1,0,0.2-0.1,0.3-0.1c0.1,0,0.1,0,0.1,0s0.1,0,0.1,0V449.9z"/>
	<path class="st3" d="M182.8,453.2h-1.1v-2.4c0-0.3-0.1-0.6-0.2-0.7c-0.1-0.2-0.3-0.2-0.5-0.2c-0.2,0-0.4,0.1-0.6,0.2
		c-0.2,0.2-0.3,0.4-0.4,0.6v2.4H179v-2.4c0-0.3-0.1-0.6-0.2-0.7c-0.1-0.2-0.3-0.2-0.5-0.2c-0.2,0-0.4,0.1-0.6,0.2s-0.3,0.4-0.4,0.6
		v2.4h-1.1V449h1v0.8c0.2-0.3,0.4-0.5,0.6-0.6c0.3-0.1,0.6-0.2,0.9-0.2c0.4,0,0.6,0.1,0.8,0.3c0.2,0.2,0.3,0.4,0.4,0.6
		c0.2-0.3,0.4-0.5,0.6-0.7c0.3-0.2,0.6-0.2,0.9-0.2c0.3,0,0.5,0,0.6,0.1c0.2,0.1,0.3,0.2,0.4,0.4c0.1,0.2,0.2,0.3,0.2,0.5
		c0,0.2,0.1,0.4,0.1,0.6V453.2z"/>
	<path class="st3" d="M184.9,453.3c-0.2,0-0.4,0-0.6-0.1c-0.2-0.1-0.3-0.2-0.5-0.3c-0.1-0.1-0.2-0.3-0.3-0.4
		c-0.1-0.2-0.1-0.3-0.1-0.5c0-0.2,0-0.4,0.1-0.5s0.2-0.3,0.4-0.4c0.2-0.1,0.3-0.2,0.6-0.3c0.2-0.1,0.5-0.1,0.7-0.1
		c0.2,0,0.4,0,0.5,0c0.2,0,0.3,0.1,0.5,0.1v-0.2c0-0.3-0.1-0.5-0.2-0.6s-0.4-0.2-0.7-0.2c-0.2,0-0.4,0-0.7,0.1s-0.4,0.2-0.7,0.4
		l-0.3-0.7c0.5-0.4,1.1-0.5,1.7-0.5c0.6,0,1.1,0.1,1.4,0.4c0.3,0.3,0.5,0.7,0.5,1.3v1.3c0,0.1,0,0.2,0.1,0.2s0.1,0.1,0.2,0.1v0.9
		c-0.2,0-0.3,0.1-0.5,0.1c-0.2,0-0.4,0-0.5-0.1s-0.2-0.2-0.2-0.4l0-0.2c-0.2,0.2-0.4,0.4-0.7,0.6S185.2,453.3,184.9,453.3z
		 M185.2,452.5c0.2,0,0.4,0,0.5-0.1c0.2-0.1,0.3-0.1,0.4-0.3c0.1-0.1,0.2-0.2,0.2-0.3v-0.5c-0.1,0-0.3-0.1-0.4-0.1s-0.3,0-0.4,0
		c-0.3,0-0.5,0.1-0.7,0.2c-0.2,0.1-0.3,0.3-0.3,0.5c0,0.2,0.1,0.3,0.2,0.5C184.8,452.4,185,452.5,185.2,452.5z"/>
	<path class="st3" d="M190.8,449.9c-0.3,0-0.6,0.1-0.9,0.2c-0.3,0.1-0.4,0.3-0.6,0.5v2.5h-1.1V449h1v0.9c0.1-0.1,0.2-0.3,0.3-0.4
		c0.1-0.1,0.2-0.2,0.3-0.3c0.1-0.1,0.2-0.2,0.4-0.2c0.1,0,0.2-0.1,0.3-0.1c0.1,0,0.1,0,0.1,0s0.1,0,0.1,0V449.9z"/>
	<path class="st3" d="M194.3,453.2l-1.2-1.8l-0.6,0.6v1.2h-1.1v-5.8h1.1v3.5l1.7-1.9h1.1l-1.6,1.8l1.7,2.4H194.3z"/>
	<path class="st3" d="M197.6,453.3c-0.3,0-0.6-0.1-0.9-0.2c-0.3-0.1-0.5-0.3-0.7-0.5c-0.2-0.2-0.3-0.4-0.4-0.7
		c-0.1-0.3-0.2-0.5-0.2-0.8c0-0.3,0.1-0.6,0.2-0.8c0.1-0.3,0.2-0.5,0.4-0.7s0.4-0.4,0.7-0.5c0.3-0.1,0.6-0.2,0.9-0.2
		s0.6,0.1,0.9,0.2s0.5,0.3,0.7,0.5s0.3,0.4,0.4,0.7c0.1,0.3,0.1,0.5,0.1,0.8c0,0.1,0,0.1,0,0.2c0,0.1,0,0.1,0,0.2h-3.2
		c0,0.2,0.1,0.3,0.1,0.4s0.1,0.2,0.2,0.3c0.1,0.1,0.2,0.2,0.3,0.2c0.1,0,0.3,0.1,0.4,0.1c0.2,0,0.4-0.1,0.6-0.2
		c0.2-0.1,0.3-0.2,0.4-0.4l0.9,0.3c-0.2,0.3-0.4,0.6-0.7,0.8C198.5,453.2,198.1,453.3,197.6,453.3z M198.7,450.8
		c0-0.3-0.1-0.6-0.3-0.8c-0.2-0.2-0.5-0.3-0.7-0.3c-0.1,0-0.3,0-0.4,0.1c-0.1,0.1-0.2,0.1-0.3,0.2s-0.2,0.2-0.2,0.3
		c-0.1,0.1-0.1,0.3-0.1,0.4H198.7z"/>
	<path class="st3" d="M202.9,453c-0.1,0.1-0.3,0.1-0.5,0.2c-0.2,0.1-0.4,0.1-0.7,0.1c-0.1,0-0.3,0-0.4-0.1s-0.2-0.1-0.3-0.2
		s-0.2-0.2-0.2-0.3s-0.1-0.3-0.1-0.5v-2.4h-0.6V449h0.6v-1.4h1.1v1.4h0.9v0.8h-0.9v2c0,0.1,0,0.3,0.1,0.3s0.2,0.1,0.3,0.1
		s0.2,0,0.3-0.1c0.1,0,0.2-0.1,0.3-0.1L202.9,453z"/>
</g>
<g>
	<path class="st3" d="M250.7,449.9c-0.3,0-0.6,0.1-0.9,0.2c-0.3,0.1-0.4,0.3-0.6,0.5v2.5h-1.1V449h1v0.9c0.1-0.1,0.2-0.3,0.3-0.4
		c0.1-0.1,0.2-0.2,0.3-0.3c0.1-0.1,0.2-0.2,0.4-0.2c0.1,0,0.2-0.1,0.3-0.1c0.1,0,0.1,0,0.1,0s0.1,0,0.1,0V449.9z"/>
	<path class="st3" d="M252.5,453.3c-0.4,0-0.8-0.1-1-0.4s-0.3-0.7-0.3-1.2V449h1.1v2.4c0,0.6,0.2,1,0.7,1c0.2,0,0.4-0.1,0.6-0.2
		c0.2-0.1,0.4-0.3,0.5-0.6V449h1.1v3c0,0.1,0,0.2,0.1,0.2c0,0,0.1,0.1,0.2,0.1v0.9c-0.1,0-0.2,0-0.3,0c-0.1,0-0.1,0-0.2,0
		c-0.2,0-0.3,0-0.5-0.1s-0.2-0.2-0.2-0.4l0-0.3c-0.2,0.3-0.4,0.5-0.7,0.6C253.2,453.2,252.9,453.3,252.5,453.3z"/>
	<path class="st3" d="M260.1,453.2H259v-2.4c0-0.3-0.1-0.6-0.2-0.7c-0.1-0.2-0.3-0.2-0.5-0.2c-0.1,0-0.2,0-0.3,0.1
		c-0.1,0-0.2,0.1-0.3,0.2s-0.2,0.2-0.3,0.3c-0.1,0.1-0.1,0.2-0.2,0.4v2.4h-1.1V449h1v0.8c0.2-0.3,0.4-0.5,0.7-0.6
		c0.3-0.1,0.6-0.2,1-0.2c0.3,0,0.5,0,0.6,0.1s0.3,0.2,0.4,0.4s0.2,0.3,0.2,0.5c0,0.2,0.1,0.4,0.1,0.6V453.2z"/>
	<path class="st3" d="M261,451.5v-1h2.4v1H261z"/>
	<path class="st3" d="M264.4,447.4h1.1v4.5c0,0.2,0,0.3,0.1,0.4c0.1,0.1,0.2,0.1,0.3,0.1c0.1,0,0.1,0,0.2,0c0.1,0,0.2,0,0.2-0.1
		l0.1,0.8c-0.1,0.1-0.3,0.1-0.5,0.2s-0.4,0.1-0.5,0.1c-0.3,0-0.6-0.1-0.8-0.3c-0.2-0.2-0.3-0.4-0.3-0.8V447.4z"/>
	<path class="st3" d="M266.9,448.4v-1.1h1.1v1.1H266.9z M266.9,453.2V449h1.1v4.2H266.9z"/>
	<path class="st3" d="M270.5,453.3c-0.4,0-0.7-0.1-1-0.2c-0.3-0.1-0.6-0.3-0.9-0.5l0.4-0.7c0.3,0.2,0.5,0.3,0.7,0.4
		c0.2,0.1,0.5,0.1,0.7,0.1c0.2,0,0.4,0,0.5-0.1c0.1-0.1,0.2-0.2,0.2-0.3s-0.1-0.3-0.2-0.3c-0.1-0.1-0.4-0.1-0.7-0.2
		c-0.3-0.1-0.5-0.1-0.7-0.2c-0.2-0.1-0.3-0.1-0.5-0.2s-0.2-0.2-0.3-0.3c-0.1-0.1-0.1-0.3-0.1-0.4c0-0.2,0-0.4,0.1-0.6
		c0.1-0.2,0.2-0.3,0.3-0.4s0.3-0.2,0.5-0.3c0.2-0.1,0.4-0.1,0.7-0.1c0.3,0,0.6,0,0.9,0.1c0.3,0.1,0.5,0.2,0.8,0.4l-0.4,0.6
		c-0.2-0.2-0.4-0.3-0.6-0.4c-0.2-0.1-0.4-0.1-0.6-0.1c-0.2,0-0.3,0-0.5,0.1c-0.1,0.1-0.2,0.2-0.2,0.4c0,0.1,0,0.1,0,0.2
		s0.1,0.1,0.1,0.1c0.1,0,0.1,0.1,0.3,0.1c0.1,0,0.2,0.1,0.4,0.1c0.3,0.1,0.5,0.1,0.7,0.2c0.2,0.1,0.4,0.2,0.5,0.3
		c0.1,0.1,0.2,0.2,0.3,0.3c0.1,0.1,0.1,0.3,0.1,0.5c0,0.4-0.2,0.7-0.5,1C271.5,453.2,271.1,453.3,270.5,453.3z"/>
	<path class="st3" d="M275.5,453c-0.1,0.1-0.3,0.1-0.5,0.2c-0.2,0.1-0.4,0.1-0.7,0.1c-0.1,0-0.3,0-0.4-0.1s-0.2-0.1-0.3-0.2
		s-0.2-0.2-0.2-0.3s-0.1-0.3-0.1-0.5v-2.4h-0.6V449h0.6v-1.4h1.1v1.4h0.9v0.8h-0.9v2c0,0.1,0,0.3,0.1,0.3s0.2,0.1,0.3,0.1
		c0.1,0,0.2,0,0.3-0.1c0.1,0,0.2-0.1,0.3-0.1L275.5,453z"/>
</g>
<g>
	<path class="st3" d="M336.4,453.3c-0.3,0-0.6-0.1-0.9-0.2c-0.2-0.1-0.4-0.3-0.6-0.6v2.4h-1.1V449h0.9v0.7c0.2-0.2,0.4-0.4,0.6-0.6
		c0.2-0.1,0.5-0.2,0.8-0.2c0.3,0,0.5,0.1,0.8,0.2c0.2,0.1,0.4,0.3,0.6,0.5c0.2,0.2,0.3,0.4,0.4,0.7c0.1,0.3,0.1,0.5,0.1,0.8
		c0,0.3,0,0.6-0.1,0.9c-0.1,0.3-0.2,0.5-0.4,0.7c-0.2,0.2-0.4,0.4-0.6,0.5C336.9,453.2,336.7,453.3,336.4,453.3z M336.1,452.4
		c0.2,0,0.3,0,0.4-0.1s0.3-0.2,0.3-0.3s0.2-0.3,0.2-0.4c0.1-0.2,0.1-0.3,0.1-0.5c0-0.2,0-0.3-0.1-0.5c-0.1-0.2-0.1-0.3-0.2-0.4
		c-0.1-0.1-0.2-0.2-0.4-0.3c-0.1-0.1-0.3-0.1-0.5-0.1c-0.1,0-0.2,0-0.3,0.1c-0.1,0-0.2,0.1-0.3,0.1c-0.1,0.1-0.2,0.1-0.2,0.2
		c-0.1,0.1-0.1,0.2-0.2,0.3v1c0.1,0.2,0.2,0.4,0.4,0.6S335.8,452.4,336.1,452.4z"/>
	<path class="st3" d="M340.9,453.3c-0.3,0-0.6-0.1-0.9-0.2c-0.3-0.1-0.5-0.3-0.7-0.5s-0.3-0.4-0.4-0.7c-0.1-0.3-0.2-0.5-0.2-0.8
		c0-0.3,0-0.6,0.2-0.8c0.1-0.3,0.2-0.5,0.4-0.7s0.4-0.4,0.7-0.5c0.3-0.1,0.6-0.2,0.9-0.2c0.3,0,0.6,0.1,0.9,0.2
		c0.3,0.1,0.5,0.3,0.7,0.5s0.3,0.4,0.4,0.7c0.1,0.3,0.2,0.5,0.2,0.8c0,0.3-0.1,0.6-0.2,0.8c-0.1,0.3-0.2,0.5-0.4,0.7
		s-0.4,0.4-0.7,0.5C341.6,453.2,341.3,453.3,340.9,453.3z M339.8,451.1c0,0.2,0,0.4,0.1,0.5c0.1,0.2,0.1,0.3,0.2,0.4
		c0.1,0.1,0.2,0.2,0.3,0.3c0.1,0.1,0.3,0.1,0.4,0.1c0.2,0,0.3,0,0.4-0.1c0.1-0.1,0.2-0.1,0.3-0.3c0.1-0.1,0.2-0.2,0.2-0.4
		c0.1-0.2,0.1-0.3,0.1-0.5c0-0.2,0-0.3-0.1-0.5c-0.1-0.2-0.1-0.3-0.2-0.4c-0.1-0.1-0.2-0.2-0.3-0.3c-0.1-0.1-0.3-0.1-0.4-0.1
		c-0.2,0-0.3,0-0.4,0.1c-0.1,0.1-0.2,0.2-0.3,0.3s-0.2,0.2-0.2,0.4C339.9,450.8,339.8,450.9,339.8,451.1z"/>
	<path class="st3" d="M343.8,447.4h1.1v4.5c0,0.2,0,0.3,0.1,0.4c0.1,0.1,0.2,0.1,0.3,0.1c0.1,0,0.1,0,0.2,0c0.1,0,0.2,0,0.2-0.1
		l0.1,0.8c-0.1,0.1-0.3,0.1-0.5,0.2s-0.4,0.1-0.5,0.1c-0.3,0-0.6-0.1-0.8-0.3c-0.2-0.2-0.3-0.4-0.3-0.8V447.4z"/>
	<path class="st3" d="M346.4,448.4v-1.1h1.1v1.1H346.4z M346.4,453.2V449h1.1v4.2H346.4z"/>
	<path class="st3" d="M348.1,451.1c0-0.3,0-0.6,0.2-0.8c0.1-0.3,0.2-0.5,0.4-0.7c0.2-0.2,0.4-0.4,0.7-0.5c0.3-0.1,0.6-0.2,0.9-0.2
		c0.5,0,0.8,0.1,1.2,0.3c0.3,0.2,0.6,0.5,0.7,0.8l-1,0.3c-0.1-0.2-0.2-0.3-0.4-0.4c-0.1-0.1-0.3-0.1-0.5-0.1c-0.2,0-0.3,0-0.4,0.1
		c-0.1,0.1-0.2,0.1-0.3,0.3s-0.2,0.2-0.2,0.4c-0.1,0.2-0.1,0.3-0.1,0.5c0,0.2,0,0.4,0.1,0.5c0.1,0.2,0.1,0.3,0.2,0.4
		c0.1,0.1,0.2,0.2,0.3,0.3c0.1,0.1,0.3,0.1,0.4,0.1c0.2,0,0.4,0,0.5-0.1c0.2-0.1,0.3-0.2,0.3-0.4l1,0.3c-0.1,0.3-0.4,0.6-0.7,0.8
		c-0.3,0.2-0.7,0.3-1.2,0.3c-0.3,0-0.6-0.1-0.9-0.2c-0.3-0.1-0.5-0.3-0.7-0.5s-0.3-0.4-0.4-0.7C348.2,451.7,348.1,451.4,348.1,451.1
		z"/>
	<path class="st3" d="M353,454c0.1,0,0.2,0,0.3,0.1c0.1,0,0.2,0,0.2,0c0.1,0,0.1,0,0.2,0c0.1,0,0.1-0.1,0.2-0.1s0.1-0.2,0.1-0.3
		c0-0.1,0.1-0.3,0.2-0.4l-1.7-4.2h1.1l1.1,3.3l1-3.3h1l-1.8,5c-0.1,0.3-0.3,0.5-0.5,0.7s-0.5,0.3-0.9,0.3c-0.1,0-0.2,0-0.3,0
		c-0.1,0-0.2,0-0.3-0.1V454z"/>
</g>
<g>
	<path class="st3" d="M73.6,368.7c0-0.3,0.1-0.6,0.2-0.8c0.1-0.3,0.2-0.5,0.4-0.7s0.4-0.4,0.7-0.5s0.6-0.2,0.9-0.2
		c0.5,0,0.8,0.1,1.2,0.3s0.6,0.5,0.7,0.8l-1,0.3c-0.1-0.2-0.2-0.3-0.4-0.4c-0.1-0.1-0.3-0.1-0.5-0.1c-0.2,0-0.3,0-0.4,0.1
		c-0.1,0.1-0.2,0.1-0.3,0.3s-0.2,0.2-0.2,0.4c-0.1,0.2-0.1,0.3-0.1,0.5c0,0.2,0,0.4,0.1,0.5s0.1,0.3,0.2,0.4
		c0.1,0.1,0.2,0.2,0.3,0.3s0.3,0.1,0.4,0.1c0.2,0,0.4,0,0.5-0.1s0.3-0.2,0.3-0.4l1,0.3c-0.1,0.3-0.4,0.6-0.7,0.8
		c-0.3,0.2-0.7,0.3-1.2,0.3c-0.3,0-0.6-0.1-0.9-0.2c-0.3-0.1-0.5-0.3-0.7-0.5c-0.2-0.2-0.3-0.4-0.4-0.7
		C73.6,369.3,73.6,369,73.6,368.7z"/>
	<path class="st3" d="M80.2,370.9c-0.3,0-0.6-0.1-0.9-0.2c-0.3-0.1-0.5-0.3-0.7-0.5c-0.2-0.2-0.3-0.4-0.4-0.7
		c-0.1-0.3-0.2-0.5-0.2-0.8c0-0.3,0.1-0.6,0.2-0.8c0.1-0.3,0.2-0.5,0.4-0.7c0.2-0.2,0.4-0.4,0.7-0.5s0.6-0.2,0.9-0.2
		s0.6,0.1,0.9,0.2c0.3,0.1,0.5,0.3,0.7,0.5c0.2,0.2,0.3,0.4,0.4,0.7c0.1,0.3,0.2,0.5,0.2,0.8c0,0.3-0.1,0.6-0.2,0.8
		c-0.1,0.3-0.2,0.5-0.4,0.7c-0.2,0.2-0.4,0.4-0.7,0.5C80.9,370.9,80.6,370.9,80.2,370.9z M79.1,368.7c0,0.2,0,0.4,0.1,0.5
		c0.1,0.2,0.1,0.3,0.2,0.4c0.1,0.1,0.2,0.2,0.3,0.3c0.1,0.1,0.3,0.1,0.4,0.1s0.3,0,0.4-0.1s0.2-0.1,0.3-0.3c0.1-0.1,0.2-0.2,0.2-0.4
		s0.1-0.3,0.1-0.5c0-0.2,0-0.3-0.1-0.5c-0.1-0.2-0.1-0.3-0.2-0.4s-0.2-0.2-0.3-0.3s-0.3-0.1-0.4-0.1s-0.3,0-0.4,0.1
		c-0.1,0.1-0.2,0.2-0.3,0.3s-0.2,0.2-0.2,0.4C79.2,368.4,79.1,368.6,79.1,368.7z"/>
	<path class="st3" d="M85.1,370.9c-0.3,0-0.6-0.1-0.9-0.2c-0.3-0.1-0.5-0.3-0.7-0.5c-0.2-0.2-0.3-0.4-0.4-0.7
		c-0.1-0.3-0.2-0.5-0.2-0.8c0-0.3,0.1-0.6,0.2-0.8c0.1-0.3,0.2-0.5,0.4-0.7c0.2-0.2,0.4-0.4,0.7-0.5s0.6-0.2,0.9-0.2
		s0.6,0.1,0.9,0.2c0.3,0.1,0.5,0.3,0.7,0.5c0.2,0.2,0.3,0.4,0.4,0.7c0.1,0.3,0.2,0.5,0.2,0.8c0,0.3-0.1,0.6-0.2,0.8
		c-0.1,0.3-0.2,0.5-0.4,0.7c-0.2,0.2-0.4,0.4-0.7,0.5C85.7,370.9,85.4,370.9,85.1,370.9z M84,368.7c0,0.2,0,0.4,0.1,0.5
		c0.1,0.2,0.1,0.3,0.2,0.4c0.1,0.1,0.2,0.2,0.3,0.3c0.1,0.1,0.3,0.1,0.4,0.1s0.3,0,0.4-0.1s0.2-0.1,0.3-0.3c0.1-0.1,0.2-0.2,0.2-0.4
		s0.1-0.3,0.1-0.5c0-0.2,0-0.3-0.1-0.5c-0.1-0.2-0.1-0.3-0.2-0.4s-0.2-0.2-0.3-0.3s-0.3-0.1-0.4-0.1s-0.3,0-0.4,0.1
		c-0.1,0.1-0.2,0.2-0.3,0.3s-0.2,0.2-0.2,0.4C84,368.4,84,368.6,84,368.7z"/>
	<path class="st3" d="M90.9,370.8l-1.2-1.8l-0.6,0.6v1.2H88V365h1.1v3.5l1.7-1.9h1.1l-1.6,1.8l1.7,2.4H90.9z"/>
	<path class="st3" d="M94.8,370.9c-0.3,0-0.6-0.1-0.9-0.2c-0.3-0.1-0.4-0.3-0.6-0.6v0.7h-0.9V365h1.1v2.4c0.1-0.3,0.3-0.5,0.6-0.6
		c0.2-0.1,0.5-0.2,0.9-0.2c0.3,0,0.5,0.1,0.7,0.2c0.2,0.1,0.4,0.3,0.6,0.5c0.2,0.2,0.3,0.4,0.4,0.7c0.1,0.3,0.1,0.5,0.1,0.8
		c0,0.3,0,0.6-0.1,0.8c-0.1,0.3-0.2,0.5-0.4,0.7c-0.2,0.2-0.4,0.3-0.6,0.5C95.4,370.9,95.1,370.9,94.8,370.9z M94.5,370
		c0.2,0,0.3,0,0.5-0.1c0.1-0.1,0.3-0.2,0.4-0.3c0.1-0.1,0.2-0.2,0.2-0.4c0.1-0.1,0.1-0.3,0.1-0.5c0-0.2,0-0.3-0.1-0.5
		c-0.1-0.2-0.1-0.3-0.2-0.4c-0.1-0.1-0.2-0.2-0.3-0.3s-0.3-0.1-0.4-0.1c-0.2,0-0.5,0.1-0.6,0.2c-0.2,0.2-0.3,0.4-0.4,0.6v1
		c0,0.1,0.1,0.2,0.2,0.3c0.1,0.1,0.2,0.2,0.2,0.2c0.1,0.1,0.2,0.1,0.3,0.1C94.3,370,94.4,370,94.5,370z"/>
	<path class="st3" d="M99.5,370.9c-0.3,0-0.6-0.1-0.9-0.2c-0.3-0.1-0.5-0.3-0.7-0.5c-0.2-0.2-0.3-0.4-0.4-0.7
		c-0.1-0.3-0.2-0.5-0.2-0.8c0-0.3,0.1-0.6,0.2-0.8c0.1-0.3,0.2-0.5,0.4-0.7c0.2-0.2,0.4-0.4,0.7-0.5s0.6-0.2,0.9-0.2
		s0.6,0.1,0.9,0.2c0.3,0.1,0.5,0.3,0.7,0.5c0.2,0.2,0.3,0.4,0.4,0.7c0.1,0.3,0.2,0.5,0.2,0.8c0,0.3-0.1,0.6-0.2,0.8
		c-0.1,0.3-0.2,0.5-0.4,0.7c-0.2,0.2-0.4,0.4-0.7,0.5C100.1,370.9,99.8,370.9,99.5,370.9z M98.4,368.7c0,0.2,0,0.4,0.1,0.5
		c0.1,0.2,0.1,0.3,0.2,0.4c0.1,0.1,0.2,0.2,0.3,0.3c0.1,0.1,0.3,0.1,0.4,0.1s0.3,0,0.4-0.1s0.2-0.1,0.3-0.3c0.1-0.1,0.2-0.2,0.2-0.4
		s0.1-0.3,0.1-0.5c0-0.2,0-0.3-0.1-0.5c-0.1-0.2-0.1-0.3-0.2-0.4s-0.2-0.2-0.3-0.3s-0.3-0.1-0.4-0.1s-0.3,0-0.4,0.1
		c-0.1,0.1-0.2,0.2-0.3,0.3s-0.2,0.2-0.2,0.4C98.4,368.4,98.4,368.6,98.4,368.7z"/>
	<path class="st3" d="M104.3,370.9c-0.3,0-0.6-0.1-0.9-0.2c-0.3-0.1-0.5-0.3-0.7-0.5c-0.2-0.2-0.3-0.4-0.4-0.7
		c-0.1-0.3-0.2-0.5-0.2-0.8c0-0.3,0.1-0.6,0.2-0.8c0.1-0.3,0.2-0.5,0.4-0.7c0.2-0.2,0.4-0.4,0.7-0.5s0.6-0.2,0.9-0.2
		s0.6,0.1,0.9,0.2c0.3,0.1,0.5,0.3,0.7,0.5c0.2,0.2,0.3,0.4,0.4,0.7c0.1,0.3,0.2,0.5,0.2,0.8c0,0.3-0.1,0.6-0.2,0.8
		c-0.1,0.3-0.2,0.5-0.4,0.7c-0.2,0.2-0.4,0.4-0.7,0.5C105,370.9,104.7,370.9,104.3,370.9z M103.2,368.7c0,0.2,0,0.4,0.1,0.5
		c0.1,0.2,0.1,0.3,0.2,0.4c0.1,0.1,0.2,0.2,0.3,0.3c0.1,0.1,0.3,0.1,0.4,0.1s0.3,0,0.4-0.1s0.2-0.1,0.3-0.3c0.1-0.1,0.2-0.2,0.2-0.4
		s0.1-0.3,0.1-0.5c0-0.2,0-0.3-0.1-0.5c-0.1-0.2-0.1-0.3-0.2-0.4s-0.2-0.2-0.3-0.3s-0.3-0.1-0.4-0.1s-0.3,0-0.4,0.1
		c-0.1,0.1-0.2,0.2-0.3,0.3s-0.2,0.2-0.2,0.4C103.2,368.4,103.2,368.6,103.2,368.7z"/>
	<path class="st3" d="M110.1,370.8l-1.2-1.8l-0.6,0.6v1.2h-1.1V365h1.1v3.5l1.7-1.9h1.1l-1.6,1.8l1.7,2.4H110.1z"/>
	<path class="st3" d="M113.3,370.9c-0.4,0-0.7-0.1-1-0.2s-0.6-0.3-0.9-0.5l0.4-0.7c0.3,0.2,0.5,0.3,0.7,0.4c0.2,0.1,0.5,0.1,0.7,0.1
		c0.2,0,0.4,0,0.5-0.1c0.1-0.1,0.2-0.2,0.2-0.3c0-0.2-0.1-0.3-0.2-0.3c-0.1-0.1-0.4-0.2-0.7-0.2c-0.3-0.1-0.5-0.1-0.7-0.2
		c-0.2-0.1-0.3-0.1-0.5-0.2c-0.1-0.1-0.2-0.2-0.3-0.3c-0.1-0.1-0.1-0.3-0.1-0.4c0-0.2,0-0.4,0.1-0.6c0.1-0.2,0.2-0.3,0.3-0.4
		c0.1-0.1,0.3-0.2,0.5-0.3c0.2-0.1,0.4-0.1,0.7-0.1c0.3,0,0.6,0,0.9,0.1c0.3,0.1,0.5,0.2,0.8,0.4l-0.4,0.6c-0.2-0.2-0.4-0.3-0.6-0.4
		c-0.2-0.1-0.4-0.1-0.6-0.1c-0.2,0-0.3,0-0.5,0.1c-0.1,0.1-0.2,0.2-0.2,0.4c0,0.1,0,0.1,0,0.2c0,0,0.1,0.1,0.1,0.1s0.1,0.1,0.3,0.1
		s0.2,0.1,0.4,0.1c0.3,0.1,0.5,0.2,0.7,0.2c0.2,0.1,0.4,0.2,0.5,0.3c0.1,0.1,0.2,0.2,0.3,0.3c0.1,0.1,0.1,0.3,0.1,0.5
		c0,0.4-0.2,0.7-0.5,1C114.2,370.8,113.8,370.9,113.3,370.9z"/>
</g>
<g>
	<path class="st3" d="M160.8,370.9c-0.3,0-0.6-0.1-0.8-0.2c-0.2-0.1-0.5-0.3-0.6-0.5s-0.3-0.4-0.4-0.7c-0.1-0.3-0.1-0.5-0.1-0.9
		c0-0.3,0-0.6,0.1-0.8c0.1-0.3,0.2-0.5,0.4-0.7c0.2-0.2,0.4-0.4,0.6-0.5c0.2-0.1,0.5-0.2,0.8-0.2c0.3,0,0.6,0.1,0.8,0.2
		s0.4,0.3,0.6,0.6V365h1.1v4.6c0,0.1,0,0.2,0.1,0.2s0.1,0.1,0.2,0.1v0.9c-0.2,0-0.3,0.1-0.5,0.1c-0.2,0-0.3,0-0.5-0.1
		c-0.1-0.1-0.2-0.2-0.2-0.4l0-0.3c-0.2,0.3-0.4,0.5-0.6,0.6C161.4,370.8,161.1,370.9,160.8,370.9z M161.1,370c0.1,0,0.2,0,0.3-0.1
		c0.1,0,0.2-0.1,0.3-0.1c0.1-0.1,0.2-0.1,0.2-0.2c0.1-0.1,0.1-0.2,0.2-0.3v-1c0-0.1-0.1-0.2-0.2-0.3c-0.1-0.1-0.2-0.2-0.3-0.3
		c-0.1-0.1-0.2-0.1-0.3-0.2c-0.1,0-0.2-0.1-0.3-0.1c-0.2,0-0.3,0-0.4,0.1c-0.1,0.1-0.3,0.2-0.3,0.3c-0.1,0.1-0.2,0.3-0.2,0.4
		s-0.1,0.3-0.1,0.5c0,0.2,0,0.3,0.1,0.5c0.1,0.1,0.1,0.3,0.2,0.4c0.1,0.1,0.2,0.2,0.4,0.3C160.8,370,160.9,370,161.1,370z"/>
	<path class="st3" d="M165.4,370.9c-0.2,0-0.4,0-0.6-0.1c-0.2-0.1-0.3-0.2-0.5-0.3c-0.1-0.1-0.2-0.3-0.3-0.4
		c-0.1-0.2-0.1-0.3-0.1-0.5c0-0.2,0-0.4,0.1-0.5s0.2-0.3,0.4-0.4c0.2-0.1,0.3-0.2,0.6-0.3c0.2-0.1,0.5-0.1,0.7-0.1
		c0.2,0,0.4,0,0.5,0c0.2,0,0.3,0.1,0.5,0.1v-0.2c0-0.3-0.1-0.5-0.2-0.6s-0.4-0.2-0.7-0.2c-0.2,0-0.4,0-0.7,0.1s-0.4,0.2-0.7,0.4
		l-0.3-0.7c0.5-0.4,1.1-0.5,1.7-0.5c0.6,0,1.1,0.1,1.4,0.4c0.3,0.3,0.5,0.7,0.5,1.3v1.3c0,0.1,0,0.2,0.1,0.2s0.1,0.1,0.2,0.1v0.9
		c-0.2,0-0.3,0.1-0.5,0.1c-0.2,0-0.4,0-0.5-0.1s-0.2-0.2-0.2-0.4l0-0.2c-0.2,0.2-0.4,0.4-0.7,0.6C166,370.8,165.7,370.9,165.4,370.9
		z M165.7,370.1c0.2,0,0.4,0,0.5-0.1c0.2-0.1,0.3-0.1,0.4-0.3c0.1-0.1,0.2-0.2,0.2-0.3V369c-0.1,0-0.3-0.1-0.4-0.1s-0.3,0-0.4,0
		c-0.3,0-0.5,0.1-0.7,0.2s-0.3,0.3-0.3,0.5c0,0.2,0.1,0.3,0.2,0.5C165.3,370.1,165.5,370.1,165.7,370.1z"/>
	<path class="st3" d="M171.3,370.6c-0.1,0.1-0.3,0.1-0.5,0.2c-0.2,0.1-0.4,0.1-0.7,0.1c-0.1,0-0.3,0-0.4-0.1c-0.1,0-0.2-0.1-0.3-0.2
		s-0.2-0.2-0.2-0.3s-0.1-0.3-0.1-0.5v-2.4h-0.6v-0.8h0.6v-1.4h1.1v1.4h0.9v0.8h-0.9v2c0,0.1,0,0.3,0.1,0.3s0.2,0.1,0.3,0.1
		c0.1,0,0.2,0,0.3-0.1c0.1,0,0.2-0.1,0.3-0.1L171.3,370.6z"/>
	<path class="st3" d="M173,370.9c-0.2,0-0.4,0-0.6-0.1c-0.2-0.1-0.3-0.2-0.5-0.3c-0.1-0.1-0.2-0.3-0.3-0.4c-0.1-0.2-0.1-0.3-0.1-0.5
		c0-0.2,0-0.4,0.1-0.5s0.2-0.3,0.4-0.4c0.2-0.1,0.3-0.2,0.6-0.3c0.2-0.1,0.5-0.1,0.7-0.1c0.2,0,0.4,0,0.5,0c0.2,0,0.3,0.1,0.5,0.1
		v-0.2c0-0.3-0.1-0.5-0.2-0.6s-0.4-0.2-0.7-0.2c-0.2,0-0.4,0-0.7,0.1s-0.4,0.2-0.7,0.4l-0.3-0.7c0.5-0.4,1.1-0.5,1.7-0.5
		c0.6,0,1.1,0.1,1.4,0.4c0.3,0.3,0.5,0.7,0.5,1.3v1.3c0,0.1,0,0.2,0.1,0.2s0.1,0.1,0.2,0.1v0.9c-0.2,0-0.3,0.1-0.5,0.1
		c-0.2,0-0.4,0-0.5-0.1s-0.2-0.2-0.2-0.4l0-0.2c-0.2,0.2-0.4,0.4-0.7,0.6C173.6,370.8,173.3,370.9,173,370.9z M173.3,370.1
		c0.2,0,0.4,0,0.5-0.1c0.2-0.1,0.3-0.1,0.4-0.3c0.1-0.1,0.2-0.2,0.2-0.3V369c-0.1,0-0.3-0.1-0.4-0.1s-0.3,0-0.4,0
		c-0.3,0-0.5,0.1-0.7,0.2s-0.3,0.3-0.3,0.5c0,0.2,0.1,0.3,0.2,0.5C173,370.1,173.1,370.1,173.3,370.1z"/>
	<path class="st3" d="M180,370.9c-0.4,0-0.7-0.1-1-0.2s-0.6-0.3-0.9-0.5l0.4-0.7c0.3,0.2,0.5,0.3,0.7,0.4c0.2,0.1,0.5,0.1,0.7,0.1
		c0.2,0,0.4,0,0.5-0.1c0.1-0.1,0.2-0.2,0.2-0.3c0-0.2-0.1-0.3-0.2-0.3c-0.1-0.1-0.4-0.2-0.7-0.2c-0.3-0.1-0.5-0.1-0.7-0.2
		c-0.2-0.1-0.3-0.1-0.5-0.2c-0.1-0.1-0.2-0.2-0.3-0.3c-0.1-0.1-0.1-0.3-0.1-0.4c0-0.2,0-0.4,0.1-0.6c0.1-0.2,0.2-0.3,0.3-0.4
		c0.1-0.1,0.3-0.2,0.5-0.3c0.2-0.1,0.4-0.1,0.7-0.1c0.3,0,0.6,0,0.9,0.1c0.3,0.1,0.5,0.2,0.8,0.4l-0.4,0.6c-0.2-0.2-0.4-0.3-0.6-0.4
		c-0.2-0.1-0.4-0.1-0.6-0.1c-0.2,0-0.3,0-0.5,0.1c-0.1,0.1-0.2,0.2-0.2,0.4c0,0.1,0,0.1,0,0.2c0,0,0.1,0.1,0.1,0.1s0.1,0.1,0.3,0.1
		s0.2,0.1,0.4,0.1c0.3,0.1,0.5,0.2,0.7,0.2c0.2,0.1,0.4,0.2,0.5,0.3c0.1,0.1,0.2,0.2,0.3,0.3c0.1,0.1,0.1,0.3,0.1,0.5
		c0,0.4-0.2,0.7-0.5,1C180.9,370.8,180.5,370.9,180,370.9z"/>
	<path class="st3" d="M184.9,370.6c-0.1,0.1-0.3,0.1-0.5,0.2c-0.2,0.1-0.4,0.1-0.7,0.1c-0.1,0-0.3,0-0.4-0.1c-0.1,0-0.2-0.1-0.3-0.2
		s-0.2-0.2-0.2-0.3s-0.1-0.3-0.1-0.5v-2.4h-0.6v-0.8h0.6v-1.4h1.1v1.4h0.9v0.8h-0.9v2c0,0.1,0,0.3,0.1,0.3s0.2,0.1,0.3,0.1
		c0.1,0,0.2,0,0.3-0.1c0.1,0,0.2-0.1,0.3-0.1L184.9,370.6z"/>
	<path class="st3" d="M187.3,370.9c-0.3,0-0.6-0.1-0.9-0.2c-0.3-0.1-0.5-0.3-0.7-0.5c-0.2-0.2-0.3-0.4-0.4-0.7
		c-0.1-0.3-0.2-0.5-0.2-0.8c0-0.3,0.1-0.6,0.2-0.8c0.1-0.3,0.2-0.5,0.4-0.7c0.2-0.2,0.4-0.4,0.7-0.5s0.6-0.2,0.9-0.2
		s0.6,0.1,0.9,0.2c0.3,0.1,0.5,0.3,0.7,0.5c0.2,0.2,0.3,0.4,0.4,0.7c0.1,0.3,0.2,0.5,0.2,0.8c0,0.3-0.1,0.6-0.2,0.8
		c-0.1,0.3-0.2,0.5-0.4,0.7c-0.2,0.2-0.4,0.4-0.7,0.5C187.9,370.9,187.6,370.9,187.3,370.9z M186.2,368.7c0,0.2,0,0.4,0.1,0.5
		c0.1,0.2,0.1,0.3,0.2,0.4c0.1,0.1,0.2,0.2,0.3,0.3c0.1,0.1,0.3,0.1,0.4,0.1s0.3,0,0.4-0.1s0.2-0.1,0.3-0.3c0.1-0.1,0.2-0.2,0.2-0.4
		s0.1-0.3,0.1-0.5c0-0.2,0-0.3-0.1-0.5c-0.1-0.2-0.1-0.3-0.2-0.4s-0.2-0.2-0.3-0.3s-0.3-0.1-0.4-0.1s-0.3,0-0.4,0.1
		c-0.1,0.1-0.2,0.2-0.3,0.3s-0.2,0.2-0.2,0.4C186.2,368.4,186.2,368.6,186.2,368.7z"/>
	<path class="st3" d="M192.7,367.6c-0.3,0-0.6,0.1-0.9,0.2c-0.3,0.1-0.4,0.3-0.6,0.5v2.5h-1.1v-4.2h1v0.9c0.1-0.1,0.2-0.3,0.3-0.4
		c0.1-0.1,0.2-0.2,0.3-0.3c0.1-0.1,0.2-0.2,0.4-0.2c0.1,0,0.2-0.1,0.3-0.1c0.1,0,0.1,0,0.1,0s0.1,0,0.1,0V367.6z"/>
	<path class="st3" d="M195,370.9c-0.3,0-0.6-0.1-0.9-0.2s-0.5-0.3-0.7-0.5c-0.2-0.2-0.3-0.4-0.4-0.7s-0.2-0.5-0.2-0.8
		c0-0.3,0.1-0.6,0.2-0.8c0.1-0.3,0.2-0.5,0.4-0.7c0.2-0.2,0.4-0.4,0.7-0.5c0.3-0.1,0.6-0.2,0.9-0.2s0.6,0.1,0.9,0.2s0.5,0.3,0.7,0.5
		s0.3,0.4,0.4,0.7c0.1,0.3,0.1,0.5,0.1,0.8c0,0.1,0,0.1,0,0.2c0,0.1,0,0.1,0,0.2h-3.2c0,0.2,0.1,0.3,0.1,0.4
		c0.1,0.1,0.1,0.2,0.2,0.3c0.1,0.1,0.2,0.2,0.3,0.2c0.1,0,0.3,0.1,0.4,0.1c0.2,0,0.4-0.1,0.6-0.2c0.2-0.1,0.3-0.2,0.4-0.4l0.9,0.3
		c-0.2,0.3-0.4,0.6-0.7,0.8C195.9,370.8,195.5,370.9,195,370.9z M196.1,368.4c0-0.3-0.1-0.6-0.3-0.8c-0.2-0.2-0.5-0.3-0.7-0.3
		c-0.1,0-0.3,0-0.4,0.1c-0.1,0.1-0.2,0.1-0.3,0.2c-0.1,0.1-0.2,0.2-0.2,0.3c-0.1,0.1-0.1,0.3-0.1,0.4H196.1z"/>
</g>
<g>
	<path class="st3" d="M250.9,370.9c-0.4,0-0.7-0.1-1-0.2s-0.6-0.3-0.9-0.5l0.4-0.7c0.3,0.2,0.5,0.3,0.7,0.4c0.2,0.1,0.5,0.1,0.7,0.1
		c0.2,0,0.4,0,0.5-0.1s0.2-0.2,0.2-0.3c0-0.2-0.1-0.3-0.2-0.3c-0.1-0.1-0.4-0.2-0.7-0.2c-0.3-0.1-0.5-0.1-0.7-0.2
		c-0.2-0.1-0.3-0.1-0.5-0.2c-0.1-0.1-0.2-0.2-0.3-0.3c-0.1-0.1-0.1-0.3-0.1-0.4c0-0.2,0-0.4,0.1-0.6c0.1-0.2,0.2-0.3,0.3-0.4
		c0.1-0.1,0.3-0.2,0.5-0.3c0.2-0.1,0.4-0.1,0.7-0.1c0.3,0,0.6,0,0.9,0.1c0.3,0.1,0.5,0.2,0.8,0.4l-0.4,0.6c-0.2-0.2-0.4-0.3-0.6-0.4
		c-0.2-0.1-0.4-0.1-0.6-0.1c-0.2,0-0.3,0-0.5,0.1c-0.1,0.1-0.2,0.2-0.2,0.4c0,0.1,0,0.1,0,0.2c0,0,0.1,0.1,0.1,0.1
		c0.1,0,0.1,0.1,0.3,0.1c0.1,0,0.2,0.1,0.4,0.1c0.3,0.1,0.5,0.2,0.7,0.2s0.4,0.2,0.5,0.3s0.2,0.2,0.3,0.3s0.1,0.3,0.1,0.5
		c0,0.4-0.2,0.7-0.5,1C251.8,370.8,251.4,370.9,250.9,370.9z"/>
	<path class="st3" d="M255.2,370.9c-0.3,0-0.6-0.1-0.9-0.2c-0.3-0.1-0.5-0.3-0.7-0.5s-0.3-0.4-0.4-0.7c-0.1-0.3-0.2-0.5-0.2-0.8
		c0-0.3,0-0.6,0.2-0.8s0.2-0.5,0.4-0.7c0.2-0.2,0.4-0.4,0.7-0.5c0.3-0.1,0.6-0.2,0.9-0.2c0.3,0,0.6,0.1,0.9,0.2s0.5,0.3,0.7,0.5
		s0.3,0.4,0.4,0.7c0.1,0.3,0.1,0.5,0.1,0.8c0,0.1,0,0.1,0,0.2s0,0.1,0,0.2h-3.2c0,0.2,0.1,0.3,0.1,0.4c0.1,0.1,0.1,0.2,0.2,0.3
		c0.1,0.1,0.2,0.2,0.3,0.2c0.1,0,0.3,0.1,0.4,0.1c0.2,0,0.4-0.1,0.6-0.2c0.2-0.1,0.3-0.2,0.4-0.4l0.9,0.3c-0.2,0.3-0.4,0.6-0.7,0.8
		C256.1,370.8,255.7,370.9,255.2,370.9z M256.3,368.4c0-0.3-0.1-0.6-0.3-0.8c-0.2-0.2-0.5-0.3-0.7-0.3c-0.1,0-0.3,0-0.4,0.1
		c-0.1,0.1-0.2,0.1-0.3,0.2c-0.1,0.1-0.2,0.2-0.2,0.3s-0.1,0.3-0.1,0.4H256.3z"/>
	<path class="st3" d="M259.2,370.9c-0.2,0-0.4,0-0.6-0.1s-0.3-0.2-0.5-0.3c-0.1-0.1-0.2-0.3-0.3-0.4c-0.1-0.2-0.1-0.3-0.1-0.5
		c0-0.2,0-0.4,0.1-0.5s0.2-0.3,0.4-0.4s0.3-0.2,0.6-0.3c0.2-0.1,0.5-0.1,0.7-0.1c0.2,0,0.4,0,0.5,0c0.2,0,0.3,0.1,0.5,0.1v-0.2
		c0-0.3-0.1-0.5-0.2-0.6s-0.4-0.2-0.7-0.2c-0.2,0-0.4,0-0.7,0.1c-0.2,0.1-0.4,0.2-0.7,0.4l-0.3-0.7c0.5-0.4,1.1-0.5,1.7-0.5
		c0.6,0,1.1,0.1,1.4,0.4c0.3,0.3,0.5,0.7,0.5,1.3v1.3c0,0.1,0,0.2,0.1,0.2s0.1,0.1,0.2,0.1v0.9c-0.2,0-0.3,0.1-0.5,0.1
		c-0.2,0-0.4,0-0.5-0.1s-0.2-0.2-0.2-0.4l0-0.2c-0.2,0.2-0.4,0.4-0.7,0.6C259.8,370.8,259.5,370.9,259.2,370.9z M259.5,370.1
		c0.2,0,0.4,0,0.5-0.1s0.3-0.1,0.4-0.3c0.1-0.1,0.2-0.2,0.2-0.3V369c-0.1,0-0.3-0.1-0.4-0.1s-0.3,0-0.4,0c-0.3,0-0.5,0.1-0.7,0.2
		s-0.3,0.3-0.3,0.5c0,0.2,0.1,0.3,0.2,0.5C259.1,370.1,259.3,370.1,259.5,370.1z"/>
	<path class="st3" d="M265.2,367.6c-0.3,0-0.6,0.1-0.9,0.2s-0.4,0.3-0.6,0.5v2.5h-1.1v-4.2h1v0.9c0.1-0.1,0.2-0.3,0.3-0.4
		c0.1-0.1,0.2-0.2,0.3-0.3c0.1-0.1,0.2-0.2,0.4-0.2c0.1,0,0.2-0.1,0.3-0.1c0.1,0,0.1,0,0.1,0s0.1,0,0.1,0V367.6z"/>
	<path class="st3" d="M265.3,368.7c0-0.3,0.1-0.6,0.2-0.8c0.1-0.3,0.2-0.5,0.4-0.7c0.2-0.2,0.4-0.4,0.7-0.5c0.3-0.1,0.6-0.2,0.9-0.2
		c0.5,0,0.8,0.1,1.2,0.3c0.3,0.2,0.6,0.5,0.7,0.8l-1,0.3c-0.1-0.2-0.2-0.3-0.4-0.4c-0.1-0.1-0.3-0.1-0.5-0.1c-0.2,0-0.3,0-0.4,0.1
		c-0.1,0.1-0.2,0.1-0.3,0.3s-0.2,0.2-0.2,0.4c-0.1,0.2-0.1,0.3-0.1,0.5c0,0.2,0,0.4,0.1,0.5s0.1,0.3,0.2,0.4
		c0.1,0.1,0.2,0.2,0.3,0.3c0.1,0.1,0.3,0.1,0.4,0.1c0.2,0,0.4,0,0.5-0.1c0.2-0.1,0.3-0.2,0.3-0.4l1,0.3c-0.1,0.3-0.4,0.6-0.7,0.8
		c-0.3,0.2-0.7,0.3-1.2,0.3c-0.3,0-0.6-0.1-0.9-0.2c-0.3-0.1-0.5-0.3-0.7-0.5c-0.2-0.2-0.3-0.4-0.4-0.7
		C265.3,369.3,265.3,369,265.3,368.7z"/>
	<path class="st3" d="M274,370.8h-1.1v-2.4c0-0.3-0.1-0.6-0.2-0.7c-0.1-0.2-0.3-0.2-0.5-0.2c-0.1,0-0.2,0-0.3,0.1
		c-0.1,0-0.2,0.1-0.3,0.2c-0.1,0.1-0.2,0.2-0.3,0.3c-0.1,0.1-0.1,0.2-0.2,0.4v2.4h-1.1V365h1.1v2.4c0.2-0.3,0.4-0.5,0.6-0.6
		c0.3-0.1,0.6-0.2,0.9-0.2c0.3,0,0.5,0,0.7,0.1s0.3,0.2,0.4,0.4s0.2,0.3,0.2,0.5c0,0.2,0.1,0.4,0.1,0.6V370.8z"/>
</g>
<g>
	<path class="st3" d="M319.3,370.8h-1.1v-2.4c0-0.3-0.1-0.6-0.2-0.7c-0.1-0.2-0.3-0.2-0.5-0.2c-0.1,0-0.2,0-0.3,0.1
		c-0.1,0-0.2,0.1-0.3,0.2c-0.1,0.1-0.2,0.2-0.3,0.3c-0.1,0.1-0.1,0.2-0.2,0.4v2.4h-1.1V365h1.1v2.4c0.2-0.3,0.4-0.5,0.6-0.6
		c0.3-0.1,0.6-0.2,0.9-0.2c0.3,0,0.5,0,0.7,0.1s0.3,0.2,0.4,0.4s0.2,0.3,0.2,0.5c0,0.2,0.1,0.4,0.1,0.6V370.8z"/>
	<path class="st3" d="M320.2,366.1V365h1.1v1.1H320.2z M320.2,370.8v-4.2h1.1v4.2H320.2z"/>
	<path class="st3" d="M323.9,370.9c-0.3,0-0.5-0.1-0.8-0.2c-0.2-0.1-0.4-0.3-0.6-0.5c-0.2-0.2-0.3-0.4-0.4-0.7s-0.1-0.5-0.1-0.8
		c0-0.3,0-0.6,0.1-0.8c0.1-0.3,0.2-0.5,0.4-0.7c0.2-0.2,0.4-0.4,0.6-0.5c0.2-0.1,0.5-0.2,0.8-0.2c0.3,0,0.6,0.1,0.9,0.2
		s0.4,0.3,0.6,0.6v-0.7h0.9v4c0,0.3-0.1,0.6-0.2,0.8c-0.1,0.2-0.3,0.5-0.5,0.6s-0.5,0.3-0.7,0.4c-0.3,0.1-0.6,0.1-0.9,0.1
		c-0.5,0-0.8-0.1-1.2-0.2c-0.3-0.2-0.6-0.4-0.8-0.6l0.6-0.6c0.2,0.2,0.4,0.4,0.6,0.5c0.2,0.1,0.5,0.2,0.8,0.2c0.2,0,0.3,0,0.5-0.1
		c0.2,0,0.3-0.1,0.4-0.2s0.2-0.2,0.3-0.4c0.1-0.1,0.1-0.3,0.1-0.5v-0.5c-0.1,0.2-0.3,0.4-0.6,0.6S324.2,370.9,323.9,370.9z
		 M324.3,370c0.1,0,0.2,0,0.3-0.1c0.1,0,0.2-0.1,0.3-0.2c0.1-0.1,0.2-0.1,0.2-0.2c0.1-0.1,0.1-0.2,0.2-0.3v-1
		c-0.1-0.2-0.2-0.4-0.5-0.6c-0.2-0.1-0.4-0.2-0.6-0.2c-0.2,0-0.3,0-0.4,0.1c-0.1,0.1-0.2,0.2-0.3,0.3s-0.2,0.3-0.2,0.4
		c-0.1,0.2-0.1,0.3-0.1,0.5c0,0.2,0,0.3,0.1,0.5s0.1,0.3,0.2,0.4c0.1,0.1,0.2,0.2,0.4,0.3C324,370,324.1,370,324.3,370z"/>
	<path class="st3" d="M331.2,370.8h-1.1v-2.4c0-0.3-0.1-0.6-0.2-0.7c-0.1-0.2-0.3-0.2-0.5-0.2c-0.1,0-0.2,0-0.3,0.1
		c-0.1,0-0.2,0.1-0.3,0.2c-0.1,0.1-0.2,0.2-0.3,0.3c-0.1,0.1-0.1,0.2-0.2,0.4v2.4h-1.1V365h1.1v2.4c0.2-0.3,0.4-0.5,0.6-0.6
		c0.3-0.1,0.6-0.2,0.9-0.2c0.3,0,0.5,0,0.7,0.1c0.2,0.1,0.3,0.2,0.4,0.4c0.1,0.2,0.2,0.3,0.2,0.5s0.1,0.4,0.1,0.6V370.8z"/>
	<path class="st3" d="M335.2,370.9c-0.2,0-0.4,0-0.6-0.1c-0.2-0.1-0.3-0.2-0.5-0.3c-0.1-0.1-0.2-0.3-0.3-0.4s-0.1-0.3-0.1-0.5
		c0-0.2,0-0.4,0.1-0.5s0.2-0.3,0.4-0.4c0.2-0.1,0.3-0.2,0.6-0.3c0.2-0.1,0.5-0.1,0.7-0.1c0.2,0,0.4,0,0.5,0c0.2,0,0.3,0.1,0.5,0.1
		v-0.2c0-0.3-0.1-0.5-0.2-0.6s-0.4-0.2-0.7-0.2c-0.2,0-0.4,0-0.7,0.1c-0.2,0.1-0.4,0.2-0.7,0.4l-0.3-0.7c0.5-0.4,1.1-0.5,1.7-0.5
		c0.6,0,1.1,0.1,1.4,0.4c0.3,0.3,0.5,0.7,0.5,1.3v1.3c0,0.1,0,0.2,0.1,0.2s0.1,0.1,0.2,0.1v0.9c-0.2,0-0.3,0.1-0.5,0.1
		c-0.2,0-0.4,0-0.5-0.1s-0.2-0.2-0.2-0.4l0-0.2c-0.2,0.2-0.4,0.4-0.7,0.6C335.8,370.8,335.5,370.9,335.2,370.9z M335.5,370.1
		c0.2,0,0.4,0,0.5-0.1c0.2-0.1,0.3-0.1,0.4-0.3c0.1-0.1,0.2-0.2,0.2-0.3V369c-0.1,0-0.3-0.1-0.4-0.1s-0.3,0-0.4,0
		c-0.3,0-0.5,0.1-0.7,0.2s-0.3,0.3-0.3,0.5c0,0.2,0.1,0.3,0.2,0.5C335.2,370.1,335.3,370.1,335.5,370.1z"/>
	<path class="st3" d="M339.7,370.8l-1.5-4.2h1.1l1.1,3.3l1.1-3.3h1l-1.5,4.2H339.7z"/>
	<path class="st3" d="M344,370.9c-0.2,0-0.4,0-0.6-0.1c-0.2-0.1-0.3-0.2-0.5-0.3c-0.1-0.1-0.2-0.3-0.3-0.4s-0.1-0.3-0.1-0.5
		c0-0.2,0-0.4,0.1-0.5s0.2-0.3,0.4-0.4c0.2-0.1,0.3-0.2,0.6-0.3c0.2-0.1,0.5-0.1,0.7-0.1c0.2,0,0.4,0,0.5,0c0.2,0,0.3,0.1,0.5,0.1
		v-0.2c0-0.3-0.1-0.5-0.2-0.6s-0.4-0.2-0.7-0.2c-0.2,0-0.4,0-0.7,0.1c-0.2,0.1-0.4,0.2-0.7,0.4l-0.3-0.7c0.5-0.4,1.1-0.5,1.7-0.5
		c0.6,0,1.1,0.1,1.4,0.4c0.3,0.3,0.5,0.7,0.5,1.3v1.3c0,0.1,0,0.2,0.1,0.2s0.1,0.1,0.2,0.1v0.9c-0.2,0-0.3,0.1-0.5,0.1
		c-0.2,0-0.4,0-0.5-0.1s-0.2-0.2-0.2-0.4l0-0.2c-0.2,0.2-0.4,0.4-0.7,0.6C344.6,370.8,344.3,370.9,344,370.9z M344.3,370.1
		c0.2,0,0.4,0,0.5-0.1c0.2-0.1,0.3-0.1,0.4-0.3c0.1-0.1,0.2-0.2,0.2-0.3V369c-0.1,0-0.3-0.1-0.4-0.1s-0.3,0-0.4,0
		c-0.3,0-0.5,0.1-0.7,0.2s-0.3,0.3-0.3,0.5c0,0.2,0.1,0.3,0.2,0.5C343.9,370.1,344.1,370.1,344.3,370.1z"/>
	<path class="st3" d="M347.5,366.1V365h1.1v1.1H347.5z M347.5,370.8v-4.2h1.1v4.2H347.5z"/>
	<path class="st3" d="M349.5,365h1.1v4.5c0,0.2,0,0.3,0.1,0.4c0.1,0.1,0.2,0.1,0.3,0.1c0.1,0,0.1,0,0.2,0c0.1,0,0.2,0,0.2-0.1
		l0.1,0.8c-0.1,0.1-0.3,0.1-0.5,0.2c-0.2,0-0.4,0.1-0.5,0.1c-0.3,0-0.6-0.1-0.8-0.3c-0.2-0.2-0.3-0.4-0.3-0.8V365z"/>
	<path class="st3" d="M353.2,370.9c-0.2,0-0.4,0-0.6-0.1s-0.3-0.2-0.5-0.3c-0.1-0.1-0.2-0.3-0.3-0.4c-0.1-0.2-0.1-0.3-0.1-0.5
		c0-0.2,0-0.4,0.1-0.5s0.2-0.3,0.4-0.4s0.3-0.2,0.6-0.3c0.2-0.1,0.5-0.1,0.7-0.1c0.2,0,0.4,0,0.5,0c0.2,0,0.3,0.1,0.5,0.1v-0.2
		c0-0.3-0.1-0.5-0.2-0.6s-0.4-0.2-0.7-0.2c-0.2,0-0.4,0-0.7,0.1c-0.2,0.1-0.4,0.2-0.7,0.4l-0.3-0.7c0.5-0.4,1.1-0.5,1.7-0.5
		c0.6,0,1.1,0.1,1.4,0.4c0.3,0.3,0.5,0.7,0.5,1.3v1.3c0,0.1,0,0.2,0.1,0.2s0.1,0.1,0.2,0.1v0.9c-0.2,0-0.3,0.1-0.5,0.1
		c-0.2,0-0.4,0-0.5-0.1s-0.2-0.2-0.2-0.4l0-0.2c-0.2,0.2-0.4,0.4-0.7,0.6C353.8,370.8,353.5,370.9,353.2,370.9z M353.5,370.1
		c0.2,0,0.4,0,0.5-0.1s0.3-0.1,0.4-0.3c0.1-0.1,0.2-0.2,0.2-0.3V369c-0.1,0-0.3-0.1-0.4-0.1s-0.3,0-0.4,0c-0.3,0-0.5,0.1-0.7,0.2
		s-0.3,0.3-0.3,0.5c0,0.2,0.1,0.3,0.2,0.5C353.1,370.1,353.3,370.1,353.5,370.1z"/>
	<path class="st3" d="M359,370.9c-0.3,0-0.6-0.1-0.9-0.2c-0.3-0.1-0.4-0.3-0.6-0.6v0.7h-0.9V365h1.1v2.4c0.1-0.3,0.3-0.5,0.6-0.6
		c0.2-0.1,0.5-0.2,0.9-0.2c0.3,0,0.5,0.1,0.7,0.2s0.4,0.3,0.6,0.5s0.3,0.4,0.4,0.7s0.1,0.5,0.1,0.8c0,0.3,0,0.6-0.1,0.8
		c-0.1,0.3-0.2,0.5-0.4,0.7s-0.4,0.3-0.6,0.5S359.3,370.9,359,370.9z M358.7,370c0.2,0,0.3,0,0.5-0.1c0.1-0.1,0.3-0.2,0.4-0.3
		c0.1-0.1,0.2-0.2,0.2-0.4s0.1-0.3,0.1-0.5c0-0.2,0-0.3-0.1-0.5c-0.1-0.2-0.1-0.3-0.2-0.4c-0.1-0.1-0.2-0.2-0.3-0.3
		c-0.1-0.1-0.3-0.1-0.4-0.1c-0.2,0-0.5,0.1-0.6,0.2c-0.2,0.2-0.3,0.4-0.4,0.6v1c0,0.1,0.1,0.2,0.2,0.3c0.1,0.1,0.2,0.2,0.2,0.2
		c0.1,0.1,0.2,0.1,0.3,0.1C358.5,370,358.6,370,358.7,370z"/>
	<path class="st3" d="M361.7,366.1V365h1.1v1.1H361.7z M361.7,370.8v-4.2h1.1v4.2H361.7z"/>
	<path class="st3" d="M363.7,365h1.1v4.5c0,0.2,0,0.3,0.1,0.4c0.1,0.1,0.2,0.1,0.3,0.1c0.1,0,0.1,0,0.2,0c0.1,0,0.2,0,0.2-0.1
		l0.1,0.8c-0.1,0.1-0.3,0.1-0.5,0.2c-0.2,0-0.4,0.1-0.5,0.1c-0.3,0-0.6-0.1-0.8-0.3c-0.2-0.2-0.3-0.4-0.3-0.8V365z"/>
	<path class="st3" d="M366.3,366.1V365h1.1v1.1H366.3z M366.3,370.8v-4.2h1.1v4.2H366.3z"/>
	<path class="st3" d="M370.8,370.6c-0.1,0.1-0.3,0.1-0.5,0.2c-0.2,0.1-0.4,0.1-0.7,0.1c-0.1,0-0.3,0-0.4-0.1c-0.1,0-0.2-0.1-0.3-0.2
		s-0.2-0.2-0.2-0.3s-0.1-0.3-0.1-0.5v-2.4H368v-0.8h0.6v-1.4h1.1v1.4h0.9v0.8h-0.9v2c0,0.1,0,0.3,0.1,0.3s0.2,0.1,0.3,0.1
		c0.1,0,0.2,0,0.3-0.1c0.1,0,0.2-0.1,0.3-0.1L370.8,370.6z"/>
	<path class="st3" d="M371.5,371.6c0.1,0,0.2,0,0.3,0.1c0.1,0,0.2,0,0.2,0c0.1,0,0.1,0,0.2,0c0.1,0,0.1-0.1,0.2-0.1s0.1-0.2,0.1-0.3
		c0-0.1,0.1-0.3,0.2-0.4l-1.7-4.2h1.1l1.1,3.3l1-3.3h1l-1.8,5c-0.1,0.3-0.3,0.5-0.5,0.7c-0.2,0.2-0.5,0.3-0.9,0.3
		c-0.1,0-0.2,0-0.3,0c-0.1,0-0.2,0-0.3-0.1V371.6z"/>
</g>
<g>
	<path class="st3" d="M210.1,170.6c-0.3,0-0.6,0.1-0.9,0.2c-0.3,0.1-0.4,0.3-0.6,0.5v2.5h-1.1v-4.2h1v0.9c0.1-0.1,0.2-0.3,0.3-0.4
		s0.2-0.2,0.3-0.3s0.2-0.2,0.4-0.2c0.1,0,0.2-0.1,0.3-0.1c0.1,0,0.1,0,0.1,0s0.1,0,0.1,0V170.6z"/>
	<path class="st3" d="M212.4,174c-0.3,0-0.6-0.1-0.9-0.2c-0.3-0.1-0.5-0.3-0.7-0.5c-0.2-0.2-0.3-0.4-0.4-0.7
		c-0.1-0.3-0.2-0.5-0.2-0.8c0-0.3,0.1-0.6,0.2-0.8c0.1-0.3,0.2-0.5,0.4-0.7c0.2-0.2,0.4-0.4,0.7-0.5s0.6-0.2,0.9-0.2
		c0.3,0,0.6,0.1,0.9,0.2s0.5,0.3,0.7,0.5c0.2,0.2,0.3,0.4,0.4,0.7c0.1,0.3,0.1,0.5,0.1,0.8c0,0.1,0,0.1,0,0.2c0,0.1,0,0.1,0,0.2
		h-3.2c0,0.2,0.1,0.3,0.1,0.4c0.1,0.1,0.1,0.2,0.2,0.3s0.2,0.2,0.3,0.2c0.1,0,0.3,0.1,0.4,0.1c0.2,0,0.4-0.1,0.6-0.2
		c0.2-0.1,0.3-0.2,0.4-0.4l0.9,0.3c-0.2,0.3-0.4,0.6-0.7,0.8C213.3,173.9,212.9,174,212.4,174z M213.5,171.4c0-0.3-0.1-0.6-0.3-0.8
		c-0.2-0.2-0.5-0.3-0.7-0.3c-0.1,0-0.3,0-0.4,0.1c-0.1,0.1-0.2,0.1-0.3,0.2c-0.1,0.1-0.2,0.2-0.2,0.3c-0.1,0.1-0.1,0.3-0.1,0.4
		H213.5z"/>
	<path class="st3" d="M215,171.8c0-0.3,0.1-0.6,0.2-0.8c0.1-0.3,0.2-0.5,0.4-0.7c0.2-0.2,0.4-0.4,0.7-0.5c0.3-0.1,0.6-0.2,0.9-0.2
		c0.5,0,0.8,0.1,1.2,0.3c0.3,0.2,0.6,0.5,0.7,0.8l-1,0.3c-0.1-0.2-0.2-0.3-0.4-0.4c-0.1-0.1-0.3-0.1-0.5-0.1c-0.2,0-0.3,0-0.4,0.1
		c-0.1,0.1-0.2,0.1-0.3,0.3s-0.2,0.2-0.2,0.4c-0.1,0.2-0.1,0.3-0.1,0.5c0,0.2,0,0.4,0.1,0.5s0.1,0.3,0.2,0.4
		c0.1,0.1,0.2,0.2,0.3,0.3c0.1,0.1,0.3,0.1,0.4,0.1c0.2,0,0.4,0,0.5-0.1c0.2-0.1,0.3-0.2,0.3-0.4l1,0.3c-0.1,0.3-0.4,0.6-0.7,0.8
		c-0.3,0.2-0.7,0.3-1.2,0.3c-0.3,0-0.6-0.1-0.9-0.2c-0.3-0.1-0.5-0.3-0.7-0.5c-0.2-0.2-0.3-0.4-0.4-0.7
		C215,172.3,215,172.1,215,171.8z"/>
	<path class="st3" d="M219.8,169.1V168h1.1v1.1H219.8z M219.8,173.9v-4.2h1.1v4.2H219.8z"/>
	<path class="st3" d="M224.3,174c-0.3,0-0.6-0.1-0.9-0.2c-0.2-0.1-0.4-0.3-0.6-0.6v2.4h-1.1v-5.9h0.9v0.7c0.2-0.2,0.4-0.4,0.6-0.6
		c0.2-0.1,0.5-0.2,0.8-0.2c0.3,0,0.5,0.1,0.8,0.2c0.2,0.1,0.4,0.3,0.6,0.5c0.2,0.2,0.3,0.4,0.4,0.7s0.1,0.5,0.1,0.8
		c0,0.3,0,0.6-0.1,0.9c-0.1,0.3-0.2,0.5-0.4,0.7c-0.2,0.2-0.4,0.4-0.6,0.5C224.8,173.9,224.6,174,224.3,174z M224,173
		c0.2,0,0.3,0,0.4-0.1s0.3-0.2,0.3-0.3s0.2-0.3,0.2-0.4c0.1-0.2,0.1-0.3,0.1-0.5c0-0.2,0-0.3-0.1-0.5c-0.1-0.2-0.1-0.3-0.2-0.4
		c-0.1-0.1-0.2-0.2-0.4-0.3c-0.1-0.1-0.3-0.1-0.5-0.1c-0.1,0-0.2,0-0.3,0.1s-0.2,0.1-0.3,0.1s-0.2,0.1-0.2,0.2
		c-0.1,0.1-0.1,0.2-0.2,0.3v1c0.1,0.2,0.2,0.4,0.4,0.6S223.7,173,224,173z"/>
	<path class="st3" d="M228.8,174c-0.3,0-0.6-0.1-0.9-0.2c-0.3-0.1-0.5-0.3-0.7-0.5s-0.3-0.4-0.4-0.7c-0.1-0.3-0.2-0.5-0.2-0.8
		c0-0.3,0-0.6,0.2-0.8s0.2-0.5,0.4-0.7c0.2-0.2,0.4-0.4,0.7-0.5c0.3-0.1,0.6-0.2,0.9-0.2c0.3,0,0.6,0.1,0.9,0.2s0.5,0.3,0.7,0.5
		c0.2,0.2,0.3,0.4,0.4,0.7c0.1,0.3,0.1,0.5,0.1,0.8c0,0.1,0,0.1,0,0.2s0,0.1,0,0.2h-3.2c0,0.2,0.1,0.3,0.1,0.4
		c0.1,0.1,0.1,0.2,0.2,0.3c0.1,0.1,0.2,0.2,0.3,0.2c0.1,0,0.3,0.1,0.4,0.1c0.2,0,0.4-0.1,0.6-0.2s0.3-0.2,0.4-0.4l0.9,0.3
		c-0.2,0.3-0.4,0.6-0.7,0.8C229.7,173.9,229.3,174,228.8,174z M229.9,171.4c0-0.3-0.1-0.6-0.3-0.8c-0.2-0.2-0.5-0.3-0.7-0.3
		c-0.1,0-0.3,0-0.4,0.1c-0.1,0.1-0.2,0.1-0.3,0.2c-0.1,0.1-0.2,0.2-0.2,0.3s-0.1,0.3-0.1,0.4H229.9z"/>
	<path class="st3" d="M233.3,174c-0.4,0-0.7-0.1-1-0.2c-0.3-0.1-0.6-0.3-0.9-0.5l0.4-0.7c0.3,0.2,0.5,0.3,0.7,0.4
		c0.2,0.1,0.5,0.1,0.7,0.1c0.2,0,0.4,0,0.5-0.1c0.1-0.1,0.2-0.2,0.2-0.3s-0.1-0.3-0.2-0.3c-0.1-0.1-0.4-0.1-0.7-0.2
		c-0.3-0.1-0.5-0.1-0.7-0.2c-0.2-0.1-0.3-0.1-0.5-0.2s-0.2-0.2-0.3-0.3c-0.1-0.1-0.1-0.3-0.1-0.4c0-0.2,0-0.4,0.1-0.6
		c0.1-0.2,0.2-0.3,0.3-0.4s0.3-0.2,0.5-0.3c0.2-0.1,0.4-0.1,0.7-0.1c0.3,0,0.6,0,0.9,0.1c0.3,0.1,0.5,0.2,0.8,0.4l-0.4,0.6
		c-0.2-0.2-0.4-0.3-0.6-0.4c-0.2-0.1-0.4-0.1-0.6-0.1c-0.2,0-0.3,0-0.5,0.1c-0.1,0.1-0.2,0.2-0.2,0.4c0,0.1,0,0.1,0,0.2
		s0.1,0.1,0.1,0.1c0.1,0,0.1,0.1,0.3,0.1c0.1,0,0.2,0.1,0.4,0.1c0.3,0.1,0.5,0.1,0.7,0.2c0.2,0.1,0.4,0.2,0.5,0.3
		c0.1,0.1,0.2,0.2,0.3,0.3c0.1,0.1,0.1,0.3,0.1,0.5c0,0.4-0.2,0.7-0.5,1C234.2,173.8,233.8,174,233.3,174z"/>
</g>
<g>
	<path class="st3" d="M283.8,171.8c0-0.3,0-0.6,0.2-0.8c0.1-0.3,0.2-0.5,0.4-0.7c0.2-0.2,0.4-0.4,0.7-0.5c0.3-0.1,0.6-0.2,0.9-0.2
		c0.5,0,0.8,0.1,1.2,0.3c0.3,0.2,0.6,0.5,0.7,0.8l-1,0.3c-0.1-0.2-0.2-0.3-0.4-0.4c-0.1-0.1-0.3-0.1-0.5-0.1c-0.2,0-0.3,0-0.4,0.1
		c-0.1,0.1-0.2,0.1-0.3,0.3s-0.2,0.2-0.2,0.4s-0.1,0.3-0.1,0.5c0,0.2,0,0.4,0.1,0.5s0.1,0.3,0.2,0.4c0.1,0.1,0.2,0.2,0.3,0.3
		c0.1,0.1,0.3,0.1,0.4,0.1c0.2,0,0.4,0,0.5-0.1c0.2-0.1,0.3-0.2,0.3-0.4l1,0.3c-0.1,0.3-0.4,0.6-0.7,0.8c-0.3,0.2-0.7,0.3-1.2,0.3
		c-0.3,0-0.6-0.1-0.9-0.2c-0.3-0.1-0.5-0.3-0.7-0.5c-0.2-0.2-0.3-0.4-0.4-0.7C283.9,172.3,283.8,172.1,283.8,171.8z"/>
	<path class="st3" d="M290.5,174c-0.3,0-0.6-0.1-0.9-0.2c-0.3-0.1-0.5-0.3-0.7-0.5c-0.2-0.2-0.3-0.4-0.4-0.7
		c-0.1-0.3-0.2-0.5-0.2-0.8c0-0.3,0.1-0.6,0.2-0.8c0.1-0.3,0.2-0.5,0.4-0.7c0.2-0.2,0.4-0.4,0.7-0.5c0.3-0.1,0.6-0.2,0.9-0.2
		c0.3,0,0.6,0.1,0.9,0.2s0.5,0.3,0.7,0.5c0.2,0.2,0.3,0.4,0.4,0.7s0.2,0.5,0.2,0.8c0,0.3-0.1,0.6-0.2,0.8c-0.1,0.3-0.2,0.5-0.4,0.7
		c-0.2,0.2-0.4,0.4-0.7,0.5C291.1,173.9,290.8,174,290.5,174z M289.4,171.8c0,0.2,0,0.4,0.1,0.5c0.1,0.2,0.1,0.3,0.2,0.4
		c0.1,0.1,0.2,0.2,0.3,0.3c0.1,0.1,0.3,0.1,0.4,0.1c0.2,0,0.3,0,0.4-0.1c0.1-0.1,0.2-0.1,0.3-0.3c0.1-0.1,0.2-0.2,0.2-0.4
		c0.1-0.2,0.1-0.3,0.1-0.5c0-0.2,0-0.3-0.1-0.5c-0.1-0.2-0.1-0.3-0.2-0.4s-0.2-0.2-0.3-0.3c-0.1-0.1-0.3-0.1-0.4-0.1
		c-0.2,0-0.3,0-0.4,0.1c-0.1,0.1-0.2,0.2-0.3,0.3c-0.1,0.1-0.2,0.2-0.2,0.4C289.4,171.4,289.4,171.6,289.4,171.8z"/>
	<path class="st3" d="M295.3,174c-0.3,0-0.6-0.1-0.9-0.2c-0.3-0.1-0.5-0.3-0.7-0.5c-0.2-0.2-0.3-0.4-0.4-0.7
		c-0.1-0.3-0.2-0.5-0.2-0.8c0-0.3,0.1-0.6,0.2-0.8c0.1-0.3,0.2-0.5,0.4-0.7c0.2-0.2,0.4-0.4,0.7-0.5c0.3-0.1,0.6-0.2,0.9-0.2
		c0.3,0,0.6,0.1,0.9,0.2s0.5,0.3,0.7,0.5c0.2,0.2,0.3,0.4,0.4,0.7s0.2,0.5,0.2,0.8c0,0.3-0.1,0.6-0.2,0.8c-0.1,0.3-0.2,0.5-0.4,0.7
		c-0.2,0.2-0.4,0.4-0.7,0.5C296,173.9,295.7,174,295.3,174z M294.2,171.8c0,0.2,0,0.4,0.1,0.5c0.1,0.2,0.1,0.3,0.2,0.4
		c0.1,0.1,0.2,0.2,0.3,0.3c0.1,0.1,0.3,0.1,0.4,0.1c0.2,0,0.3,0,0.4-0.1c0.1-0.1,0.2-0.1,0.3-0.3c0.1-0.1,0.2-0.2,0.2-0.4
		c0.1-0.2,0.1-0.3,0.1-0.5c0-0.2,0-0.3-0.1-0.5c-0.1-0.2-0.1-0.3-0.2-0.4s-0.2-0.2-0.3-0.3c-0.1-0.1-0.3-0.1-0.4-0.1
		c-0.2,0-0.3,0-0.4,0.1c-0.1,0.1-0.2,0.2-0.3,0.3c-0.1,0.1-0.2,0.2-0.2,0.4C294.3,171.4,294.2,171.6,294.2,171.8z"/>
	<path class="st3" d="M301.1,173.9l-1.2-1.8l-0.6,0.6v1.2h-1.1V168h1.1v3.5l1.7-1.9h1.1l-1.6,1.8l1.7,2.4H301.1z"/>
	<path class="st3" d="M305.1,174c-0.3,0-0.6-0.1-0.9-0.2c-0.3-0.1-0.4-0.3-0.6-0.6v0.7h-0.9V168h1.1v2.4c0.1-0.3,0.3-0.5,0.6-0.6
		c0.2-0.1,0.5-0.2,0.9-0.2c0.3,0,0.5,0.1,0.7,0.2s0.4,0.3,0.6,0.5c0.2,0.2,0.3,0.4,0.4,0.7s0.1,0.5,0.1,0.8c0,0.3,0,0.6-0.1,0.8
		s-0.2,0.5-0.4,0.7s-0.4,0.3-0.6,0.5C305.6,173.9,305.4,174,305.1,174z M304.8,173c0.2,0,0.3,0,0.5-0.1c0.1-0.1,0.3-0.2,0.4-0.3
		c0.1-0.1,0.2-0.2,0.2-0.4s0.1-0.3,0.1-0.5c0-0.2,0-0.3-0.1-0.5s-0.1-0.3-0.2-0.4c-0.1-0.1-0.2-0.2-0.3-0.3
		c-0.1-0.1-0.3-0.1-0.4-0.1c-0.2,0-0.5,0.1-0.6,0.2c-0.2,0.2-0.3,0.4-0.4,0.6v1c0,0.1,0.1,0.2,0.2,0.3c0.1,0.1,0.2,0.2,0.2,0.2
		c0.1,0.1,0.2,0.1,0.3,0.1C304.6,173,304.7,173,304.8,173z"/>
	<path class="st3" d="M309.7,174c-0.3,0-0.6-0.1-0.9-0.2c-0.3-0.1-0.5-0.3-0.7-0.5c-0.2-0.2-0.3-0.4-0.4-0.7
		c-0.1-0.3-0.2-0.5-0.2-0.8c0-0.3,0.1-0.6,0.2-0.8c0.1-0.3,0.2-0.5,0.4-0.7c0.2-0.2,0.4-0.4,0.7-0.5c0.3-0.1,0.6-0.2,0.9-0.2
		c0.3,0,0.6,0.1,0.9,0.2s0.5,0.3,0.7,0.5c0.2,0.2,0.3,0.4,0.4,0.7s0.2,0.5,0.2,0.8c0,0.3-0.1,0.6-0.2,0.8c-0.1,0.3-0.2,0.5-0.4,0.7
		c-0.2,0.2-0.4,0.4-0.7,0.5C310.4,173.9,310.1,174,309.7,174z M308.6,171.8c0,0.2,0,0.4,0.1,0.5c0.1,0.2,0.1,0.3,0.2,0.4
		c0.1,0.1,0.2,0.2,0.3,0.3c0.1,0.1,0.3,0.1,0.4,0.1c0.2,0,0.3,0,0.4-0.1c0.1-0.1,0.2-0.1,0.3-0.3c0.1-0.1,0.2-0.2,0.2-0.4
		c0.1-0.2,0.1-0.3,0.1-0.5c0-0.2,0-0.3-0.1-0.5c-0.1-0.2-0.1-0.3-0.2-0.4s-0.2-0.2-0.3-0.3c-0.1-0.1-0.3-0.1-0.4-0.1
		c-0.2,0-0.3,0-0.4,0.1c-0.1,0.1-0.2,0.2-0.3,0.3c-0.1,0.1-0.2,0.2-0.2,0.4C308.7,171.4,308.6,171.6,308.6,171.8z"/>
	<path class="st3" d="M314.6,174c-0.3,0-0.6-0.1-0.9-0.2c-0.3-0.1-0.5-0.3-0.7-0.5c-0.2-0.2-0.3-0.4-0.4-0.7
		c-0.1-0.3-0.2-0.5-0.2-0.8c0-0.3,0-0.6,0.2-0.8s0.2-0.5,0.4-0.7c0.2-0.2,0.4-0.4,0.7-0.5c0.3-0.1,0.6-0.2,0.9-0.2
		c0.3,0,0.6,0.1,0.9,0.2c0.3,0.1,0.5,0.3,0.7,0.5c0.2,0.2,0.3,0.4,0.4,0.7c0.1,0.3,0.2,0.5,0.2,0.8c0,0.3-0.1,0.6-0.2,0.8
		c-0.1,0.3-0.2,0.5-0.4,0.7c-0.2,0.2-0.4,0.4-0.7,0.5C315.2,173.9,314.9,174,314.6,174z M313.5,171.8c0,0.2,0,0.4,0.1,0.5
		s0.1,0.3,0.2,0.4c0.1,0.1,0.2,0.2,0.3,0.3c0.1,0.1,0.3,0.1,0.4,0.1c0.2,0,0.3,0,0.4-0.1c0.1-0.1,0.2-0.1,0.3-0.3
		c0.1-0.1,0.2-0.2,0.2-0.4c0.1-0.2,0.1-0.3,0.1-0.5c0-0.2,0-0.3-0.1-0.5c-0.1-0.2-0.1-0.3-0.2-0.4s-0.2-0.2-0.3-0.3
		c-0.1-0.1-0.3-0.1-0.4-0.1c-0.2,0-0.3,0-0.4,0.1s-0.2,0.2-0.3,0.3c-0.1,0.1-0.2,0.2-0.2,0.4S313.5,171.6,313.5,171.8z"/>
	<path class="st3" d="M320.3,173.9l-1.2-1.8l-0.6,0.6v1.2h-1.1V168h1.1v3.5l1.7-1.9h1.1l-1.6,1.8l1.7,2.4H320.3z"/>
	<path class="st3" d="M323.5,174c-0.4,0-0.7-0.1-1-0.2c-0.3-0.1-0.6-0.3-0.9-0.5l0.4-0.7c0.3,0.2,0.5,0.3,0.7,0.4
		c0.2,0.1,0.5,0.1,0.7,0.1c0.2,0,0.4,0,0.5-0.1s0.2-0.2,0.2-0.3s-0.1-0.3-0.2-0.3c-0.1-0.1-0.4-0.1-0.7-0.2
		c-0.3-0.1-0.5-0.1-0.7-0.2c-0.2-0.1-0.3-0.1-0.5-0.2c-0.1-0.1-0.2-0.2-0.3-0.3c-0.1-0.1-0.1-0.3-0.1-0.4c0-0.2,0-0.4,0.1-0.6
		c0.1-0.2,0.2-0.3,0.3-0.4s0.3-0.2,0.5-0.3c0.2-0.1,0.4-0.1,0.7-0.1c0.3,0,0.6,0,0.9,0.1c0.3,0.1,0.5,0.2,0.8,0.4l-0.4,0.6
		c-0.2-0.2-0.4-0.3-0.6-0.4s-0.4-0.1-0.6-0.1c-0.2,0-0.3,0-0.5,0.1c-0.1,0.1-0.2,0.2-0.2,0.4c0,0.1,0,0.1,0,0.2s0.1,0.1,0.1,0.1
		c0.1,0,0.1,0.1,0.3,0.1c0.1,0,0.2,0.1,0.4,0.1c0.3,0.1,0.5,0.1,0.7,0.2s0.4,0.2,0.5,0.3c0.1,0.1,0.2,0.2,0.3,0.3
		c0.1,0.1,0.1,0.3,0.1,0.5c0,0.4-0.2,0.7-0.5,1C324.5,173.8,324,174,323.5,174z"/>
</g>
<g>
</g>
<g>
</g>
<g>
</g>
<g>
</g>
<g>
</g>
<g>
</g>
</svg>
